{"glyphs":{"0":{"ha":858,"x_min":0,"x_max":0,"o":"m 378 -7 l 481 -7 b 768 278 682 -7 768 100 l 768 694 b 481 979 768 872 682 979 l 378 979 b 92 694 176 979 92 872 l 92 278 b 378 -7 92 100 176 -7 z m 385 132 b 246 278 294 132 246 169 l 246 696 b 385 840 246 801 294 840 l 474 840 b 614 696 564 840 614 801 l 614 278 b 474 132 614 169 564 132 z "},"1":{"ha":442,"x_min":0,"x_max":0,"o":"m 331 972 l 71 972 b 49 950 56 972 49 965 l 49 857 b 71 835 49 842 56 835 l 196 835 l 196 21 b 217 0 196 7 203 0 l 331 0 b 351 21 344 0 351 7 l 351 951 b 331 972 351 965 344 972 z "},"2":{"ha":818,"x_min":0,"x_max":0,"o":"m 90 0 l 719 0 b 740 22 733 0 740 7 l 740 115 b 719 138 740 131 733 138 l 228 138 l 228 185 b 361 335 228 257 263 294 l 533 406 b 749 714 708 476 749 525 b 475 979 749 868 675 979 l 375 979 b 82 722 178 979 82 897 l 82 696 b 103 675 82 682 89 675 l 215 675 b 236 696 229 675 236 682 b 376 840 236 804 285 840 l 467 840 b 594 714 554 840 594 797 b 469 536 594 624 582 585 l 271 454 b 69 140 103 383 69 300 l 69 21 b 90 0 69 7 76 0 z "},"3":{"ha":810,"x_min":0,"x_max":0,"o":"m 571 494 l 571 507 b 722 714 671 533 722 576 b 444 979 722 868 644 979 l 374 979 b 82 722 178 979 82 897 l 82 696 b 101 675 82 682 88 675 l 215 675 b 236 696 229 675 236 682 b 376 840 236 804 285 840 l 436 840 b 568 714 524 840 568 797 b 415 569 568 626 546 569 l 344 569 b 324 547 331 569 324 563 l 324 454 b 344 432 324 439 331 432 l 415 432 b 586 263 546 432 586 378 b 453 132 586 178 540 132 l 365 132 b 225 276 274 132 225 168 b 204 297 225 290 218 297 l 90 297 b 71 276 76 297 71 290 l 71 250 b 363 -7 71 75 167 -7 l 461 -7 b 740 263 661 -7 740 107 b 571 494 740 432 671 471 z "},"4":{"ha":771,"x_min":0,"x_max":0,"o":"m 686 364 l 615 364 l 615 533 b 594 554 615 547 608 554 l 482 554 b 461 533 468 554 461 547 l 461 364 l 215 364 l 528 946 b 515 972 536 960 532 972 l 392 972 b 363 953 381 972 371 968 l 47 365 b 47 329 39 350 40 344 l 86 244 b 110 226 93 232 99 226 l 461 226 l 461 21 b 482 0 461 7 468 0 l 594 0 b 615 21 608 0 615 7 l 615 226 l 686 226 b 708 247 701 226 708 233 l 708 342 b 686 364 708 357 701 364 z "},"5":{"ha":813,"x_min":0,"x_max":0,"o":"m 363 -7 l 461 -7 b 742 278 661 -7 742 100 l 742 354 b 479 636 742 501 690 636 l 419 636 b 244 568 338 636 269 604 l 235 568 l 263 835 l 663 835 b 685 857 678 835 685 842 l 685 950 b 663 972 685 965 678 972 l 149 972 b 128 951 135 972 129 965 l 81 450 b 101 425 79 433 86 425 l 235 425 b 367 499 253 460 286 499 l 447 499 b 588 353 538 499 588 461 l 588 278 b 453 132 588 169 540 132 l 364 132 b 224 276 274 132 224 168 b 203 297 224 290 217 297 l 90 297 b 69 276 76 297 69 290 l 69 250 b 363 -7 69 75 165 -7 z "},"6":{"ha":839,"x_min":0,"x_max":0,"o":"m 376 -7 l 482 -7 b 768 278 683 -7 768 100 l 768 343 b 506 626 768 490 717 626 l 425 626 b 256 557 350 626 281 593 l 246 557 l 246 713 b 374 840 246 797 286 840 l 451 840 b 592 749 544 840 592 828 b 611 728 592 735 599 728 l 725 728 b 746 749 739 728 746 735 l 746 768 b 454 979 746 915 653 979 l 367 979 b 92 714 167 979 92 868 l 92 278 b 376 -7 92 100 176 -7 z m 386 132 b 246 278 294 132 246 169 l 246 342 b 386 488 246 450 294 488 l 474 488 b 614 342 564 488 614 450 l 614 278 b 474 132 614 169 564 132 z "},"7":{"ha":751,"x_min":0,"x_max":0,"o":"m 125 0 l 233 0 b 263 24 247 0 260 11 b 675 781 328 319 469 550 b 703 835 694 803 703 817 l 703 951 b 683 972 703 965 696 972 l 85 972 b 63 950 69 972 63 965 l 63 857 b 85 835 63 842 69 835 l 540 835 l 540 824 b 106 29 318 578 171 319 b 125 0 103 17 108 0 z "},"8":{"ha":860,"x_min":0,"x_max":0,"o":"m 647 533 b 735 724 707 565 735 625 b 474 979 735 890 654 979 l 386 979 b 125 724 206 979 125 890 b 213 533 125 625 153 565 b 92 311 129 499 92 426 l 92 268 b 376 -7 92 100 176 -7 l 482 -7 b 768 268 683 -7 768 100 l 768 311 b 647 533 768 426 731 499 z m 397 847 l 463 847 b 588 724 561 847 588 800 b 463 601 588 649 561 601 l 397 601 b 271 724 297 601 271 649 b 397 847 271 800 297 847 z m 614 268 b 474 132 614 169 564 132 l 386 132 b 246 268 294 132 246 169 l 246 311 b 386 453 246 415 294 453 l 474 453 b 614 311 564 453 614 415 z "},"9":{"ha":839,"x_min":0,"x_max":0,"o":"m 461 979 l 356 979 b 71 694 156 979 71 872 l 71 629 b 333 347 71 482 122 347 l 414 347 b 582 415 489 347 558 379 l 593 415 l 593 260 b 465 132 593 175 553 132 l 386 132 b 247 224 294 132 247 144 b 226 244 247 238 240 244 l 113 244 b 93 224 100 244 93 238 l 93 204 b 383 -7 93 57 185 -7 l 471 -7 b 747 258 672 -7 747 104 l 747 694 b 461 979 747 872 663 979 z m 453 840 b 593 694 543 840 593 803 l 593 631 b 453 485 593 522 543 485 l 365 485 b 225 631 274 485 225 522 l 225 694 b 365 840 225 803 274 840 z "},"A":{"ha":857,"x_min":0,"x_max":0,"o":"m 806 26 l 554 950 b 528 972 550 964 540 972 l 329 972 b 303 950 317 972 307 964 l 51 26 b 68 0 47 11 54 0 l 186 0 b 213 26 200 0 208 11 l 251 169 l 606 169 l 644 26 b 671 0 649 11 657 0 l 789 0 b 806 26 801 0 810 11 z m 289 307 l 419 793 l 438 793 l 568 307 z "},"Á":{"ha":857,"x_min":0,"x_max":0,"o":"m 385 1040 l 481 1040 b 514 1065 494 1040 504 1051 l 638 1225 b 624 1250 650 1240 639 1250 l 476 1250 b 447 1225 463 1250 456 1242 l 371 1065 b 385 1040 363 1049 369 1040 z m 806 26 l 554 950 b 528 972 550 964 540 972 l 329 972 b 303 950 317 972 307 964 l 51 26 b 68 0 47 11 54 0 l 186 0 b 213 26 200 0 208 11 l 251 169 l 606 169 l 644 26 b 671 0 649 11 657 0 l 789 0 b 806 26 801 0 810 11 z m 289 307 l 419 793 l 438 793 l 568 307 z "},"Ă":{"ha":857,"x_min":0,"x_max":0,"o":"m 388 1036 l 467 1036 b 653 1229 594 1036 653 1100 b 632 1250 653 1243 646 1250 l 547 1250 b 526 1229 533 1250 528 1243 b 446 1144 522 1183 506 1144 l 408 1144 b 328 1229 349 1144 332 1183 b 308 1250 328 1243 322 1250 l 222 1250 b 201 1229 208 1250 201 1243 b 388 1036 201 1100 261 1036 z m 806 26 l 554 950 b 528 972 550 964 540 972 l 329 972 b 303 950 317 972 307 964 l 51 26 b 68 0 47 11 54 0 l 186 0 b 213 26 200 0 208 11 l 251 169 l 606 169 l 644 26 b 671 0 649 11 657 0 l 789 0 b 806 26 801 0 810 11 z m 289 307 l 419 793 l 438 793 l 568 307 z "},"Ǎ":{"ha":857,"x_min":0,"x_max":0,"o":"m 329 1060 b 367 1040 340 1046 351 1040 l 488 1040 b 526 1060 503 1040 515 1047 l 669 1224 b 658 1250 681 1236 672 1250 l 551 1250 b 508 1224 532 1250 522 1242 l 435 1139 l 421 1139 l 347 1224 b 306 1250 333 1242 324 1250 l 197 1250 b 186 1224 183 1250 175 1236 z m 806 26 l 554 950 b 528 972 550 964 540 972 l 329 972 b 303 950 317 972 307 964 l 51 26 b 68 0 47 11 54 0 l 186 0 b 213 26 200 0 208 11 l 251 169 l 606 169 l 644 26 b 671 0 649 11 657 0 l 789 0 b 806 26 801 0 810 11 z m 289 307 l 419 793 l 438 793 l 568 307 z "},"Â":{"ha":857,"x_min":0,"x_max":0,"o":"m 197 1040 l 306 1040 b 347 1067 324 1040 333 1050 l 421 1151 l 435 1151 l 508 1067 b 551 1040 522 1050 532 1040 l 658 1040 b 669 1067 672 1040 681 1054 l 526 1231 b 488 1250 515 1243 503 1250 l 367 1250 b 329 1231 351 1250 340 1244 l 186 1067 b 197 1040 175 1054 183 1040 z m 806 26 l 554 950 b 528 972 550 964 540 972 l 329 972 b 303 950 317 972 307 964 l 51 26 b 68 0 47 11 54 0 l 186 0 b 213 26 200 0 208 11 l 251 169 l 606 169 l 644 26 b 671 0 649 11 657 0 l 789 0 b 806 26 801 0 810 11 z m 289 307 l 419 793 l 438 793 l 568 307 z "},"Ä":{"ha":857,"x_min":0,"x_max":0,"o":"m 169 1090 l 289 1090 b 308 1110 303 1090 308 1096 l 308 1229 b 289 1250 308 1243 303 1250 l 169 1250 b 149 1229 156 1250 149 1243 l 149 1110 b 169 1090 149 1096 156 1090 z m 568 1090 l 688 1090 b 708 1110 701 1090 708 1096 l 708 1229 b 688 1250 708 1243 701 1250 l 568 1250 b 549 1229 554 1250 549 1243 l 549 1110 b 568 1090 549 1096 554 1090 z m 806 26 l 554 950 b 528 972 550 964 540 972 l 329 972 b 303 950 317 972 307 964 l 51 26 b 68 0 47 11 54 0 l 186 0 b 213 26 200 0 208 11 l 251 169 l 606 169 l 644 26 b 671 0 649 11 657 0 l 789 0 b 806 26 801 0 810 11 z m 289 307 l 419 793 l 438 793 l 568 307 z "},"À":{"ha":857,"x_min":0,"x_max":0,"o":"m 349 1065 b 382 1040 358 1051 368 1040 l 478 1040 b 492 1065 493 1040 500 1049 l 417 1225 b 388 1250 407 1242 401 1250 l 239 1250 b 225 1225 224 1250 213 1240 z m 806 26 l 554 950 b 528 972 550 964 540 972 l 329 972 b 303 950 317 972 307 964 l 51 26 b 68 0 47 11 54 0 l 186 0 b 213 26 200 0 208 11 l 251 169 l 606 169 l 644 26 b 671 0 649 11 657 0 l 789 0 b 806 26 801 0 810 11 z m 289 307 l 419 793 l 438 793 l 568 307 z "},"Ā":{"ha":857,"x_min":0,"x_max":0,"o":"m 203 1110 l 653 1110 b 674 1131 665 1110 674 1117 l 674 1229 b 653 1250 674 1243 665 1250 l 203 1250 b 182 1229 189 1250 182 1243 l 182 1131 b 203 1110 182 1117 189 1110 z m 806 26 l 554 950 b 528 972 550 964 540 972 l 329 972 b 303 950 317 972 307 964 l 51 26 b 68 0 47 11 54 0 l 186 0 b 213 26 200 0 208 11 l 251 169 l 606 169 l 644 26 b 671 0 649 11 657 0 l 789 0 b 806 26 801 0 810 11 z m 289 307 l 419 793 l 438 793 l 568 307 z "},"Ą":{"ha":842,"x_min":0,"x_max":0,"o":"m 606 -140 l 721 -128 b 819 -46 783 -121 838 -111 l 804 8 b 806 26 807 13 807 19 l 554 950 b 528 972 550 964 540 972 l 329 972 b 303 950 317 972 307 964 l 51 26 b 68 0 47 11 54 0 l 186 0 b 213 26 200 0 208 11 l 251 169 l 606 169 l 644 26 l 638 26 l 647 -10 b 600 -46 656 -37 632 -42 l 549 -51 b 446 -165 471 -60 446 -75 b 585 -286 446 -264 476 -286 l 769 -286 b 783 -272 779 -286 783 -281 l 783 -200 b 769 -183 783 -190 778 -183 l 613 -183 b 585 -162 592 -183 585 -178 b 606 -140 585 -146 590 -143 z m 289 307 l 419 793 l 438 793 l 568 307 z "},"Å":{"ha":857,"x_min":0,"x_max":0,"o":"m 418 1025 l 436 1025 b 553 1140 504 1025 553 1075 l 553 1156 b 436 1272 553 1221 504 1272 l 418 1272 b 301 1156 350 1272 301 1221 l 301 1140 b 418 1025 301 1075 350 1025 z m 388 1154 b 421 1188 388 1174 401 1188 l 433 1188 b 468 1154 454 1188 468 1174 l 468 1144 b 433 1110 468 1125 454 1110 l 421 1110 b 388 1144 401 1110 388 1125 z m 806 26 l 554 950 b 528 972 550 964 540 972 l 329 972 b 303 950 317 972 307 964 l 51 26 b 68 0 47 11 54 0 l 186 0 b 213 26 200 0 208 11 l 251 169 l 606 169 l 644 26 b 671 0 649 11 657 0 l 789 0 b 806 26 801 0 810 11 z m 289 307 l 419 793 l 438 793 l 568 307 z "},"Ã":{"ha":857,"x_min":0,"x_max":0,"o":"m 224 1101 b 249 1096 228 1093 236 1088 b 332 1122 281 1115 300 1122 b 524 1064 404 1122 428 1064 b 657 1110 568 1064 610 1075 b 669 1139 668 1118 675 1125 l 636 1219 b 611 1226 632 1228 624 1233 b 528 1199 578 1207 560 1199 b 336 1257 456 1199 432 1257 b 203 1213 292 1257 250 1247 b 190 1182 192 1204 185 1196 z m 806 26 l 554 950 b 528 972 550 964 540 972 l 329 972 b 303 950 317 972 307 964 l 51 26 b 68 0 47 11 54 0 l 186 0 b 213 26 200 0 208 11 l 251 169 l 606 169 l 644 26 b 671 0 649 11 657 0 l 789 0 b 806 26 801 0 810 11 z m 289 307 l 419 793 l 438 793 l 568 307 z "},"Æ":{"ha":1261,"x_min":0,"x_max":0,"o":"m 1192 143 l 776 143 l 776 418 l 1151 418 b 1171 439 1165 418 1171 425 l 1171 536 b 1151 557 1171 550 1165 557 l 776 557 l 776 829 l 1185 829 b 1206 850 1199 829 1206 836 l 1206 951 b 1185 972 1206 965 1199 972 l 592 972 b 564 951 578 972 572 965 l 46 24 b 58 0 38 8 44 0 l 183 0 b 211 21 197 0 203 7 l 293 169 l 618 169 l 618 21 b 638 0 618 7 624 0 l 1192 0 b 1213 21 1206 0 1213 7 l 1213 122 b 1192 143 1213 136 1206 143 z m 368 307 l 618 761 l 618 307 z "},"B":{"ha":838,"x_min":0,"x_max":0,"o":"m 629 508 l 629 519 b 735 721 710 560 735 618 b 481 972 735 897 660 972 l 111 972 b 92 951 97 972 92 965 l 92 21 b 111 0 92 7 97 0 l 482 0 b 768 257 674 0 768 69 l 768 310 b 629 508 768 410 719 476 z m 576 714 l 576 682 b 458 564 576 589 533 564 l 250 564 l 250 829 l 458 829 b 576 714 536 829 576 808 z m 610 264 b 472 143 610 169 564 143 l 250 143 l 250 438 l 472 438 b 610 313 564 438 610 408 z "},"C":{"ha":872,"x_min":0,"x_max":0,"o":"m 378 -7 l 508 -7 b 794 269 713 -7 794 94 l 794 276 b 775 297 794 289 786 297 l 657 297 b 636 276 644 297 636 290 b 496 136 636 169 582 136 l 389 136 b 250 281 299 136 250 174 l 250 692 b 389 836 250 797 299 836 l 496 836 b 636 689 582 836 636 803 b 657 669 636 676 644 669 l 775 669 b 794 689 786 669 794 678 l 794 696 b 508 979 794 876 713 979 l 378 979 b 92 694 176 979 92 872 l 92 278 b 378 -7 92 100 176 -7 z "},"Ć":{"ha":872,"x_min":0,"x_max":0,"o":"m 460 1225 l 383 1065 b 397 1040 375 1049 382 1040 l 493 1040 b 526 1065 507 1040 517 1051 l 650 1225 b 636 1250 663 1240 651 1250 l 489 1250 b 460 1225 475 1250 468 1242 z m 378 -7 l 508 -7 b 794 269 713 -7 794 94 l 794 276 b 775 297 794 289 786 297 l 657 297 b 636 276 644 297 636 290 b 496 136 636 169 582 136 l 389 136 b 250 281 299 136 250 174 l 250 692 b 389 836 250 797 299 836 l 496 836 b 636 689 582 836 636 803 b 657 669 636 676 644 669 l 775 669 b 794 689 786 669 794 678 l 794 696 b 508 979 794 876 713 979 l 378 979 b 92 694 176 979 92 872 l 92 278 b 378 -7 92 100 176 -7 z "},"Č":{"ha":872,"x_min":0,"x_max":0,"o":"m 379 1040 l 500 1040 b 539 1060 515 1040 528 1047 l 682 1224 b 671 1250 693 1236 685 1250 l 564 1250 b 521 1224 544 1250 535 1242 l 447 1139 l 433 1139 l 360 1224 b 318 1250 346 1242 336 1250 l 210 1250 b 199 1224 196 1250 188 1236 l 342 1060 b 379 1040 353 1046 364 1040 z m 378 -7 l 508 -7 b 794 269 713 -7 794 94 l 794 276 b 775 297 794 289 786 297 l 657 297 b 636 276 644 297 636 290 b 496 136 636 169 582 136 l 389 136 b 250 281 299 136 250 174 l 250 692 b 389 836 250 797 299 836 l 496 836 b 636 689 582 836 636 803 b 657 669 636 676 644 669 l 775 669 b 794 689 786 669 794 678 l 794 696 b 508 979 794 876 713 979 l 378 979 b 92 694 176 979 92 872 l 92 278 b 378 -7 92 100 176 -7 z "},"Ç":{"ha":872,"x_min":0,"x_max":0,"o":"m 389 836 l 496 836 b 636 689 582 836 636 803 b 657 669 636 676 644 669 l 775 669 b 794 689 786 669 794 678 l 794 696 b 508 979 794 876 713 979 l 378 979 b 92 694 176 979 92 872 l 92 278 b 378 -7 92 100 176 -7 l 404 -7 b 351 -82 367 -42 351 -57 b 407 -131 351 -115 376 -128 b 549 -168 522 -142 549 -144 b 501 -193 549 -189 532 -193 l 474 -193 b 429 -168 446 -193 433 -183 b 414 -154 428 -160 422 -154 l 324 -154 b 310 -172 313 -154 310 -161 b 432 -285 310 -240 340 -285 l 535 -285 b 668 -167 625 -285 668 -242 b 539 -50 668 -81 632 -60 b 539 -6 508 -47 482 -42 b 794 269 721 4 794 103 l 794 276 b 775 297 794 289 786 297 l 657 297 b 636 276 644 297 636 290 b 496 136 636 169 582 136 l 389 136 b 250 281 299 136 250 174 l 250 692 b 389 836 250 797 299 836 z "},"Ĉ":{"ha":872,"x_min":0,"x_max":0,"o":"m 378 1250 b 340 1231 363 1250 351 1244 l 197 1067 b 208 1040 186 1054 194 1040 l 317 1040 b 358 1067 335 1040 344 1050 l 432 1151 l 446 1151 l 519 1067 b 563 1040 533 1050 543 1040 l 669 1040 b 681 1067 683 1040 692 1054 l 538 1231 b 499 1250 526 1243 514 1250 z m 378 -7 l 508 -7 b 794 269 713 -7 794 94 l 794 276 b 775 297 794 289 786 297 l 657 297 b 636 276 644 297 636 290 b 496 136 636 169 582 136 l 389 136 b 250 281 299 136 250 174 l 250 692 b 389 836 250 797 299 836 l 496 836 b 636 689 582 836 636 803 b 657 669 636 676 644 669 l 775 669 b 794 689 786 669 794 678 l 794 696 b 508 979 794 876 713 979 l 378 979 b 92 694 176 979 92 872 l 92 278 b 378 -7 92 100 176 -7 z "},"Ċ":{"ha":872,"x_min":0,"x_max":0,"o":"m 381 1090 l 500 1090 b 519 1110 514 1090 519 1096 l 519 1229 b 500 1250 519 1243 514 1250 l 381 1250 b 360 1229 367 1250 360 1243 l 360 1110 b 381 1090 360 1096 367 1090 z m 378 -7 l 508 -7 b 794 269 713 -7 794 94 l 794 276 b 775 297 794 289 786 297 l 657 297 b 636 276 644 297 636 290 b 496 136 636 169 582 136 l 389 136 b 250 281 299 136 250 174 l 250 692 b 389 836 250 797 299 836 l 496 836 b 636 689 582 836 636 803 b 657 669 636 676 644 669 l 775 669 b 794 689 786 669 794 678 l 794 696 b 508 979 794 876 713 979 l 378 979 b 92 694 176 979 92 872 l 92 278 b 378 -7 92 100 176 -7 z "},"D":{"ha":872,"x_min":0,"x_max":0,"o":"m 494 972 l 111 972 b 92 951 97 972 92 965 l 92 21 b 111 0 92 7 97 0 l 494 0 b 782 285 696 0 782 107 l 782 688 b 494 972 782 865 696 972 z m 624 288 b 483 143 624 181 574 143 l 250 143 l 250 829 l 483 829 b 624 685 574 829 624 790 z "},"Ð":{"ha":897,"x_min":0,"x_max":0,"o":"m 519 972 l 136 972 b 117 951 122 972 117 965 l 117 557 l 35 557 b 14 535 19 557 14 550 l 14 440 b 35 419 14 425 19 419 l 117 419 l 117 21 b 136 0 117 7 122 0 l 519 0 b 807 285 721 0 807 107 l 807 688 b 519 972 807 865 721 972 z m 649 288 b 508 143 649 181 599 143 l 275 143 l 275 419 l 403 419 b 425 440 418 419 425 425 l 425 535 b 403 557 425 550 418 557 l 275 557 l 275 829 l 508 829 b 649 685 599 829 649 790 z "},"Ď":{"ha":872,"x_min":0,"x_max":0,"o":"m 324 1060 b 361 1040 335 1046 346 1040 l 482 1040 b 521 1060 497 1040 510 1047 l 664 1224 b 653 1250 675 1236 667 1250 l 546 1250 b 503 1224 526 1250 517 1242 l 429 1139 l 415 1139 l 342 1224 b 300 1250 328 1242 318 1250 l 192 1250 b 181 1224 178 1250 169 1236 z m 494 972 l 111 972 b 92 951 97 972 92 965 l 92 21 b 111 0 92 7 97 0 l 494 0 b 782 285 696 0 782 107 l 782 688 b 494 972 782 865 696 972 z m 624 288 b 483 143 624 181 574 143 l 250 143 l 250 829 l 483 829 b 624 685 574 829 624 790 z "},"Đ":{"ha":897,"x_min":0,"x_max":0,"o":"m 519 972 l 136 972 b 117 951 122 972 117 965 l 117 557 l 35 557 b 14 535 19 557 14 550 l 14 440 b 35 419 14 425 19 419 l 117 419 l 117 21 b 136 0 117 7 122 0 l 519 0 b 807 285 721 0 807 107 l 807 688 b 519 972 807 865 721 972 z m 649 288 b 508 143 649 181 599 143 l 275 143 l 275 419 l 403 419 b 425 440 418 419 425 425 l 425 535 b 403 557 425 550 418 557 l 275 557 l 275 829 l 508 829 b 649 685 599 829 649 790 z "},"E":{"ha":735,"x_min":0,"x_max":0,"o":"m 111 0 l 665 0 b 686 21 679 0 686 7 l 686 122 b 665 143 686 136 679 143 l 250 143 l 250 418 l 625 418 b 644 439 639 418 644 425 l 644 536 b 625 557 644 550 639 557 l 250 557 l 250 829 l 658 829 b 679 850 672 829 679 836 l 679 951 b 658 972 679 965 672 972 l 111 972 b 92 951 97 972 92 965 l 92 21 b 111 0 92 7 97 0 z "},"É":{"ha":735,"x_min":0,"x_max":0,"o":"m 404 1225 l 328 1065 b 342 1040 319 1049 326 1040 l 438 1040 b 471 1065 451 1040 461 1051 l 594 1225 b 581 1250 607 1240 596 1250 l 433 1250 b 404 1225 419 1250 413 1242 z m 111 0 l 665 0 b 686 21 679 0 686 7 l 686 122 b 665 143 686 136 679 143 l 250 143 l 250 418 l 625 418 b 644 439 639 418 644 425 l 644 536 b 625 557 644 550 639 557 l 250 557 l 250 829 l 658 829 b 679 850 672 829 679 836 l 679 951 b 658 972 679 965 672 972 l 111 972 b 92 951 97 972 92 965 l 92 21 b 111 0 92 7 97 0 z "},"Ě":{"ha":735,"x_min":0,"x_max":0,"o":"m 324 1040 l 444 1040 b 483 1060 460 1040 472 1047 l 626 1224 b 615 1250 638 1236 629 1250 l 508 1250 b 465 1224 489 1250 479 1242 l 392 1139 l 378 1139 l 304 1224 b 263 1250 290 1242 281 1250 l 154 1250 b 143 1224 140 1250 132 1236 l 286 1060 b 324 1040 297 1046 308 1040 z m 111 0 l 665 0 b 686 21 679 0 686 7 l 686 122 b 665 143 686 136 679 143 l 250 143 l 250 418 l 625 418 b 644 439 639 418 644 425 l 644 536 b 625 557 644 550 639 557 l 250 557 l 250 829 l 658 829 b 679 850 672 829 679 836 l 679 951 b 658 972 679 965 672 972 l 111 972 b 92 951 97 972 92 965 l 92 21 b 111 0 92 7 97 0 z "},"Ȩ":{"ha":735,"x_min":0,"x_max":0,"o":"m 665 143 l 250 143 l 250 418 l 625 418 b 644 439 639 418 644 425 l 644 536 b 625 557 644 550 639 557 l 250 557 l 250 829 l 658 829 b 679 850 672 829 679 836 l 679 951 b 658 972 679 965 672 972 l 111 972 b 92 951 97 972 92 965 l 92 21 b 111 0 92 7 97 0 l 339 0 b 279 -82 297 -40 279 -56 b 335 -131 279 -115 304 -128 b 476 -168 450 -142 476 -144 b 429 -193 476 -189 460 -193 l 401 -193 b 357 -168 374 -193 361 -183 b 342 -154 356 -160 350 -154 l 251 -154 b 238 -172 240 -154 238 -161 b 360 -285 238 -240 268 -285 l 463 -285 b 596 -167 553 -285 596 -242 b 467 -50 596 -81 560 -60 b 476 0 435 -47 407 -42 l 665 0 b 686 21 679 0 686 7 l 686 122 b 665 143 686 136 679 143 z "},"Ê":{"ha":735,"x_min":0,"x_max":0,"o":"m 322 1250 b 285 1231 307 1250 296 1244 l 142 1067 b 153 1040 131 1054 139 1040 l 261 1040 b 303 1067 279 1040 289 1050 l 376 1151 l 390 1151 l 464 1067 b 507 1040 478 1050 488 1040 l 614 1040 b 625 1067 628 1040 636 1054 l 482 1231 b 443 1250 471 1243 458 1250 z m 111 0 l 665 0 b 686 21 679 0 686 7 l 686 122 b 665 143 686 136 679 143 l 250 143 l 250 418 l 625 418 b 644 439 639 418 644 425 l 644 536 b 625 557 644 550 639 557 l 250 557 l 250 829 l 658 829 b 679 850 672 829 679 836 l 679 951 b 658 972 679 965 672 972 l 111 972 b 92 951 97 972 92 965 l 92 21 b 111 0 92 7 97 0 z "},"Ë":{"ha":735,"x_min":0,"x_max":0,"o":"m 126 1090 l 246 1090 b 265 1110 260 1090 265 1096 l 265 1229 b 246 1250 265 1243 260 1250 l 126 1250 b 106 1229 113 1250 106 1243 l 106 1110 b 126 1090 106 1096 113 1090 z m 525 1090 l 644 1090 b 665 1110 658 1090 665 1096 l 665 1229 b 644 1250 665 1243 658 1250 l 525 1250 b 506 1229 511 1250 506 1243 l 506 1110 b 525 1090 506 1096 511 1090 z m 111 0 l 665 0 b 686 21 679 0 686 7 l 686 122 b 665 143 686 136 679 143 l 250 143 l 250 418 l 625 418 b 644 439 639 418 644 425 l 644 536 b 625 557 644 550 639 557 l 250 557 l 250 829 l 658 829 b 679 850 672 829 679 836 l 679 951 b 658 972 679 965 672 972 l 111 972 b 92 951 97 972 92 965 l 92 21 b 111 0 92 7 97 0 z "},"Ė":{"ha":735,"x_min":0,"x_max":0,"o":"m 325 1090 l 444 1090 b 464 1110 458 1090 464 1096 l 464 1229 b 444 1250 464 1243 458 1250 l 325 1250 b 304 1229 311 1250 304 1243 l 304 1110 b 325 1090 304 1096 311 1090 z m 111 0 l 665 0 b 686 21 679 0 686 7 l 686 122 b 665 143 686 136 679 143 l 250 143 l 250 418 l 625 418 b 644 439 639 418 644 425 l 644 536 b 625 557 644 550 639 557 l 250 557 l 250 829 l 658 829 b 679 850 672 829 679 836 l 679 951 b 658 972 679 965 672 972 l 111 972 b 92 951 97 972 92 965 l 92 21 b 111 0 92 7 97 0 z "},"È":{"ha":735,"x_min":0,"x_max":0,"o":"m 374 1225 b 344 1250 364 1242 358 1250 l 196 1250 b 182 1225 181 1250 169 1240 l 306 1065 b 339 1040 315 1051 325 1040 l 435 1040 b 449 1065 450 1040 457 1049 z m 111 0 l 665 0 b 686 21 679 0 686 7 l 686 122 b 665 143 686 136 679 143 l 250 143 l 250 418 l 625 418 b 644 439 639 418 644 425 l 644 536 b 625 557 644 550 639 557 l 250 557 l 250 829 l 658 829 b 679 850 672 829 679 836 l 679 951 b 658 972 679 965 672 972 l 111 972 b 92 951 97 972 92 965 l 92 21 b 111 0 92 7 97 0 z "},"Ē":{"ha":735,"x_min":0,"x_max":0,"o":"m 160 1110 l 610 1110 b 631 1131 622 1110 631 1117 l 631 1229 b 610 1250 631 1243 622 1250 l 160 1250 b 139 1229 146 1250 139 1243 l 139 1131 b 160 1110 139 1117 146 1110 z m 111 0 l 665 0 b 686 21 679 0 686 7 l 686 122 b 665 143 686 136 679 143 l 250 143 l 250 418 l 625 418 b 644 439 639 418 644 425 l 644 536 b 625 557 644 550 639 557 l 250 557 l 250 829 l 658 829 b 679 850 672 829 679 836 l 679 951 b 658 972 679 965 672 972 l 111 972 b 92 951 97 972 92 965 l 92 21 b 111 0 92 7 97 0 z "},"Ę":{"ha":735,"x_min":0,"x_max":0,"o":"m 686 122 b 665 143 686 136 679 143 l 250 143 l 250 418 l 625 418 b 644 439 639 418 644 425 l 644 536 b 625 557 644 550 639 557 l 250 557 l 250 829 l 658 829 b 679 850 672 829 679 836 l 679 951 b 658 972 679 965 672 972 l 111 972 b 92 951 97 972 92 965 l 92 21 b 111 0 92 7 97 0 l 531 0 l 531 -10 b 483 -46 531 -40 517 -43 l 431 -51 b 328 -165 351 -60 328 -75 b 467 -286 328 -264 358 -286 l 651 -286 b 665 -272 661 -286 665 -281 l 665 -200 b 651 -183 665 -190 660 -183 l 494 -183 b 467 -162 472 -183 467 -178 b 488 -140 467 -146 471 -143 l 593 -128 b 685 -46 656 -119 685 -112 l 685 11 b 686 21 686 14 686 17 z "},"F":{"ha":728,"x_min":0,"x_max":0,"o":"m 658 972 l 111 972 b 92 951 97 972 92 965 l 92 21 b 111 0 92 7 97 0 l 229 0 b 250 21 243 0 250 7 l 250 418 l 626 418 b 647 439 640 418 647 425 l 647 536 b 626 557 647 550 640 557 l 250 557 l 250 829 l 658 829 b 679 850 672 829 679 836 l 679 951 b 658 972 679 965 672 972 z "},"G":{"ha":886,"x_min":0,"x_max":0,"o":"m 378 -7 l 508 -7 b 794 278 708 -7 794 100 l 794 529 b 768 557 794 547 785 557 l 451 557 b 431 536 438 557 431 550 l 431 439 b 451 418 431 425 438 418 l 636 418 l 636 281 b 496 136 636 174 588 136 l 389 136 b 250 281 299 136 250 174 l 250 692 b 389 836 250 797 299 836 l 496 836 b 636 689 582 836 636 803 b 657 669 636 676 644 669 l 775 669 b 794 689 786 669 794 678 l 794 696 b 508 979 794 876 713 979 l 378 979 b 92 694 176 979 92 872 l 92 278 b 378 -7 92 100 176 -7 z "},"Ğ":{"ha":886,"x_min":0,"x_max":0,"o":"m 417 1036 l 496 1036 b 682 1229 624 1036 682 1100 b 661 1250 682 1243 675 1250 l 576 1250 b 556 1229 563 1250 557 1243 b 475 1144 551 1183 535 1144 l 438 1144 b 357 1229 378 1144 361 1183 b 338 1250 357 1243 351 1250 l 251 1250 b 231 1229 238 1250 231 1243 b 417 1036 231 1100 290 1036 z m 378 -7 l 508 -7 b 794 278 708 -7 794 100 l 794 529 b 768 557 794 547 785 557 l 451 557 b 431 536 438 557 431 550 l 431 439 b 451 418 431 425 438 418 l 636 418 l 636 281 b 496 136 636 174 588 136 l 389 136 b 250 281 299 136 250 174 l 250 692 b 389 836 250 797 299 836 l 496 836 b 636 689 582 836 636 803 b 657 669 636 676 644 669 l 775 669 b 794 689 786 669 794 678 l 794 696 b 508 979 794 876 713 979 l 378 979 b 92 694 176 979 92 872 l 92 278 b 378 -7 92 100 176 -7 z "},"Ǧ":{"ha":886,"x_min":0,"x_max":0,"o":"m 396 1040 l 517 1040 b 556 1060 532 1040 544 1047 l 699 1224 b 688 1250 710 1236 701 1250 l 581 1250 b 538 1224 561 1250 551 1242 l 464 1139 l 450 1139 l 376 1224 b 335 1250 363 1242 353 1250 l 226 1250 b 215 1224 213 1250 204 1236 l 358 1060 b 396 1040 369 1046 381 1040 z m 378 -7 l 508 -7 b 794 278 708 -7 794 100 l 794 529 b 768 557 794 547 785 557 l 451 557 b 431 536 438 557 431 550 l 431 439 b 451 418 431 425 438 418 l 636 418 l 636 281 b 496 136 636 174 588 136 l 389 136 b 250 281 299 136 250 174 l 250 692 b 389 836 250 797 299 836 l 496 836 b 636 689 582 836 636 803 b 657 669 636 676 644 669 l 775 669 b 794 689 786 669 794 678 l 794 696 b 508 979 794 876 713 979 l 378 979 b 92 694 176 979 92 872 l 92 278 b 378 -7 92 100 176 -7 z "},"Ĝ":{"ha":886,"x_min":0,"x_max":0,"o":"m 394 1250 b 357 1231 379 1250 368 1244 l 214 1067 b 225 1040 203 1054 211 1040 l 333 1040 b 375 1067 351 1040 361 1050 l 449 1151 l 463 1151 l 536 1067 b 579 1040 550 1050 560 1040 l 686 1040 b 697 1067 700 1040 708 1054 l 554 1231 b 515 1250 543 1243 531 1250 z m 378 -7 l 508 -7 b 794 278 708 -7 794 100 l 794 529 b 768 557 794 547 785 557 l 451 557 b 431 536 438 557 431 550 l 431 439 b 451 418 431 425 438 418 l 636 418 l 636 281 b 496 136 636 174 588 136 l 389 136 b 250 281 299 136 250 174 l 250 692 b 389 836 250 797 299 836 l 496 836 b 636 689 582 836 636 803 b 657 669 636 676 644 669 l 775 669 b 794 689 786 669 794 678 l 794 696 b 508 979 794 876 713 979 l 378 979 b 92 694 176 979 92 872 l 92 278 b 378 -7 92 100 176 -7 z "},"Ģ":{"ha":886,"x_min":0,"x_max":0,"o":"m 378 -7 l 508 -7 b 794 278 708 -7 794 100 l 794 529 b 768 557 794 547 785 557 l 451 557 b 431 536 438 557 431 550 l 431 439 b 451 418 431 425 438 418 l 636 418 l 636 281 b 496 136 636 174 588 136 l 389 136 b 250 281 299 136 250 174 l 250 692 b 389 836 250 797 299 836 l 496 836 b 636 689 582 836 636 803 b 657 669 636 676 644 669 l 775 669 b 794 689 786 669 794 678 l 794 696 b 508 979 794 876 713 979 l 378 979 b 92 694 176 979 92 872 l 92 278 b 378 -7 92 100 176 -7 z m 503 -83 l 407 -83 b 388 -104 393 -83 388 -90 l 388 -335 l 331 -335 b 310 -356 317 -335 310 -342 l 310 -443 b 331 -464 310 -457 317 -464 l 476 -464 b 524 -417 507 -464 524 -449 l 524 -104 b 503 -83 524 -90 517 -83 z "},"Ġ":{"ha":886,"x_min":0,"x_max":0,"o":"m 397 1090 l 517 1090 b 536 1110 531 1090 536 1096 l 536 1229 b 517 1250 536 1243 531 1250 l 397 1250 b 376 1229 383 1250 376 1243 l 376 1110 b 397 1090 376 1096 383 1090 z m 378 -7 l 508 -7 b 794 278 708 -7 794 100 l 794 529 b 768 557 794 547 785 557 l 451 557 b 431 536 438 557 431 550 l 431 439 b 451 418 431 425 438 418 l 636 418 l 636 281 b 496 136 636 174 588 136 l 389 136 b 250 281 299 136 250 174 l 250 692 b 389 836 250 797 299 836 l 496 836 b 636 689 582 836 636 803 b 657 669 636 676 644 669 l 775 669 b 794 689 786 669 794 678 l 794 696 b 508 979 794 876 713 979 l 378 979 b 92 694 176 979 92 872 l 92 278 b 378 -7 92 100 176 -7 z "},"H":{"ha":872,"x_min":0,"x_max":0,"o":"m 761 972 l 642 972 b 622 951 628 972 622 965 l 622 557 l 250 557 l 250 951 b 231 972 250 965 244 972 l 111 972 b 92 951 97 972 92 965 l 92 21 b 111 0 92 7 97 0 l 231 0 b 250 21 244 0 250 7 l 250 418 l 622 418 l 622 21 b 642 0 622 7 628 0 l 761 0 b 782 21 775 0 782 7 l 782 951 b 761 972 782 965 775 972 z "},"Ħ":{"ha":872,"x_min":0,"x_max":0,"o":"m 761 972 l 642 972 b 622 951 628 972 622 965 l 622 792 l 250 792 l 250 951 b 231 972 250 965 244 972 l 111 972 b 92 951 97 972 92 965 l 92 21 b 111 0 92 7 97 0 l 231 0 b 250 21 244 0 250 7 l 250 418 l 622 418 l 622 21 b 642 0 622 7 628 0 l 761 0 b 782 21 775 0 782 7 l 782 951 b 761 972 782 965 775 972 z m 250 557 l 250 653 l 622 653 l 622 557 z "},"Ĥ":{"ha":872,"x_min":0,"x_max":0,"o":"m 204 1040 l 313 1040 b 354 1067 331 1040 340 1050 l 428 1151 l 442 1151 l 515 1067 b 558 1040 529 1050 539 1040 l 665 1040 b 676 1067 679 1040 688 1054 l 533 1231 b 494 1250 522 1243 510 1250 l 374 1250 b 336 1231 358 1250 347 1244 l 193 1067 b 204 1040 182 1054 190 1040 z m 761 972 l 642 972 b 622 951 628 972 622 965 l 622 557 l 250 557 l 250 951 b 231 972 250 965 244 972 l 111 972 b 92 951 97 972 92 965 l 92 21 b 111 0 92 7 97 0 l 231 0 b 250 21 244 0 250 7 l 250 418 l 622 418 l 622 21 b 642 0 622 7 628 0 l 761 0 b 782 21 775 0 782 7 l 782 951 b 761 972 782 965 775 972 z "},"I":{"ha":340,"x_min":0,"x_max":0,"o":"m 111 0 l 229 0 b 250 21 243 0 250 7 l 250 951 b 229 972 250 965 243 972 l 111 972 b 92 951 97 972 92 965 l 92 21 b 111 0 92 7 97 0 z "},"Ĳ":{"ha":865,"x_min":0,"x_max":0,"o":"m 111 0 l 229 0 b 250 21 243 0 250 7 l 250 951 b 229 972 250 965 243 972 l 111 972 b 92 951 97 972 92 965 l 92 21 b 111 0 92 7 97 0 z m 417 -7 l 488 -7 b 775 278 689 -7 775 100 l 775 951 b 754 972 775 965 768 972 l 636 972 b 617 951 622 972 617 965 l 617 281 b 476 136 617 174 567 136 l 417 136 b 397 115 403 136 397 129 l 397 14 b 417 -7 397 0 403 -7 z "},"Í":{"ha":340,"x_min":0,"x_max":0,"o":"m 189 1225 l 113 1065 b 126 1040 104 1049 111 1040 l 222 1040 b 256 1065 236 1040 246 1051 l 379 1225 b 365 1250 392 1240 381 1250 l 218 1250 b 189 1225 204 1250 197 1242 z m 111 0 l 229 0 b 250 21 243 0 250 7 l 250 951 b 229 972 250 965 243 972 l 111 972 b 92 951 97 972 92 965 l 92 21 b 111 0 92 7 97 0 z "},"Ǐ":{"ha":340,"x_min":0,"x_max":0,"o":"m 108 1040 l 229 1040 b 268 1060 244 1040 257 1047 l 411 1224 b 400 1250 422 1236 414 1250 l 293 1250 b 250 1224 274 1250 264 1242 l 176 1139 l 163 1139 l 89 1224 b 47 1250 75 1242 65 1250 l -61 1250 b -72 1224 -75 1250 -83 1236 l 71 1060 b 108 1040 82 1046 93 1040 z m 111 0 l 229 0 b 250 21 243 0 250 7 l 250 951 b 229 972 250 965 243 972 l 111 972 b 92 951 97 972 92 965 l 92 21 b 111 0 92 7 97 0 z "},"Î":{"ha":340,"x_min":0,"x_max":0,"o":"m 108 1250 b 71 1231 93 1250 82 1244 l -72 1067 b -61 1040 -83 1054 -75 1040 l 47 1040 b 89 1067 65 1040 75 1050 l 163 1151 l 176 1151 l 250 1067 b 293 1040 264 1050 274 1040 l 400 1040 b 411 1067 414 1040 422 1054 l 268 1231 b 229 1250 257 1243 244 1250 z m 111 0 l 229 0 b 250 21 243 0 250 7 l 250 951 b 229 972 250 965 243 972 l 111 972 b 92 951 97 972 92 965 l 92 21 b 111 0 92 7 97 0 z "},"Ï":{"ha":340,"x_min":0,"x_max":0,"o":"m -89 1090 l 31 1090 b 50 1110 44 1090 50 1096 l 50 1229 b 31 1250 50 1243 44 1250 l -89 1250 b -110 1229 -103 1250 -110 1243 l -110 1110 b -89 1090 -110 1096 -103 1090 z m 310 1090 l 429 1090 b 450 1110 443 1090 450 1096 l 450 1229 b 429 1250 450 1243 443 1250 l 310 1250 b 290 1229 296 1250 290 1243 l 290 1110 b 310 1090 290 1096 296 1090 z m 111 0 l 229 0 b 250 21 243 0 250 7 l 250 951 b 229 972 250 965 243 972 l 111 972 b 92 951 97 972 92 965 l 92 21 b 111 0 92 7 97 0 z "},"İ":{"ha":340,"x_min":0,"x_max":0,"o":"m 110 1090 l 229 1090 b 249 1110 243 1090 249 1096 l 249 1229 b 229 1250 249 1243 243 1250 l 110 1250 b 89 1229 96 1250 89 1243 l 89 1110 b 110 1090 89 1096 96 1090 z m 111 0 l 229 0 b 250 21 243 0 250 7 l 250 951 b 229 972 250 965 243 972 l 111 972 b 92 951 97 972 92 965 l 92 21 b 111 0 92 7 97 0 z "},"Ì":{"ha":340,"x_min":0,"x_max":0,"o":"m 158 1225 b 129 1250 149 1242 143 1250 l -19 1250 b -33 1225 -35 1250 -46 1240 l 90 1065 b 124 1040 100 1051 110 1040 l 219 1040 b 233 1065 235 1040 242 1049 z m 111 0 l 229 0 b 250 21 243 0 250 7 l 250 951 b 229 972 250 965 243 972 l 111 972 b 92 951 97 972 92 965 l 92 21 b 111 0 92 7 97 0 z "},"Ī":{"ha":340,"x_min":0,"x_max":0,"o":"m -56 1110 l 394 1110 b 415 1131 407 1110 415 1117 l 415 1229 b 394 1250 415 1243 407 1250 l -56 1250 b -76 1229 -69 1250 -76 1243 l -76 1131 b -56 1110 -76 1117 -69 1110 z m 111 0 l 229 0 b 250 21 243 0 250 7 l 250 951 b 229 972 250 965 243 972 l 111 972 b 92 951 97 972 92 965 l 92 21 b 111 0 92 7 97 0 z "},"Į":{"ha":329,"x_min":0,"x_max":0,"o":"m 233 972 l 115 972 b 94 951 101 972 94 965 l 94 -10 b 49 -46 94 -40 81 -42 l -3 -51 b -106 -165 -82 -60 -106 -75 b 33 -286 -106 -264 -75 -286 l 218 -286 b 232 -272 228 -286 232 -281 l 232 -200 b 218 -183 232 -190 226 -183 l 61 -183 b 33 -162 39 -183 33 -178 b 54 -140 33 -146 38 -143 l 160 -128 b 253 -46 224 -119 253 -112 l 253 951 b 233 972 253 965 247 972 z "},"J":{"ha":525,"x_min":0,"x_max":0,"o":"m 76 -7 l 147 -7 b 435 278 349 -7 435 100 l 435 951 b 414 972 435 965 428 972 l 296 972 b 276 951 282 972 276 965 l 276 281 b 136 136 276 174 226 136 l 76 136 b 57 115 63 136 57 129 l 57 14 b 76 -7 57 0 63 -7 z "},"Ĵ":{"ha":525,"x_min":0,"x_max":0,"o":"m 293 1250 b 256 1231 278 1250 267 1244 l 113 1067 b 124 1040 101 1054 110 1040 l 232 1040 b 274 1067 250 1040 260 1050 l 347 1151 l 361 1151 l 435 1067 b 478 1040 449 1050 458 1040 l 585 1040 b 596 1067 599 1040 607 1054 l 453 1231 b 414 1250 442 1243 429 1250 z m 76 -7 l 147 -7 b 435 278 349 -7 435 100 l 435 951 b 414 972 435 965 428 972 l 296 972 b 276 951 282 972 276 965 l 276 281 b 136 136 276 174 226 136 l 76 136 b 57 115 63 136 57 129 l 57 14 b 76 -7 57 0 63 -7 z "},"K":{"ha":847,"x_min":0,"x_max":0,"o":"m 792 32 l 440 535 l 768 938 b 761 972 783 956 778 972 l 628 972 b 590 950 611 972 601 964 l 250 524 l 250 951 b 229 972 250 965 243 972 l 111 972 b 92 951 97 972 92 965 l 92 21 b 111 0 92 7 97 0 l 229 0 b 250 21 243 0 250 7 l 250 300 l 339 410 l 613 19 b 650 0 624 3 636 0 l 783 0 b 792 32 801 0 799 21 z "},"Ķ":{"ha":847,"x_min":0,"x_max":0,"o":"m 792 32 l 440 535 l 768 938 b 761 972 783 956 778 972 l 628 972 b 590 950 611 972 601 964 l 250 524 l 250 951 b 229 972 250 965 243 972 l 111 972 b 92 951 97 972 92 965 l 92 21 b 111 0 92 7 97 0 l 229 0 b 250 21 243 0 250 7 l 250 300 l 339 410 l 613 19 b 650 0 624 3 636 0 l 783 0 b 792 32 801 0 799 21 z m 461 -83 l 365 -83 b 346 -104 351 -83 346 -90 l 346 -335 l 289 -335 b 268 -356 275 -335 268 -342 l 268 -443 b 289 -464 268 -457 275 -464 l 435 -464 b 482 -417 465 -464 482 -449 l 482 -104 b 461 -83 482 -90 475 -83 z "},"L":{"ha":707,"x_min":0,"x_max":0,"o":"m 111 0 l 631 0 b 651 21 644 0 651 7 l 651 122 b 631 143 651 136 644 143 l 250 143 l 250 951 b 229 972 250 965 243 972 l 111 972 b 92 951 97 972 92 965 l 92 21 b 111 0 92 7 97 0 z "},"Ĺ":{"ha":707,"x_min":0,"x_max":0,"o":"m 189 1225 l 113 1065 b 126 1040 104 1049 111 1040 l 222 1040 b 256 1065 236 1040 246 1051 l 379 1225 b 365 1250 392 1240 381 1250 l 218 1250 b 189 1225 204 1250 197 1242 z m 111 0 l 631 0 b 651 21 644 0 651 7 l 651 122 b 631 143 651 136 644 143 l 250 143 l 250 951 b 229 972 250 965 243 972 l 111 972 b 92 951 97 972 92 965 l 92 21 b 111 0 92 7 97 0 z "},"Ľ":{"ha":707,"x_min":0,"x_max":0,"o":"m 111 0 l 631 0 b 651 21 644 0 651 7 l 651 122 b 631 143 651 136 644 143 l 250 143 l 250 951 b 229 972 250 965 243 972 l 111 972 b 92 951 97 972 92 965 l 92 21 b 111 0 92 7 97 0 z m 550 972 l 454 972 b 435 951 440 972 435 965 l 435 721 l 378 721 b 357 700 364 721 357 714 l 357 613 b 378 592 357 599 364 592 l 524 592 b 571 639 554 592 571 607 l 571 951 b 550 972 571 965 564 972 z "},"Ļ":{"ha":707,"x_min":0,"x_max":0,"o":"m 111 0 l 631 0 b 651 21 644 0 651 7 l 651 122 b 631 143 651 136 644 143 l 250 143 l 250 951 b 229 972 250 965 243 972 l 111 972 b 92 951 97 972 92 965 l 92 21 b 111 0 92 7 97 0 z m 418 -83 l 322 -83 b 303 -104 308 -83 303 -90 l 303 -335 l 246 -335 b 225 -356 232 -335 225 -342 l 225 -443 b 246 -464 225 -457 232 -464 l 392 -464 b 439 -417 422 -464 439 -449 l 439 -104 b 418 -83 439 -90 432 -83 z "},"Ŀ":{"ha":707,"x_min":0,"x_max":0,"o":"m 111 0 l 631 0 b 651 21 644 0 651 7 l 651 122 b 631 143 651 136 644 143 l 250 143 l 250 951 b 229 972 250 965 243 972 l 111 972 b 92 951 97 972 92 965 l 92 21 b 111 0 92 7 97 0 z m 436 435 l 556 435 b 575 456 569 435 575 442 l 575 575 b 556 594 575 589 569 594 l 436 594 b 415 575 422 594 415 589 l 415 456 b 436 435 415 442 422 435 z "},"Ł":{"ha":763,"x_min":0,"x_max":0,"o":"m 685 143 l 304 143 l 304 357 l 543 628 b 531 653 556 642 547 653 l 399 653 b 367 629 388 653 382 647 l 304 558 l 304 951 b 283 972 304 965 297 972 l 167 972 b 146 951 153 972 146 965 l 146 381 l 13 231 b 26 206 0 217 10 206 l 146 206 l 146 21 b 167 0 146 7 153 0 l 685 0 b 706 21 699 0 706 7 l 706 122 b 685 143 706 136 699 143 z "},"M":{"ha":1072,"x_min":0,"x_max":0,"o":"m 111 0 l 229 0 b 250 21 243 0 250 7 l 250 769 l 261 769 l 432 21 b 458 0 435 7 446 0 l 614 0 b 640 21 626 0 638 7 l 811 769 l 824 769 l 824 21 b 844 0 824 7 831 0 l 961 0 b 982 21 975 0 982 7 l 982 951 b 961 972 982 965 975 972 l 744 972 b 717 951 731 972 719 965 l 542 189 l 532 189 l 357 951 b 329 972 353 965 343 972 l 111 972 b 92 951 97 972 92 965 l 92 21 b 111 0 92 7 97 0 z "},"Ḿ":{"ha":1072,"x_min":0,"x_max":0,"o":"m 557 1224 l 481 1064 b 494 1039 472 1047 479 1039 l 590 1039 b 624 1064 604 1039 614 1050 l 747 1224 b 733 1249 760 1239 749 1249 l 586 1249 b 557 1224 572 1249 565 1240 z m 111 0 l 229 0 b 250 21 243 0 250 7 l 250 769 l 261 769 l 432 21 b 458 0 435 7 446 0 l 614 0 b 640 21 626 0 638 7 l 811 769 l 824 769 l 824 21 b 844 0 824 7 831 0 l 961 0 b 982 21 975 0 982 7 l 982 951 b 961 972 982 965 975 972 l 744 972 b 717 951 731 972 719 965 l 542 189 l 532 189 l 357 951 b 329 972 353 965 343 972 l 111 972 b 92 951 97 972 92 965 l 92 21 b 111 0 92 7 97 0 z "},"N":{"ha":896,"x_min":0,"x_max":0,"o":"m 111 0 l 229 0 b 250 21 243 0 250 7 l 250 769 l 261 769 l 556 15 b 581 0 560 4 569 0 l 785 0 b 806 21 799 0 806 7 l 806 951 b 785 972 806 965 799 972 l 667 972 b 647 951 653 972 647 965 l 647 203 l 635 203 l 340 957 b 315 972 336 968 326 972 l 111 972 b 92 951 97 972 92 965 l 92 21 b 111 0 92 7 97 0 z "},"Ń":{"ha":896,"x_min":0,"x_max":0,"o":"m 467 1225 l 390 1065 b 404 1040 382 1049 389 1040 l 500 1040 b 533 1065 514 1040 524 1051 l 657 1225 b 643 1250 669 1240 658 1250 l 496 1250 b 467 1225 482 1250 475 1242 z m 111 0 l 229 0 b 250 21 243 0 250 7 l 250 769 l 261 769 l 556 15 b 581 0 560 4 569 0 l 785 0 b 806 21 799 0 806 7 l 806 951 b 785 972 806 965 799 972 l 667 972 b 647 951 653 972 647 965 l 647 203 l 635 203 l 340 957 b 315 972 336 968 326 972 l 111 972 b 92 951 97 972 92 965 l 92 21 b 111 0 92 7 97 0 z "},"Ň":{"ha":896,"x_min":0,"x_max":0,"o":"m 386 1040 l 507 1040 b 546 1060 522 1040 535 1047 l 689 1224 b 678 1250 700 1236 692 1250 l 571 1250 b 528 1224 551 1250 542 1242 l 454 1139 l 440 1139 l 367 1224 b 325 1250 353 1242 343 1250 l 217 1250 b 206 1224 203 1250 194 1236 l 349 1060 b 386 1040 360 1046 371 1040 z m 111 0 l 229 0 b 250 21 243 0 250 7 l 250 769 l 261 769 l 556 15 b 581 0 560 4 569 0 l 785 0 b 806 21 799 0 806 7 l 806 951 b 785 972 806 965 799 972 l 667 972 b 647 951 653 972 647 965 l 647 203 l 635 203 l 340 957 b 315 972 336 968 326 972 l 111 972 b 92 951 97 972 92 965 l 92 21 b 111 0 92 7 97 0 z "},"Ņ":{"ha":896,"x_min":0,"x_max":0,"o":"m 111 0 l 229 0 b 250 21 243 0 250 7 l 250 769 l 261 769 l 556 15 b 581 0 560 4 569 0 l 785 0 b 806 21 799 0 806 7 l 806 951 b 785 972 806 965 799 972 l 667 972 b 647 951 653 972 647 965 l 647 203 l 635 203 l 340 957 b 315 972 336 968 326 972 l 111 972 b 92 951 97 972 92 965 l 92 21 b 111 0 92 7 97 0 z m 494 -83 l 399 -83 b 379 -104 385 -83 379 -90 l 379 -335 l 322 -335 b 301 -356 308 -335 301 -342 l 301 -443 b 322 -464 301 -457 308 -464 l 468 -464 b 515 -417 499 -464 515 -449 l 515 -104 b 494 -83 515 -90 508 -83 z "},"Ŋ":{"ha":896,"x_min":0,"x_max":0,"o":"m 785 972 l 667 972 b 647 951 653 972 647 965 l 647 203 l 635 203 l 340 957 b 315 972 336 968 326 972 l 111 972 b 92 951 97 972 92 965 l 92 21 b 111 0 92 7 97 0 l 229 0 b 250 21 243 0 250 7 l 250 769 l 261 769 l 556 15 b 581 0 560 4 569 0 l 647 0 b 507 -142 646 -104 596 -142 l 447 -142 b 428 -162 433 -142 428 -149 l 428 -264 b 447 -285 428 -278 433 -285 l 518 -285 b 806 0 719 -285 806 -178 l 806 951 b 785 972 806 965 799 972 z "},"Ñ":{"ha":896,"x_min":0,"x_max":0,"o":"m 543 1064 b 676 1110 588 1064 629 1075 b 689 1139 688 1118 694 1125 l 656 1219 b 631 1226 651 1228 643 1233 b 547 1199 597 1207 579 1199 b 356 1257 475 1199 451 1257 b 222 1213 311 1257 269 1247 b 210 1182 211 1204 204 1196 l 243 1101 b 268 1096 247 1093 256 1088 b 351 1122 300 1115 319 1122 b 543 1064 424 1122 447 1064 z m 111 0 l 229 0 b 250 21 243 0 250 7 l 250 769 l 261 769 l 556 15 b 581 0 560 4 569 0 l 785 0 b 806 21 799 0 806 7 l 806 951 b 785 972 806 965 799 972 l 667 972 b 647 951 653 972 647 965 l 647 203 l 635 203 l 340 957 b 315 972 336 968 326 972 l 111 972 b 92 951 97 972 92 965 l 92 21 b 111 0 92 7 97 0 z "},"O":{"ha":893,"x_min":0,"x_max":0,"o":"m 378 -7 l 515 -7 b 803 278 717 -7 803 100 l 803 694 b 515 979 803 872 717 979 l 378 979 b 92 694 176 979 92 872 l 92 278 b 378 -7 92 100 176 -7 z m 389 136 b 250 281 299 136 250 174 l 250 692 b 389 836 250 797 299 836 l 504 836 b 644 692 594 836 644 797 l 644 281 b 504 136 644 174 594 136 z "},"Ó":{"ha":893,"x_min":0,"x_max":0,"o":"m 467 1225 l 390 1065 b 404 1040 382 1049 389 1040 l 500 1040 b 533 1065 514 1040 524 1051 l 657 1225 b 643 1250 669 1240 658 1250 l 496 1250 b 467 1225 482 1250 475 1242 z m 378 -7 l 515 -7 b 803 278 717 -7 803 100 l 803 694 b 515 979 803 872 717 979 l 378 979 b 92 694 176 979 92 872 l 92 278 b 378 -7 92 100 176 -7 z m 389 136 b 250 281 299 136 250 174 l 250 692 b 389 836 250 797 299 836 l 504 836 b 644 692 594 836 644 797 l 644 281 b 504 136 644 174 594 136 z "},"Ǒ":{"ha":893,"x_min":0,"x_max":0,"o":"m 386 1040 l 507 1040 b 546 1060 522 1040 535 1047 l 689 1224 b 678 1250 700 1236 692 1250 l 571 1250 b 528 1224 551 1250 542 1242 l 454 1139 l 440 1139 l 367 1224 b 325 1250 353 1242 343 1250 l 217 1250 b 206 1224 203 1250 194 1236 l 349 1060 b 386 1040 360 1046 371 1040 z m 378 -7 l 515 -7 b 803 278 717 -7 803 100 l 803 694 b 515 979 803 872 717 979 l 378 979 b 92 694 176 979 92 872 l 92 278 b 378 -7 92 100 176 -7 z m 389 136 b 250 281 299 136 250 174 l 250 692 b 389 836 250 797 299 836 l 504 836 b 644 692 594 836 644 797 l 644 281 b 504 136 644 174 594 136 z "},"Ô":{"ha":893,"x_min":0,"x_max":0,"o":"m 385 1250 b 347 1231 369 1250 358 1244 l 204 1067 b 215 1040 193 1054 201 1040 l 324 1040 b 365 1067 342 1040 351 1050 l 439 1151 l 453 1151 l 526 1067 b 569 1040 540 1050 550 1040 l 676 1040 b 688 1067 690 1040 699 1054 l 544 1231 b 506 1250 533 1243 521 1250 z m 378 -7 l 515 -7 b 803 278 717 -7 803 100 l 803 694 b 515 979 803 872 717 979 l 378 979 b 92 694 176 979 92 872 l 92 278 b 378 -7 92 100 176 -7 z m 389 136 b 250 281 299 136 250 174 l 250 692 b 389 836 250 797 299 836 l 504 836 b 644 692 594 836 644 797 l 644 281 b 504 136 644 174 594 136 z "},"Ö":{"ha":893,"x_min":0,"x_max":0,"o":"m 189 1090 l 308 1090 b 328 1110 322 1090 328 1096 l 328 1229 b 308 1250 328 1243 322 1250 l 189 1250 b 168 1229 175 1250 168 1243 l 168 1110 b 189 1090 168 1096 175 1090 z m 588 1090 l 707 1090 b 728 1110 721 1090 728 1096 l 728 1229 b 707 1250 728 1243 721 1250 l 588 1250 b 568 1229 574 1250 568 1243 l 568 1110 b 588 1090 568 1096 574 1090 z m 378 -7 l 515 -7 b 803 278 717 -7 803 100 l 803 694 b 515 979 803 872 717 979 l 378 979 b 92 694 176 979 92 872 l 92 278 b 378 -7 92 100 176 -7 z m 389 136 b 250 281 299 136 250 174 l 250 692 b 389 836 250 797 299 836 l 504 836 b 644 692 594 836 644 797 l 644 281 b 504 136 644 174 594 136 z "},"Ò":{"ha":893,"x_min":0,"x_max":0,"o":"m 436 1225 b 407 1250 426 1242 421 1250 l 258 1250 b 244 1225 243 1250 232 1240 l 368 1065 b 401 1040 378 1051 388 1040 l 497 1040 b 511 1065 513 1040 519 1049 z m 378 -7 l 515 -7 b 803 278 717 -7 803 100 l 803 694 b 515 979 803 872 717 979 l 378 979 b 92 694 176 979 92 872 l 92 278 b 378 -7 92 100 176 -7 z m 389 136 b 250 281 299 136 250 174 l 250 692 b 389 836 250 797 299 836 l 504 836 b 644 692 594 836 644 797 l 644 281 b 504 136 644 174 594 136 z "},"Ő":{"ha":893,"x_min":0,"x_max":0,"o":"m 335 1225 l 258 1065 b 272 1040 250 1049 257 1040 l 368 1040 b 401 1065 382 1040 392 1051 l 525 1225 b 511 1250 538 1240 526 1250 l 364 1250 b 335 1225 350 1250 343 1242 z m 586 1225 l 510 1065 b 524 1040 501 1049 508 1040 l 621 1040 b 653 1065 635 1040 643 1051 l 778 1225 b 764 1250 790 1240 779 1250 l 615 1250 b 586 1225 601 1250 594 1242 z m 378 -7 l 515 -7 b 803 278 717 -7 803 100 l 803 694 b 515 979 803 872 717 979 l 378 979 b 92 694 176 979 92 872 l 92 278 b 378 -7 92 100 176 -7 z m 389 136 b 250 281 299 136 250 174 l 250 692 b 389 836 250 797 299 836 l 504 836 b 644 692 594 836 644 797 l 644 281 b 504 136 644 174 594 136 z "},"Ō":{"ha":893,"x_min":0,"x_max":0,"o":"m 222 1110 l 672 1110 b 693 1131 685 1110 693 1117 l 693 1229 b 672 1250 693 1243 685 1250 l 222 1250 b 201 1229 208 1250 201 1243 l 201 1131 b 222 1110 201 1117 208 1110 z m 378 -7 l 515 -7 b 803 278 717 -7 803 100 l 803 694 b 515 979 803 872 717 979 l 378 979 b 92 694 176 979 92 872 l 92 278 b 378 -7 92 100 176 -7 z m 389 136 b 250 281 299 136 250 174 l 250 692 b 389 836 250 797 299 836 l 504 836 b 644 692 594 836 644 797 l 644 281 b 504 136 644 174 594 136 z "},"Ø":{"ha":893,"x_min":0,"x_max":0,"o":"m 711 925 l 742 997 b 729 1019 747 1011 743 1019 l 613 1019 b 585 999 599 1019 590 1013 l 575 975 b 515 979 557 978 536 979 l 378 979 b 92 694 176 979 92 872 l 92 278 b 183 47 92 175 119 96 l 153 -25 b 167 -47 147 -39 153 -47 l 282 -47 b 310 -26 296 -47 304 -40 l 319 -4 b 378 -7 338 -6 357 -7 l 515 -7 b 803 278 717 -7 803 100 l 803 694 b 711 925 803 797 774 876 z m 250 281 l 250 692 b 389 836 250 797 299 836 l 504 836 l 517 836 l 257 221 b 250 281 253 238 250 258 z m 644 281 b 504 136 644 174 594 136 l 389 136 l 378 136 l 638 750 b 644 692 642 733 644 714 z "},"Õ":{"ha":893,"x_min":0,"x_max":0,"o":"m 542 1064 b 675 1110 586 1064 628 1075 b 688 1139 686 1118 693 1125 l 654 1219 b 629 1226 650 1228 642 1233 b 546 1199 596 1207 578 1199 b 354 1257 474 1199 450 1257 b 221 1213 310 1257 268 1247 b 208 1182 210 1204 203 1196 l 242 1101 b 267 1096 246 1093 254 1088 b 350 1122 299 1115 318 1122 b 542 1064 422 1122 446 1064 z m 378 -7 l 515 -7 b 803 278 717 -7 803 100 l 803 694 b 515 979 803 872 717 979 l 378 979 b 92 694 176 979 92 872 l 92 278 b 378 -7 92 100 176 -7 z m 389 136 b 250 281 299 136 250 174 l 250 692 b 389 836 250 797 299 836 l 504 836 b 644 692 594 836 644 797 l 644 281 b 504 136 644 174 594 136 z "},"Œ":{"ha":1288,"x_min":0,"x_max":0,"o":"m 1218 143 l 803 143 l 803 418 l 1178 418 b 1197 439 1192 418 1197 425 l 1197 536 b 1178 557 1197 550 1192 557 l 803 557 l 803 829 l 1211 829 b 1232 850 1225 829 1232 836 l 1232 951 b 1211 972 1232 965 1225 972 l 664 972 b 646 960 653 972 647 968 b 515 979 608 972 565 979 l 378 979 b 92 694 176 979 92 872 l 92 278 b 378 -7 92 100 176 -7 l 515 -7 b 646 13 565 -7 608 0 b 664 0 647 4 653 0 l 1218 0 b 1239 21 1232 0 1239 7 l 1239 122 b 1218 143 1239 136 1232 143 z m 504 136 l 389 136 b 250 281 299 136 250 174 l 250 692 b 389 836 250 797 299 836 l 504 836 b 644 692 594 836 644 797 l 644 281 b 504 136 644 174 594 136 z "},"P":{"ha":843,"x_min":0,"x_max":0,"o":"m 481 972 l 111 972 b 92 951 97 972 92 965 l 92 21 b 111 0 92 7 97 0 l 229 0 b 250 21 243 0 250 7 l 250 260 l 481 260 b 767 543 681 260 767 365 l 767 689 b 481 972 767 867 681 972 z m 608 547 b 468 403 608 439 560 403 l 250 403 l 250 829 l 468 829 b 608 685 560 829 608 792 z "},"Þ":{"ha":857,"x_min":0,"x_max":0,"o":"m 481 843 l 250 843 l 250 951 b 229 972 250 965 243 972 l 111 972 b 92 951 97 972 92 965 l 92 21 b 111 0 92 7 97 0 l 229 0 b 250 21 243 0 250 7 l 250 129 l 481 129 b 767 414 681 129 767 236 l 767 560 b 481 843 767 736 681 843 z m 608 417 b 468 272 608 310 560 272 l 250 272 l 250 700 l 468 700 b 608 556 560 700 608 663 z "},"Q":{"ha":893,"x_min":0,"x_max":0,"o":"m 515 979 l 378 979 b 92 694 176 979 92 872 l 92 278 b 368 -7 92 103 174 -3 l 368 -110 b 389 -131 368 -124 375 -131 l 506 -131 b 526 -110 519 -131 526 -124 l 526 -7 b 803 278 719 -3 803 103 l 803 694 b 515 979 803 872 717 979 z m 644 281 b 504 136 644 174 594 136 l 389 136 b 250 281 299 136 250 174 l 250 692 b 389 836 250 797 299 836 l 504 836 b 644 692 594 836 644 797 z "},"R":{"ha":843,"x_min":0,"x_max":0,"o":"m 767 543 l 767 689 b 481 972 767 867 681 972 l 111 972 b 92 951 97 972 92 965 l 92 21 b 111 0 92 7 97 0 l 229 0 b 250 21 243 0 250 7 l 250 260 l 481 260 l 497 260 l 601 21 b 633 0 607 7 618 0 l 740 0 b 763 32 761 0 771 13 l 647 296 b 767 543 729 340 767 426 z m 250 829 l 468 829 b 608 685 560 829 608 792 l 608 547 b 468 403 608 439 560 403 l 250 403 z "},"Ŕ":{"ha":843,"x_min":0,"x_max":0,"o":"m 360 1040 l 456 1040 b 489 1065 469 1040 479 1051 l 613 1225 b 599 1250 625 1240 614 1250 l 451 1250 b 422 1225 438 1250 431 1242 l 346 1065 b 360 1040 338 1049 344 1040 z m 767 543 l 767 689 b 481 972 767 867 681 972 l 111 972 b 92 951 97 972 92 965 l 92 21 b 111 0 92 7 97 0 l 229 0 b 250 21 243 0 250 7 l 250 260 l 481 260 l 497 260 l 601 21 b 633 0 607 7 618 0 l 740 0 b 763 32 761 0 771 13 l 647 296 b 767 543 729 340 767 426 z m 250 829 l 468 829 b 608 685 560 829 608 792 l 608 547 b 468 403 608 439 560 403 l 250 403 z "},"Ř":{"ha":843,"x_min":0,"x_max":0,"o":"m 304 1060 b 342 1040 315 1046 326 1040 l 463 1040 b 501 1060 478 1040 490 1047 l 644 1224 b 633 1250 656 1236 647 1250 l 526 1250 b 483 1224 507 1250 497 1242 l 410 1139 l 396 1139 l 322 1224 b 281 1250 308 1242 299 1250 l 172 1250 b 161 1224 158 1250 150 1236 z m 767 543 l 767 689 b 481 972 767 867 681 972 l 111 972 b 92 951 97 972 92 965 l 92 21 b 111 0 92 7 97 0 l 229 0 b 250 21 243 0 250 7 l 250 260 l 481 260 l 497 260 l 601 21 b 633 0 607 7 618 0 l 740 0 b 763 32 761 0 771 13 l 647 296 b 767 543 729 340 767 426 z m 250 829 l 468 829 b 608 685 560 829 608 792 l 608 547 b 468 403 608 439 560 403 l 250 403 z "},"Ŗ":{"ha":843,"x_min":0,"x_max":0,"o":"m 767 543 l 767 689 b 481 972 767 867 681 972 l 111 972 b 92 951 97 972 92 965 l 92 21 b 111 0 92 7 97 0 l 229 0 b 250 21 243 0 250 7 l 250 260 l 481 260 l 497 260 l 601 21 b 633 0 607 7 618 0 l 740 0 b 763 32 761 0 771 13 l 647 296 b 767 543 729 340 767 426 z m 250 829 l 468 829 b 608 685 560 829 608 792 l 608 547 b 468 403 608 439 560 403 l 250 403 z m 449 -83 l 353 -83 b 333 -104 339 -83 333 -90 l 333 -335 l 276 -335 b 256 -356 263 -335 256 -342 l 256 -443 b 276 -464 256 -457 263 -464 l 422 -464 b 469 -417 453 -464 469 -449 l 469 -104 b 449 -83 469 -90 463 -83 z "},"S":{"ha":831,"x_min":0,"x_max":0,"o":"m 356 -7 l 475 -7 b 760 274 667 -7 760 82 b 446 557 760 494 619 532 l 378 567 b 238 714 274 581 238 625 b 375 836 238 807 289 836 l 444 836 b 578 724 529 836 574 806 b 607 696 579 706 590 696 l 711 696 b 736 724 728 696 736 706 b 457 979 736 889 639 979 l 365 979 b 79 721 179 979 79 897 b 378 432 79 501 204 458 l 446 422 b 601 274 546 407 601 381 b 457 136 601 165 542 136 l 375 136 b 229 246 289 136 233 163 b 200 274 228 264 217 274 l 96 274 b 71 246 79 274 71 264 b 356 -7 71 81 164 -7 z "},"Ś":{"ha":831,"x_min":0,"x_max":0,"o":"m 435 1225 l 358 1065 b 372 1040 350 1049 357 1040 l 468 1040 b 501 1065 482 1040 492 1051 l 625 1225 b 611 1250 638 1240 626 1250 l 464 1250 b 435 1225 450 1250 443 1242 z m 356 -7 l 475 -7 b 760 274 667 -7 760 82 b 446 557 760 494 619 532 l 378 567 b 238 714 274 581 238 625 b 375 836 238 807 289 836 l 444 836 b 578 724 529 836 574 806 b 607 696 579 706 590 696 l 711 696 b 736 724 728 696 736 706 b 457 979 736 889 639 979 l 365 979 b 79 721 179 979 79 897 b 378 432 79 501 204 458 l 446 422 b 601 274 546 407 601 381 b 457 136 601 165 542 136 l 375 136 b 229 246 289 136 233 163 b 200 274 228 264 217 274 l 96 274 b 71 246 79 274 71 264 b 356 -7 71 81 164 -7 z "},"Š":{"ha":831,"x_min":0,"x_max":0,"o":"m 354 1040 l 475 1040 b 514 1060 490 1040 503 1047 l 657 1224 b 646 1250 668 1236 660 1250 l 539 1250 b 496 1224 519 1250 510 1242 l 422 1139 l 408 1139 l 335 1224 b 293 1250 321 1242 311 1250 l 185 1250 b 174 1224 171 1250 163 1236 l 317 1060 b 354 1040 328 1046 339 1040 z m 356 -7 l 475 -7 b 760 274 667 -7 760 82 b 446 557 760 494 619 532 l 378 567 b 238 714 274 581 238 625 b 375 836 238 807 289 836 l 444 836 b 578 724 529 836 574 806 b 607 696 579 706 590 696 l 711 696 b 736 724 728 696 736 706 b 457 979 736 889 639 979 l 365 979 b 79 721 179 979 79 897 b 378 432 79 501 204 458 l 446 422 b 601 274 546 407 601 381 b 457 136 601 165 542 136 l 375 136 b 229 246 289 136 233 163 b 200 274 228 264 217 274 l 96 274 b 71 246 79 274 71 264 b 356 -7 71 81 164 -7 z "},"Ş":{"ha":831,"x_min":0,"x_max":0,"o":"m 513 -6 b 760 274 679 6 760 94 b 446 557 760 494 619 532 l 378 567 b 238 714 274 581 238 625 b 375 836 238 807 289 836 l 444 836 b 578 724 529 836 574 806 b 607 696 579 706 590 696 l 711 696 b 736 724 728 696 736 706 b 457 979 736 889 639 979 l 365 979 b 79 721 179 979 79 897 b 378 432 79 501 204 458 l 446 422 b 601 274 546 407 601 381 b 457 136 601 165 542 136 l 375 136 b 229 246 289 136 233 163 b 200 274 228 264 217 274 l 96 274 b 71 246 79 274 71 264 b 356 -7 71 81 164 -7 l 378 -7 b 325 -82 340 -42 325 -57 b 381 -131 325 -115 350 -128 b 522 -168 496 -142 522 -144 b 475 -193 522 -189 506 -193 l 447 -193 b 403 -168 419 -193 407 -183 b 388 -154 401 -160 396 -154 l 297 -154 b 283 -172 286 -154 283 -161 b 406 -285 283 -240 314 -285 l 508 -285 b 642 -167 599 -285 642 -242 b 513 -50 642 -81 606 -60 b 513 -6 482 -47 456 -42 z "},"Ŝ":{"ha":831,"x_min":0,"x_max":0,"o":"m 353 1250 b 315 1231 338 1250 326 1244 l 172 1067 b 183 1040 161 1054 169 1040 l 292 1040 b 333 1067 310 1040 319 1050 l 407 1151 l 421 1151 l 494 1067 b 538 1040 508 1050 518 1040 l 644 1040 b 656 1067 658 1040 667 1054 l 513 1231 b 474 1250 501 1243 489 1250 z m 356 -7 l 475 -7 b 760 274 667 -7 760 82 b 446 557 760 494 619 532 l 378 567 b 238 714 274 581 238 625 b 375 836 238 807 289 836 l 444 836 b 578 724 529 836 574 806 b 607 696 579 706 590 696 l 711 696 b 736 724 728 696 736 706 b 457 979 736 889 639 979 l 365 979 b 79 721 179 979 79 897 b 378 432 79 501 204 458 l 446 422 b 601 274 546 407 601 381 b 457 136 601 165 542 136 l 375 136 b 229 246 289 136 233 163 b 200 274 228 264 217 274 l 96 274 b 71 246 79 274 71 264 b 356 -7 71 81 164 -7 z "},"Ș":{"ha":831,"x_min":0,"x_max":0,"o":"m 356 -7 l 475 -7 b 760 274 667 -7 760 82 b 446 557 760 494 619 532 l 378 567 b 238 714 274 581 238 625 b 375 836 238 807 289 836 l 444 836 b 578 724 529 836 574 806 b 607 696 579 706 590 696 l 711 696 b 736 724 728 696 736 706 b 457 979 736 889 639 979 l 365 979 b 79 721 179 979 79 897 b 378 432 79 501 204 458 l 446 422 b 601 274 546 407 601 381 b 457 136 601 165 542 136 l 375 136 b 229 246 289 136 233 163 b 200 274 228 264 217 274 l 96 274 b 71 246 79 274 71 264 b 356 -7 71 81 164 -7 z m 461 -83 l 365 -83 b 346 -104 351 -83 346 -90 l 346 -335 l 289 -335 b 268 -356 275 -335 268 -342 l 268 -443 b 289 -464 268 -457 275 -464 l 435 -464 b 482 -417 465 -464 482 -449 l 482 -104 b 461 -83 482 -90 475 -83 z "},"T":{"ha":754,"x_min":0,"x_max":0,"o":"m 671 972 l 83 972 b 64 951 69 972 64 965 l 64 850 b 83 829 64 836 69 829 l 299 829 l 299 21 b 319 0 299 7 306 0 l 436 0 b 457 21 450 0 457 7 l 457 829 l 671 829 b 692 850 685 829 692 836 l 692 951 b 671 972 692 965 685 972 z "},"Ŧ":{"ha":751,"x_min":0,"x_max":0,"o":"m 671 972 l 83 972 b 64 951 69 972 64 965 l 64 850 b 83 829 64 836 69 829 l 299 829 l 299 635 l 153 635 b 132 614 139 635 132 628 l 132 515 b 153 494 132 501 139 494 l 299 494 l 299 21 b 319 0 299 7 306 0 l 436 0 b 457 21 450 0 457 7 l 457 494 l 603 494 b 624 515 615 494 624 501 l 624 614 b 603 635 624 628 615 635 l 457 635 l 457 829 l 671 829 b 692 850 685 829 692 836 l 692 951 b 671 972 692 965 685 972 z "},"Ť":{"ha":754,"x_min":0,"x_max":0,"o":"m 279 1060 b 317 1040 290 1046 301 1040 l 438 1040 b 476 1060 453 1040 465 1047 l 619 1224 b 608 1250 631 1236 622 1250 l 501 1250 b 458 1224 482 1250 472 1242 l 385 1139 l 371 1139 l 297 1224 b 256 1250 283 1242 274 1250 l 147 1250 b 136 1224 133 1250 125 1236 z m 671 972 l 83 972 b 64 951 69 972 64 965 l 64 850 b 83 829 64 836 69 829 l 299 829 l 299 21 b 319 0 299 7 306 0 l 436 0 b 457 21 450 0 457 7 l 457 829 l 671 829 b 692 850 685 829 692 836 l 692 951 b 671 972 692 965 685 972 z "},"Ţ":{"ha":754,"x_min":0,"x_max":0,"o":"m 671 972 l 83 972 b 64 951 69 972 64 965 l 64 850 b 83 829 64 836 69 829 l 299 829 l 299 21 b 319 0 299 7 306 0 l 349 0 b 289 -82 307 -40 289 -56 b 344 -131 289 -115 314 -128 b 486 -168 460 -142 486 -144 b 439 -193 486 -189 469 -193 l 411 -193 b 367 -168 383 -193 371 -183 b 351 -154 365 -160 360 -154 l 261 -154 b 247 -172 250 -154 247 -161 b 369 -285 247 -240 278 -285 l 472 -285 b 606 -167 563 -285 606 -242 b 476 -50 606 -81 569 -60 b 486 0 444 -47 417 -42 l 436 0 b 457 21 450 0 457 7 l 457 829 l 671 829 b 692 850 685 829 692 836 l 692 951 b 671 972 692 965 685 972 z "},"Ț":{"ha":754,"x_min":0,"x_max":0,"o":"m 671 972 l 83 972 b 64 951 69 972 64 965 l 64 850 b 83 829 64 836 69 829 l 299 829 l 299 21 b 319 0 299 7 306 0 l 436 0 b 457 21 450 0 457 7 l 457 829 l 671 829 b 692 850 685 829 692 836 l 692 951 b 671 972 692 965 685 972 z m 424 -83 l 328 -83 b 308 -104 314 -83 308 -90 l 308 -335 l 251 -335 b 231 -356 238 -335 231 -342 l 231 -443 b 251 -464 231 -457 238 -464 l 397 -464 b 444 -417 428 -464 444 -449 l 444 -104 b 424 -83 444 -90 438 -83 z "},"U":{"ha":893,"x_min":0,"x_max":0,"o":"m 378 -7 l 515 -7 b 803 278 717 -7 803 100 l 803 951 b 782 972 803 965 796 972 l 664 972 b 644 951 650 972 644 965 l 644 281 b 504 136 644 174 594 136 l 389 136 b 250 281 299 136 250 174 l 250 951 b 229 972 250 965 243 972 l 111 972 b 92 951 97 972 92 965 l 92 278 b 378 -7 92 100 176 -7 z "},"Ú":{"ha":893,"x_min":0,"x_max":0,"o":"m 467 1225 l 390 1065 b 404 1040 382 1049 389 1040 l 500 1040 b 533 1065 514 1040 524 1051 l 657 1225 b 643 1250 669 1240 658 1250 l 496 1250 b 467 1225 482 1250 475 1242 z m 378 -7 l 515 -7 b 803 278 717 -7 803 100 l 803 951 b 782 972 803 965 796 972 l 664 972 b 644 951 650 972 644 965 l 644 281 b 504 136 644 174 594 136 l 389 136 b 250 281 299 136 250 174 l 250 951 b 229 972 250 965 243 972 l 111 972 b 92 951 97 972 92 965 l 92 278 b 378 -7 92 100 176 -7 z "},"Ŭ":{"ha":893,"x_min":0,"x_max":0,"o":"m 407 1036 l 486 1036 b 672 1229 614 1036 672 1100 b 651 1250 672 1243 665 1250 l 567 1250 b 546 1229 553 1250 547 1243 b 465 1144 542 1183 525 1144 l 428 1144 b 347 1229 368 1144 351 1183 b 328 1250 347 1243 342 1250 l 242 1250 b 221 1229 228 1250 221 1243 b 407 1036 221 1100 281 1036 z m 378 -7 l 515 -7 b 803 278 717 -7 803 100 l 803 951 b 782 972 803 965 796 972 l 664 972 b 644 951 650 972 644 965 l 644 281 b 504 136 644 174 594 136 l 389 136 b 250 281 299 136 250 174 l 250 951 b 229 972 250 965 243 972 l 111 972 b 92 951 97 972 92 965 l 92 278 b 378 -7 92 100 176 -7 z "},"Û":{"ha":893,"x_min":0,"x_max":0,"o":"m 385 1250 b 347 1231 369 1250 358 1244 l 204 1067 b 215 1040 193 1054 201 1040 l 324 1040 b 365 1067 342 1040 351 1050 l 439 1151 l 453 1151 l 526 1067 b 569 1040 540 1050 550 1040 l 676 1040 b 688 1067 690 1040 699 1054 l 544 1231 b 506 1250 533 1243 521 1250 z m 378 -7 l 515 -7 b 803 278 717 -7 803 100 l 803 951 b 782 972 803 965 796 972 l 664 972 b 644 951 650 972 644 965 l 644 281 b 504 136 644 174 594 136 l 389 136 b 250 281 299 136 250 174 l 250 951 b 229 972 250 965 243 972 l 111 972 b 92 951 97 972 92 965 l 92 278 b 378 -7 92 100 176 -7 z "},"Ü":{"ha":893,"x_min":0,"x_max":0,"o":"m 189 1090 l 308 1090 b 328 1110 322 1090 328 1096 l 328 1229 b 308 1250 328 1243 322 1250 l 189 1250 b 168 1229 175 1250 168 1243 l 168 1110 b 189 1090 168 1096 175 1090 z m 588 1090 l 707 1090 b 728 1110 721 1090 728 1096 l 728 1229 b 707 1250 728 1243 721 1250 l 588 1250 b 568 1229 574 1250 568 1243 l 568 1110 b 588 1090 568 1096 574 1090 z m 378 -7 l 515 -7 b 803 278 717 -7 803 100 l 803 951 b 782 972 803 965 796 972 l 664 972 b 644 951 650 972 644 965 l 644 281 b 504 136 644 174 594 136 l 389 136 b 250 281 299 136 250 174 l 250 951 b 229 972 250 965 243 972 l 111 972 b 92 951 97 972 92 965 l 92 278 b 378 -7 92 100 176 -7 z "},"Ù":{"ha":893,"x_min":0,"x_max":0,"o":"m 436 1225 b 407 1250 426 1242 421 1250 l 258 1250 b 244 1225 243 1250 232 1240 l 368 1065 b 401 1040 378 1051 388 1040 l 497 1040 b 511 1065 513 1040 519 1049 z m 378 -7 l 515 -7 b 803 278 717 -7 803 100 l 803 951 b 782 972 803 965 796 972 l 664 972 b 644 951 650 972 644 965 l 644 281 b 504 136 644 174 594 136 l 389 136 b 250 281 299 136 250 174 l 250 951 b 229 972 250 965 243 972 l 111 972 b 92 951 97 972 92 965 l 92 278 b 378 -7 92 100 176 -7 z "},"Ű":{"ha":893,"x_min":0,"x_max":0,"o":"m 335 1225 l 258 1065 b 272 1040 250 1049 257 1040 l 368 1040 b 401 1065 382 1040 392 1051 l 525 1225 b 511 1250 538 1240 526 1250 l 364 1250 b 335 1225 350 1250 343 1242 z m 586 1225 l 510 1065 b 524 1040 501 1049 508 1040 l 621 1040 b 653 1065 635 1040 643 1051 l 778 1225 b 764 1250 790 1240 779 1250 l 615 1250 b 586 1225 601 1250 594 1242 z m 378 -7 l 515 -7 b 803 278 717 -7 803 100 l 803 951 b 782 972 803 965 796 972 l 664 972 b 644 951 650 972 644 965 l 644 281 b 504 136 644 174 594 136 l 389 136 b 250 281 299 136 250 174 l 250 951 b 229 972 250 965 243 972 l 111 972 b 92 951 97 972 92 965 l 92 278 b 378 -7 92 100 176 -7 z "},"Ū":{"ha":893,"x_min":0,"x_max":0,"o":"m 222 1110 l 672 1110 b 693 1131 685 1110 693 1117 l 693 1229 b 672 1250 693 1243 685 1250 l 222 1250 b 201 1229 208 1250 201 1243 l 201 1131 b 222 1110 201 1117 208 1110 z m 378 -7 l 515 -7 b 803 278 717 -7 803 100 l 803 951 b 782 972 803 965 796 972 l 664 972 b 644 951 650 972 644 965 l 644 281 b 504 136 644 174 594 136 l 389 136 b 250 281 299 136 250 174 l 250 951 b 229 972 250 965 243 972 l 111 972 b 92 951 97 972 92 965 l 92 278 b 378 -7 92 100 176 -7 z "},"Ų":{"ha":893,"x_min":0,"x_max":0,"o":"m 782 972 l 664 972 b 644 951 650 972 644 965 l 644 281 b 504 136 644 174 594 136 l 389 136 b 250 281 299 136 250 174 l 250 951 b 229 972 250 965 243 972 l 111 972 b 92 951 97 972 92 965 l 92 278 b 378 -7 92 100 176 -7 l 415 -7 l 415 -10 b 368 -46 415 -40 401 -43 l 315 -51 b 213 -165 236 -60 213 -75 b 351 -286 213 -264 243 -286 l 536 -286 b 550 -272 546 -286 550 -281 l 550 -200 b 536 -183 550 -190 544 -183 l 379 -183 b 351 -162 357 -183 351 -178 b 372 -140 351 -146 356 -143 l 478 -128 b 569 -46 540 -119 569 -112 l 569 -4 b 803 278 732 14 803 117 l 803 951 b 782 972 803 965 796 972 z "},"Ů":{"ha":893,"x_min":0,"x_max":0,"o":"m 456 1272 l 438 1272 b 321 1156 369 1272 321 1221 l 321 1140 b 438 1025 321 1075 369 1025 l 456 1025 b 572 1140 524 1025 572 1075 l 572 1156 b 456 1272 572 1221 524 1272 z m 488 1154 l 488 1144 b 453 1110 488 1125 474 1110 l 440 1110 b 407 1144 421 1110 407 1125 l 407 1154 b 440 1188 407 1174 421 1188 l 453 1188 b 488 1154 474 1188 488 1174 z m 378 -7 l 515 -7 b 803 278 717 -7 803 100 l 803 951 b 782 972 803 965 796 972 l 664 972 b 644 951 650 972 644 965 l 644 281 b 504 136 644 174 594 136 l 389 136 b 250 281 299 136 250 174 l 250 951 b 229 972 250 965 243 972 l 111 972 b 92 951 97 972 92 965 l 92 278 b 378 -7 92 100 176 -7 z "},"Ũ":{"ha":893,"x_min":0,"x_max":0,"o":"m 542 1064 b 675 1110 586 1064 628 1075 b 688 1139 686 1118 693 1125 l 654 1219 b 629 1226 650 1228 642 1233 b 546 1199 596 1207 578 1199 b 354 1257 474 1199 450 1257 b 221 1213 310 1257 268 1247 b 208 1182 210 1204 203 1196 l 242 1101 b 267 1096 246 1093 254 1088 b 350 1122 299 1115 318 1122 b 542 1064 422 1122 446 1064 z m 378 -7 l 515 -7 b 803 278 717 -7 803 100 l 803 951 b 782 972 803 965 796 972 l 664 972 b 644 951 650 972 644 965 l 644 281 b 504 136 644 174 594 136 l 389 136 b 250 281 299 136 250 174 l 250 951 b 229 972 250 965 243 972 l 111 972 b 92 951 97 972 92 965 l 92 278 b 378 -7 92 100 176 -7 z "},"V":{"ha":857,"x_min":0,"x_max":0,"o":"m 329 0 l 528 0 b 554 22 540 0 550 8 l 806 946 b 789 972 810 961 801 972 l 671 972 b 644 946 657 972 649 961 l 438 179 l 419 179 l 213 946 b 186 972 208 961 200 972 l 68 972 b 51 946 54 972 47 961 l 303 22 b 329 0 307 8 317 0 z "},"W":{"ha":1301,"x_min":0,"x_max":0,"o":"m 1233 972 l 1117 972 b 1090 946 1103 972 1093 961 l 932 181 l 914 181 l 739 946 b 714 972 736 961 728 972 l 588 972 b 561 946 574 972 564 961 l 386 181 l 369 181 l 211 946 b 185 972 208 961 199 972 l 67 972 b 50 946 54 972 47 961 l 246 22 b 272 0 249 8 260 0 l 474 0 b 500 22 486 0 497 8 l 642 696 l 658 696 l 801 22 b 828 0 804 8 815 0 l 1028 0 b 1054 22 1040 0 1051 8 l 1251 946 b 1233 972 1254 961 1247 972 z "},"Ẃ":{"ha":1260,"x_min":0,"x_max":0,"o":"m 649 1261 l 574 1101 b 588 1076 564 1085 572 1076 l 683 1076 b 717 1101 697 1076 706 1088 l 840 1261 b 826 1286 853 1276 842 1286 l 678 1286 b 649 1261 664 1286 657 1278 z m 1233 972 l 1117 972 b 1090 946 1103 972 1093 961 l 932 181 l 914 181 l 739 946 b 714 972 736 961 728 972 l 588 972 b 561 946 574 972 564 961 l 386 181 l 369 181 l 211 946 b 185 972 208 961 199 972 l 67 972 b 50 946 54 972 47 961 l 246 22 b 272 0 249 8 260 0 l 474 0 b 500 22 486 0 497 8 l 642 696 l 658 696 l 801 22 b 828 0 804 8 815 0 l 1028 0 b 1054 22 1040 0 1051 8 l 1251 946 b 1233 972 1254 961 1247 972 z "},"Ŵ":{"ha":1260,"x_min":0,"x_max":0,"o":"m 560 1286 b 524 1267 544 1286 535 1281 l 379 1103 b 390 1076 369 1090 376 1076 l 499 1076 b 542 1103 518 1076 526 1086 l 615 1188 l 629 1188 l 703 1103 b 744 1076 717 1086 725 1076 l 853 1076 b 864 1103 867 1076 875 1090 l 719 1267 b 681 1286 708 1279 696 1286 z m 1233 972 l 1117 972 b 1090 946 1103 972 1093 961 l 932 181 l 914 181 l 739 946 b 714 972 736 961 728 972 l 588 972 b 561 946 574 972 564 961 l 386 181 l 369 181 l 211 946 b 185 972 208 961 199 972 l 67 972 b 50 946 54 972 47 961 l 246 22 b 272 0 249 8 260 0 l 474 0 b 500 22 486 0 497 8 l 642 696 l 658 696 l 801 22 b 828 0 804 8 815 0 l 1028 0 b 1054 22 1040 0 1051 8 l 1251 946 b 1233 972 1254 961 1247 972 z "},"Ẅ":{"ha":1260,"x_min":0,"x_max":0,"o":"m 411 1126 l 531 1126 b 551 1146 544 1126 551 1132 l 551 1265 b 531 1286 551 1279 544 1286 l 411 1286 b 392 1265 397 1286 392 1279 l 392 1146 b 411 1126 392 1132 397 1126 z m 811 1126 l 931 1126 b 951 1146 944 1126 951 1132 l 951 1265 b 931 1286 951 1279 944 1286 l 811 1286 b 790 1265 797 1286 790 1279 l 790 1146 b 811 1126 790 1132 797 1126 z m 1233 972 l 1117 972 b 1090 946 1103 972 1093 961 l 932 181 l 914 181 l 739 946 b 714 972 736 961 728 972 l 588 972 b 561 946 574 972 564 961 l 386 181 l 369 181 l 211 946 b 185 972 208 961 199 972 l 67 972 b 50 946 54 972 47 961 l 246 22 b 272 0 249 8 260 0 l 474 0 b 500 22 486 0 497 8 l 642 696 l 658 696 l 801 22 b 828 0 804 8 815 0 l 1028 0 b 1054 22 1040 0 1051 8 l 1251 946 b 1233 972 1254 961 1247 972 z "},"Ẁ":{"ha":1260,"x_min":0,"x_max":0,"o":"m 618 1261 b 589 1286 610 1278 603 1286 l 440 1286 b 426 1261 425 1286 414 1276 l 550 1101 b 583 1076 561 1088 569 1076 l 681 1076 b 694 1101 694 1076 703 1085 z m 1233 972 l 1117 972 b 1090 946 1103 972 1093 961 l 932 181 l 914 181 l 739 946 b 714 972 736 961 728 972 l 588 972 b 561 946 574 972 564 961 l 386 181 l 369 181 l 211 946 b 185 972 208 961 199 972 l 67 972 b 50 946 54 972 47 961 l 246 22 b 272 0 249 8 260 0 l 474 0 b 500 22 486 0 497 8 l 642 696 l 658 696 l 801 22 b 828 0 804 8 815 0 l 1028 0 b 1054 22 1040 0 1051 8 l 1251 946 b 1233 972 1254 961 1247 972 z "},"X":{"ha":815,"x_min":0,"x_max":0,"o":"m 82 0 l 206 0 b 233 19 221 0 225 6 l 403 333 l 414 333 l 583 19 b 611 0 590 6 597 0 l 735 0 b 747 25 750 0 756 8 l 492 486 l 746 947 b 733 972 754 964 749 972 l 608 972 b 581 953 594 972 588 967 l 414 639 l 403 639 l 236 953 b 208 972 228 967 222 972 l 85 972 b 69 947 69 972 61 964 l 324 486 l 68 25 b 82 0 60 8 67 0 z "},"Y":{"ha":822,"x_min":0,"x_max":0,"o":"m 756 972 l 633 972 b 606 951 618 972 613 967 l 417 543 l 406 543 l 218 951 b 189 972 211 967 204 972 l 67 972 b 53 947 51 972 44 964 l 332 358 l 332 21 b 353 0 332 7 339 0 l 469 0 b 490 21 483 0 490 7 l 490 358 l 771 947 b 756 972 779 964 771 972 z "},"Ý":{"ha":822,"x_min":0,"x_max":0,"o":"m 368 1040 l 464 1040 b 497 1065 478 1040 488 1051 l 621 1225 b 607 1250 633 1240 622 1250 l 460 1250 b 431 1225 446 1250 439 1242 l 354 1065 b 368 1040 346 1049 353 1040 z m 756 972 l 633 972 b 606 951 618 972 613 967 l 417 543 l 406 543 l 218 951 b 189 972 211 967 204 972 l 67 972 b 53 947 51 972 44 964 l 332 358 l 332 21 b 353 0 332 7 339 0 l 469 0 b 490 21 483 0 490 7 l 490 358 l 771 947 b 756 972 779 964 771 972 z "},"Ŷ":{"ha":822,"x_min":0,"x_max":0,"o":"m 179 1040 l 288 1040 b 329 1067 306 1040 315 1050 l 403 1151 l 417 1151 l 490 1067 b 533 1040 504 1050 514 1040 l 640 1040 b 651 1067 654 1040 663 1054 l 508 1231 b 469 1250 497 1243 485 1250 l 349 1250 b 311 1231 333 1250 322 1244 l 168 1067 b 179 1040 157 1054 165 1040 z m 756 972 l 633 972 b 606 951 618 972 613 967 l 417 543 l 406 543 l 218 951 b 189 972 211 967 204 972 l 67 972 b 53 947 51 972 44 964 l 332 358 l 332 21 b 353 0 332 7 339 0 l 469 0 b 490 21 483 0 490 7 l 490 358 l 771 947 b 756 972 779 964 771 972 z "},"Ÿ":{"ha":822,"x_min":0,"x_max":0,"o":"m 153 1090 l 272 1090 b 292 1110 286 1090 292 1096 l 292 1229 b 272 1250 292 1243 286 1250 l 153 1250 b 132 1229 139 1250 132 1243 l 132 1110 b 153 1090 132 1096 139 1090 z m 551 1090 l 671 1090 b 692 1110 685 1090 692 1096 l 692 1229 b 671 1250 692 1243 685 1250 l 551 1250 b 532 1229 538 1250 532 1243 l 532 1110 b 551 1090 532 1096 538 1090 z m 756 972 l 633 972 b 606 951 618 972 613 967 l 417 543 l 406 543 l 218 951 b 189 972 211 967 204 972 l 67 972 b 53 947 51 972 44 964 l 332 358 l 332 21 b 353 0 332 7 339 0 l 469 0 b 490 21 483 0 490 7 l 490 358 l 771 947 b 756 972 779 964 771 972 z "},"Ỳ":{"ha":822,"x_min":0,"x_max":0,"o":"m 332 1065 b 365 1040 342 1051 351 1040 l 461 1040 b 475 1065 476 1040 483 1049 l 400 1225 b 371 1250 390 1242 385 1250 l 222 1250 b 208 1225 207 1250 196 1240 z m 756 972 l 633 972 b 606 951 618 972 613 967 l 417 543 l 406 543 l 218 951 b 189 972 211 967 204 972 l 67 972 b 53 947 51 972 44 964 l 332 358 l 332 21 b 353 0 332 7 339 0 l 469 0 b 490 21 483 0 490 7 l 490 358 l 771 947 b 756 972 779 964 771 972 z "},"Z":{"ha":735,"x_min":0,"x_max":0,"o":"m 83 0 l 651 0 b 671 21 665 0 671 7 l 671 122 b 651 143 671 136 665 143 l 231 143 l 231 156 l 656 794 b 672 846 671 815 672 832 l 672 951 b 651 972 672 965 665 972 l 92 972 b 71 951 78 972 71 965 l 71 850 b 92 829 71 836 78 829 l 503 829 l 503 818 l 79 179 b 64 126 65 157 64 140 l 64 21 b 83 0 64 7 69 0 z "},"Ź":{"ha":735,"x_min":0,"x_max":0,"o":"m 388 1225 l 311 1065 b 325 1040 303 1049 310 1040 l 421 1040 b 454 1065 435 1040 444 1051 l 578 1225 b 564 1250 590 1240 579 1250 l 417 1250 b 388 1225 403 1250 396 1242 z m 83 0 l 651 0 b 671 21 665 0 671 7 l 671 122 b 651 143 671 136 665 143 l 231 143 l 231 156 l 656 794 b 672 846 671 815 672 832 l 672 951 b 651 972 672 965 665 972 l 92 972 b 71 951 78 972 71 965 l 71 850 b 92 829 71 836 78 829 l 503 829 l 503 818 l 79 179 b 64 126 65 157 64 140 l 64 21 b 83 0 64 7 69 0 z "},"Ž":{"ha":735,"x_min":0,"x_max":0,"o":"m 307 1040 l 428 1040 b 467 1060 443 1040 456 1047 l 610 1224 b 599 1250 621 1236 613 1250 l 492 1250 b 449 1224 472 1250 463 1242 l 375 1139 l 361 1139 l 288 1224 b 246 1250 274 1242 264 1250 l 138 1250 b 126 1224 124 1250 115 1236 l 269 1060 b 307 1040 281 1046 292 1040 z m 83 0 l 651 0 b 671 21 665 0 671 7 l 671 122 b 651 143 671 136 665 143 l 231 143 l 231 156 l 656 794 b 672 846 671 815 672 832 l 672 951 b 651 972 672 965 665 972 l 92 972 b 71 951 78 972 71 965 l 71 850 b 92 829 71 836 78 829 l 503 829 l 503 818 l 79 179 b 64 126 65 157 64 140 l 64 21 b 83 0 64 7 69 0 z "},"Ż":{"ha":735,"x_min":0,"x_max":0,"o":"m 308 1090 l 428 1090 b 447 1110 442 1090 447 1096 l 447 1229 b 428 1250 447 1243 442 1250 l 308 1250 b 288 1229 294 1250 288 1243 l 288 1110 b 308 1090 288 1096 294 1090 z m 83 0 l 651 0 b 671 21 665 0 671 7 l 671 122 b 651 143 671 136 665 143 l 231 143 l 231 156 l 656 794 b 672 846 671 815 672 832 l 672 951 b 651 972 672 965 665 972 l 92 972 b 71 951 78 972 71 965 l 71 850 b 92 829 71 836 78 829 l 503 829 l 503 818 l 79 179 b 64 126 65 157 64 140 l 64 21 b 83 0 64 7 69 0 z "},"a":{"ha":729,"x_min":0,"x_max":0,"o":"m 396 700 l 361 700 b 146 667 268 700 190 683 b 132 643 135 663 129 654 l 149 560 b 172 544 151 546 158 542 b 335 564 211 557 278 564 b 490 458 457 564 490 528 l 490 415 l 279 415 b 64 239 135 415 64 364 l 64 197 b 268 -7 64 69 128 -7 l 278 -7 b 475 92 372 -7 431 38 l 490 92 l 490 21 b 511 0 490 7 497 0 l 625 0 b 644 21 638 0 644 7 l 644 467 b 396 700 644 613 572 700 z m 360 126 l 301 126 b 215 204 247 126 215 147 l 215 231 b 300 304 215 290 247 304 l 490 304 l 490 242 b 360 126 490 186 443 126 z "},"á":{"ha":729,"x_min":0,"x_max":0,"o":"m 335 763 l 431 763 b 464 788 444 763 454 774 l 588 947 b 574 972 600 963 589 972 l 426 972 b 397 947 413 972 406 964 l 321 788 b 335 763 313 771 319 763 z m 396 700 l 361 700 b 146 667 268 700 190 683 b 132 643 135 663 129 654 l 149 560 b 172 544 151 546 158 542 b 335 564 211 557 278 564 b 490 458 457 564 490 528 l 490 415 l 279 415 b 64 239 135 415 64 364 l 64 197 b 268 -7 64 69 128 -7 l 278 -7 b 475 92 372 -7 431 38 l 490 92 l 490 21 b 511 0 490 7 497 0 l 625 0 b 644 21 638 0 644 7 l 644 467 b 396 700 644 613 572 700 z m 360 126 l 301 126 b 215 204 247 126 215 147 l 215 231 b 300 304 215 290 247 304 l 490 304 l 490 242 b 360 126 490 186 443 126 z "},"ă":{"ha":729,"x_min":0,"x_max":0,"o":"m 338 758 l 417 758 b 603 951 544 758 603 822 b 582 972 603 965 596 972 l 497 972 b 476 951 483 972 478 965 b 396 867 472 906 456 867 l 358 867 b 278 951 299 867 282 906 b 258 972 278 965 272 972 l 172 972 b 151 951 158 972 151 965 b 338 758 151 822 211 758 z m 396 700 l 361 700 b 146 667 268 700 190 683 b 132 643 135 663 129 654 l 149 560 b 172 544 151 546 158 542 b 335 564 211 557 278 564 b 490 458 457 564 490 528 l 490 415 l 279 415 b 64 239 135 415 64 364 l 64 197 b 268 -7 64 69 128 -7 l 278 -7 b 475 92 372 -7 431 38 l 490 92 l 490 21 b 511 0 490 7 497 0 l 625 0 b 644 21 638 0 644 7 l 644 467 b 396 700 644 613 572 700 z m 360 126 l 301 126 b 215 204 247 126 215 147 l 215 231 b 300 304 215 290 247 304 l 490 304 l 490 242 b 360 126 490 186 443 126 z "},"ǎ":{"ha":729,"x_min":0,"x_max":0,"o":"m 279 782 b 317 763 290 768 301 763 l 438 763 b 476 782 453 763 465 769 l 619 946 b 608 972 631 958 622 972 l 501 972 b 458 946 482 972 472 964 l 385 861 l 371 861 l 297 946 b 256 972 283 964 274 972 l 147 972 b 136 946 133 972 125 958 z m 396 700 l 361 700 b 146 667 268 700 190 683 b 132 643 135 663 129 654 l 149 560 b 172 544 151 546 158 542 b 335 564 211 557 278 564 b 490 458 457 564 490 528 l 490 415 l 279 415 b 64 239 135 415 64 364 l 64 197 b 268 -7 64 69 128 -7 l 278 -7 b 475 92 372 -7 431 38 l 490 92 l 490 21 b 511 0 490 7 497 0 l 625 0 b 644 21 638 0 644 7 l 644 467 b 396 700 644 613 572 700 z m 360 126 l 301 126 b 215 204 247 126 215 147 l 215 231 b 300 304 215 290 247 304 l 490 304 l 490 242 b 360 126 490 186 443 126 z "},"â":{"ha":729,"x_min":0,"x_max":0,"o":"m 147 763 l 256 763 b 297 789 274 763 283 772 l 371 874 l 385 874 l 458 789 b 501 763 472 772 482 763 l 608 763 b 619 789 622 763 631 776 l 476 953 b 438 972 465 965 453 972 l 317 972 b 279 953 301 972 290 967 l 136 789 b 147 763 125 776 133 763 z m 396 700 l 361 700 b 146 667 268 700 190 683 b 132 643 135 663 129 654 l 149 560 b 172 544 151 546 158 542 b 335 564 211 557 278 564 b 490 458 457 564 490 528 l 490 415 l 279 415 b 64 239 135 415 64 364 l 64 197 b 268 -7 64 69 128 -7 l 278 -7 b 475 92 372 -7 431 38 l 490 92 l 490 21 b 511 0 490 7 497 0 l 625 0 b 644 21 638 0 644 7 l 644 467 b 396 700 644 613 572 700 z m 360 126 l 301 126 b 215 204 247 126 215 147 l 215 231 b 300 304 215 290 247 304 l 490 304 l 490 242 b 360 126 490 186 443 126 z "},"ä":{"ha":729,"x_min":0,"x_max":0,"o":"m 119 813 l 239 813 b 258 832 253 813 258 818 l 258 951 b 239 972 258 965 253 972 l 119 972 b 99 951 106 972 99 965 l 99 832 b 119 813 99 818 106 813 z m 638 972 l 518 972 b 499 951 504 972 499 965 l 499 832 b 518 813 499 818 504 813 l 638 813 b 658 832 651 813 658 818 l 658 951 b 638 972 658 965 651 972 z m 396 700 l 361 700 b 146 667 268 700 190 683 b 132 643 135 663 129 654 l 149 560 b 172 544 151 546 158 542 b 335 564 211 557 278 564 b 490 458 457 564 490 528 l 490 415 l 279 415 b 64 239 135 415 64 364 l 64 197 b 268 -7 64 69 128 -7 l 278 -7 b 475 92 372 -7 431 38 l 490 92 l 490 21 b 511 0 490 7 497 0 l 625 0 b 644 21 638 0 644 7 l 644 467 b 396 700 644 613 572 700 z m 360 126 l 301 126 b 215 204 247 126 215 147 l 215 231 b 300 304 215 290 247 304 l 490 304 l 490 242 b 360 126 490 186 443 126 z "},"à":{"ha":729,"x_min":0,"x_max":0,"o":"m 299 788 b 332 763 308 774 318 763 l 428 763 b 442 788 443 763 450 771 l 367 947 b 338 972 357 964 351 972 l 189 972 b 175 947 174 972 163 963 z m 396 700 l 361 700 b 146 667 268 700 190 683 b 132 643 135 663 129 654 l 149 560 b 172 544 151 546 158 542 b 335 564 211 557 278 564 b 490 458 457 564 490 528 l 490 415 l 279 415 b 64 239 135 415 64 364 l 64 197 b 268 -7 64 69 128 -7 l 278 -7 b 475 92 372 -7 431 38 l 490 92 l 490 21 b 511 0 490 7 497 0 l 625 0 b 644 21 638 0 644 7 l 644 467 b 396 700 644 613 572 700 z m 360 126 l 301 126 b 215 204 247 126 215 147 l 215 231 b 300 304 215 290 247 304 l 490 304 l 490 242 b 360 126 490 186 443 126 z "},"ā":{"ha":729,"x_min":0,"x_max":0,"o":"m 153 832 l 603 832 b 624 853 615 832 624 839 l 624 951 b 603 972 624 965 615 972 l 153 972 b 132 951 139 972 132 965 l 132 853 b 153 832 132 839 139 832 z m 396 700 l 361 700 b 146 667 268 700 190 683 b 132 643 135 663 129 654 l 149 560 b 172 544 151 546 158 542 b 335 564 211 557 278 564 b 490 458 457 564 490 528 l 490 415 l 279 415 b 64 239 135 415 64 364 l 64 197 b 268 -7 64 69 128 -7 l 278 -7 b 475 92 372 -7 431 38 l 490 92 l 490 21 b 511 0 490 7 497 0 l 625 0 b 644 21 638 0 644 7 l 644 467 b 396 700 644 613 572 700 z m 360 126 l 301 126 b 215 204 247 126 215 147 l 215 231 b 300 304 215 290 247 304 l 490 304 l 490 242 b 360 126 490 186 443 126 z "},"ą":{"ha":729,"x_min":0,"x_max":0,"o":"m 396 700 l 361 700 b 146 667 268 700 190 683 b 132 643 135 663 129 654 l 149 560 b 172 544 151 546 158 542 b 335 564 211 557 278 564 b 490 458 457 564 490 528 l 490 415 l 279 415 b 64 239 135 415 64 364 l 64 197 b 268 -7 64 69 128 -7 l 278 -7 b 475 92 372 -7 431 38 l 490 92 l 490 -10 b 443 -46 490 -40 476 -43 l 390 -51 b 288 -165 311 -60 288 -75 b 426 -286 288 -264 318 -286 l 611 -286 b 625 -272 621 -286 625 -281 l 625 -200 b 611 -183 625 -190 619 -183 l 454 -183 b 426 -162 432 -183 426 -178 b 447 -140 426 -146 431 -143 l 553 -128 b 644 -46 615 -119 644 -112 l 644 467 b 396 700 644 613 572 700 z m 360 126 l 301 126 b 215 204 247 126 215 147 l 215 231 b 300 304 215 290 247 304 l 490 304 l 490 242 b 360 126 490 186 443 126 z "},"å":{"ha":729,"x_min":0,"x_max":0,"o":"m 368 747 l 386 747 b 503 863 454 747 503 797 l 503 878 b 386 994 503 943 454 994 l 368 994 b 251 878 300 994 251 943 l 251 863 b 368 747 251 797 300 747 z m 338 876 b 371 910 338 896 351 910 l 383 910 b 418 876 404 910 418 896 l 418 867 b 383 832 418 847 404 832 l 371 832 b 338 867 351 832 338 847 z m 396 700 l 361 700 b 146 667 268 700 190 683 b 132 643 135 663 129 654 l 149 560 b 172 544 151 546 158 542 b 335 564 211 557 278 564 b 490 458 457 564 490 528 l 490 415 l 279 415 b 64 239 135 415 64 364 l 64 197 b 268 -7 64 69 128 -7 l 278 -7 b 475 92 372 -7 431 38 l 490 92 l 490 21 b 511 0 490 7 497 0 l 625 0 b 644 21 638 0 644 7 l 644 467 b 396 700 644 613 572 700 z m 360 126 l 301 126 b 215 204 247 126 215 147 l 215 231 b 300 304 215 290 247 304 l 490 304 l 490 242 b 360 126 490 186 443 126 z "},"ã":{"ha":729,"x_min":0,"x_max":0,"o":"m 174 824 b 199 818 178 815 186 810 b 282 844 231 838 250 844 b 474 786 354 844 378 786 b 607 832 518 786 560 797 b 619 861 618 840 625 847 l 586 942 b 561 949 582 950 574 956 b 478 921 528 929 510 921 b 286 979 406 921 382 979 b 153 935 242 979 200 969 b 140 904 142 926 135 918 z m 396 700 l 361 700 b 146 667 268 700 190 683 b 132 643 135 663 129 654 l 149 560 b 172 544 151 546 158 542 b 335 564 211 557 278 564 b 490 458 457 564 490 528 l 490 415 l 279 415 b 64 239 135 415 64 364 l 64 197 b 268 -7 64 69 128 -7 l 278 -7 b 475 92 372 -7 431 38 l 490 92 l 490 21 b 511 0 490 7 497 0 l 625 0 b 644 21 638 0 644 7 l 644 467 b 396 700 644 613 572 700 z m 360 126 l 301 126 b 215 204 247 126 215 147 l 215 231 b 300 304 215 290 247 304 l 490 304 l 490 242 b 360 126 490 186 443 126 z "},"æ":{"ha":1135,"x_min":0,"x_max":0,"o":"m 813 700 l 742 700 b 571 651 668 700 611 683 b 396 700 531 683 474 700 l 361 700 b 146 667 268 700 190 683 b 132 643 135 663 129 654 l 149 560 b 172 544 151 546 158 542 b 335 564 211 557 278 564 b 490 449 457 564 490 522 l 490 399 l 279 399 b 64 229 135 399 64 347 l 64 190 b 268 -7 64 65 128 -7 l 278 -7 b 521 104 381 -7 474 25 b 776 -7 560 35 640 -7 l 794 -7 b 1038 76 897 -7 990 29 b 1036 100 1043 82 1043 90 l 1000 154 b 974 161 994 164 985 167 b 794 125 935 142 890 125 l 781 125 b 644 236 686 125 644 171 l 644 285 l 1022 285 b 1064 326 1050 285 1064 300 l 1064 460 b 813 700 1064 608 985 700 z m 910 399 l 644 399 l 644 457 b 749 561 644 526 685 561 l 806 561 b 910 458 871 561 910 526 z m 490 242 b 360 126 490 186 443 126 l 301 126 b 215 194 247 126 215 142 l 215 219 b 300 285 215 274 247 285 l 490 285 z "},"b":{"ha":739,"x_min":0,"x_max":0,"o":"m 438 700 l 413 700 b 253 628 332 700 285 671 l 239 628 l 239 951 b 218 972 239 965 232 972 l 104 972 b 83 951 90 972 83 965 l 83 21 b 104 0 83 7 90 0 l 218 0 b 239 21 232 0 239 7 l 239 65 l 253 65 b 413 -7 285 22 332 -7 l 438 -7 b 669 228 593 -7 669 76 l 669 465 b 438 700 669 617 593 700 z m 515 240 b 410 132 515 171 475 132 l 343 132 b 239 240 279 132 239 171 l 239 453 b 343 561 239 522 279 561 l 410 561 b 515 453 475 561 515 524 z "},"c":{"ha":704,"x_min":0,"x_max":0,"o":"m 354 -7 l 365 -7 b 632 129 489 -7 586 26 b 618 158 638 142 633 151 l 543 193 b 511 185 526 201 518 196 b 368 128 485 142 451 128 l 357 128 b 225 249 265 128 225 171 l 225 457 b 328 561 225 526 264 561 l 389 561 b 493 474 453 561 493 531 l 493 465 b 513 444 493 451 500 444 l 621 444 b 640 465 633 444 640 451 l 640 474 b 396 700 640 613 556 700 l 322 700 b 71 458 149 700 71 608 l 71 235 b 354 -7 71 88 150 -7 z "},"ć":{"ha":704,"x_min":0,"x_max":0,"o":"m 376 947 l 300 788 b 314 763 292 771 299 763 l 410 763 b 443 788 424 763 433 774 l 567 947 b 553 972 579 963 568 972 l 406 972 b 376 947 392 972 385 964 z m 354 -7 l 365 -7 b 632 129 489 -7 586 26 b 618 158 638 142 633 151 l 543 193 b 511 185 526 201 518 196 b 368 128 485 142 451 128 l 357 128 b 225 249 265 128 225 171 l 225 457 b 328 561 225 526 264 561 l 389 561 b 493 474 453 561 493 531 l 493 465 b 513 444 493 451 500 444 l 621 444 b 640 465 633 444 640 451 l 640 474 b 396 700 640 613 556 700 l 322 700 b 71 458 149 700 71 608 l 71 235 b 354 -7 71 88 150 -7 z "},"č":{"ha":704,"x_min":0,"x_max":0,"o":"m 296 763 l 417 763 b 456 782 432 763 444 769 l 599 946 b 588 972 610 958 601 972 l 481 972 b 438 946 461 972 451 964 l 364 861 l 350 861 l 276 946 b 235 972 263 964 253 972 l 126 972 b 115 946 113 972 104 958 l 258 782 b 296 763 269 768 281 763 z m 354 -7 l 365 -7 b 632 129 489 -7 586 26 b 618 158 638 142 633 151 l 543 193 b 511 185 526 201 518 196 b 368 128 485 142 451 128 l 357 128 b 225 249 265 128 225 171 l 225 457 b 328 561 225 526 264 561 l 389 561 b 493 474 453 561 493 531 l 493 465 b 513 444 493 451 500 444 l 621 444 b 640 465 633 444 640 451 l 640 474 b 396 700 640 613 556 700 l 322 700 b 71 458 149 700 71 608 l 71 235 b 354 -7 71 88 150 -7 z "},"ç":{"ha":704,"x_min":0,"x_max":0,"o":"m 396 700 l 322 700 b 71 458 149 700 71 608 l 71 235 b 321 -6 71 96 142 4 b 268 -82 285 -42 268 -57 b 324 -131 268 -115 293 -128 b 465 -168 439 -142 465 -144 b 418 -193 465 -189 449 -193 l 390 -193 b 346 -168 363 -193 350 -183 b 331 -154 344 -160 339 -154 l 240 -154 b 226 -172 229 -154 226 -161 b 349 -285 226 -240 257 -285 l 451 -285 b 585 -167 542 -285 585 -242 b 456 -50 585 -81 549 -60 b 465 0 424 -47 396 -42 l 453 0 b 632 129 535 14 597 53 b 618 158 638 142 633 151 l 543 193 b 511 185 526 201 518 196 b 368 128 485 142 451 128 l 357 128 b 225 249 265 128 225 171 l 225 457 b 328 561 225 526 264 561 l 389 561 b 493 474 453 561 493 531 l 493 465 b 513 444 493 451 500 444 l 621 444 b 640 465 633 444 640 451 l 640 474 b 396 700 640 613 556 700 z "},"ĉ":{"ha":704,"x_min":0,"x_max":0,"o":"m 296 972 b 258 953 281 972 269 967 l 115 789 b 126 763 104 776 113 763 l 235 763 b 276 789 253 763 263 772 l 350 874 l 364 874 l 438 789 b 481 763 451 772 461 763 l 588 763 b 599 789 601 763 610 776 l 456 953 b 417 972 444 965 432 972 z m 354 -7 l 365 -7 b 632 129 489 -7 586 26 b 618 158 638 142 633 151 l 543 193 b 511 185 526 201 518 196 b 368 128 485 142 451 128 l 357 128 b 225 249 265 128 225 171 l 225 457 b 328 561 225 526 264 561 l 389 561 b 493 474 453 561 493 531 l 493 465 b 513 444 493 451 500 444 l 621 444 b 640 465 633 444 640 451 l 640 474 b 396 700 640 613 556 700 l 322 700 b 71 458 149 700 71 608 l 71 235 b 354 -7 71 88 150 -7 z "},"ċ":{"ha":704,"x_min":0,"x_max":0,"o":"m 297 813 l 417 813 b 436 832 431 813 436 818 l 436 951 b 417 972 436 965 431 972 l 297 972 b 276 951 283 972 276 965 l 276 832 b 297 813 276 818 283 813 z m 354 -7 l 365 -7 b 632 129 489 -7 586 26 b 618 158 638 142 633 151 l 543 193 b 511 185 526 201 518 196 b 368 128 485 142 451 128 l 357 128 b 225 249 265 128 225 171 l 225 457 b 328 561 225 526 264 561 l 389 561 b 493 474 453 561 493 531 l 493 465 b 513 444 493 451 500 444 l 621 444 b 640 465 633 444 640 451 l 640 474 b 396 700 640 613 556 700 l 322 700 b 71 458 149 700 71 608 l 71 235 b 354 -7 71 88 150 -7 z "},"d":{"ha":739,"x_min":0,"x_max":0,"o":"m 635 972 l 522 972 b 501 951 508 972 501 965 l 501 628 l 486 628 b 328 700 454 671 407 700 l 303 700 b 71 465 146 700 71 617 l 71 228 b 303 -7 71 76 146 -7 l 328 -7 b 486 65 407 -7 454 22 l 501 65 l 501 21 b 522 0 501 7 508 0 l 635 0 b 656 21 649 0 656 7 l 656 951 b 635 972 656 965 649 972 z m 396 132 l 331 132 b 225 240 265 132 225 171 l 225 453 b 331 561 225 524 265 561 l 396 561 b 501 453 461 561 501 522 l 501 240 b 396 132 501 171 461 132 z "},"ð":{"ha":740,"x_min":0,"x_max":0,"o":"m 758 926 l 656 926 l 656 951 b 635 972 656 965 649 972 l 522 972 b 501 951 508 972 501 965 l 501 867 l 315 760 l 468 760 l 501 779 l 501 628 l 486 628 b 328 700 454 671 407 700 l 303 700 b 71 465 146 700 71 617 l 71 228 b 303 -7 71 76 146 -7 l 328 -7 b 486 65 407 -7 454 22 l 501 65 l 501 21 b 522 0 501 7 508 0 l 635 0 b 656 21 649 0 656 7 l 656 868 z m 396 132 l 331 132 b 225 240 265 132 225 171 l 225 453 b 331 561 225 524 265 561 l 396 561 b 501 453 461 561 501 522 l 501 240 b 396 132 501 171 461 132 z "},"ď":{"ha":856,"x_min":0,"x_max":0,"o":"m 635 972 l 522 972 b 501 951 508 972 501 965 l 501 628 l 486 628 b 328 700 454 671 407 700 l 303 700 b 71 465 146 700 71 617 l 71 228 b 303 -7 71 76 146 -7 l 328 -7 b 486 65 407 -7 454 22 l 501 65 l 501 21 b 522 0 501 7 508 0 l 635 0 b 656 21 649 0 656 7 l 656 951 b 635 972 656 965 649 972 z m 897 972 l 801 972 b 782 951 788 972 782 965 l 782 721 l 725 721 b 704 700 711 721 704 714 l 704 613 b 725 592 704 599 711 592 l 871 592 b 918 639 901 592 918 607 l 918 951 b 897 972 918 965 911 972 z m 396 132 l 331 132 b 225 240 265 132 225 171 l 225 453 b 331 561 225 524 265 561 l 396 561 b 501 453 461 561 501 522 l 501 240 b 396 132 501 171 461 132 z "},"đ":{"ha":718,"x_min":0,"x_max":0,"o":"m 706 889 l 656 889 l 656 951 b 635 972 656 965 649 972 l 522 972 b 501 951 508 972 501 965 l 501 889 l 256 889 b 235 868 242 889 235 882 l 235 769 b 256 749 235 756 242 749 l 501 749 l 501 628 l 486 628 b 328 700 454 671 407 700 l 303 700 b 71 465 146 700 71 617 l 71 228 b 303 -7 71 76 146 -7 l 328 -7 b 486 65 407 -7 454 22 l 501 65 l 501 21 b 522 0 501 7 508 0 l 635 0 b 656 21 649 0 656 7 l 656 749 l 706 749 b 726 769 718 749 726 756 l 726 868 b 706 889 726 882 718 889 z m 396 132 l 331 132 b 225 240 265 132 225 171 l 225 453 b 331 561 225 524 265 561 l 396 561 b 501 453 461 561 501 522 l 501 240 b 396 132 501 171 461 132 z "},"e":{"ha":714,"x_min":0,"x_max":0,"o":"m 375 -7 b 617 76 478 -7 569 29 b 615 100 622 82 622 90 l 581 154 b 553 161 574 164 564 167 b 375 125 514 142 469 125 l 360 125 b 225 236 267 125 225 171 l 225 285 l 601 285 b 644 326 629 285 644 300 l 644 460 b 392 700 644 608 565 700 l 322 700 b 71 458 149 700 71 608 l 71 235 b 356 -7 71 90 149 -7 z m 225 399 l 225 457 b 328 561 225 526 264 561 l 386 561 b 489 458 450 561 489 526 l 489 399 z "},"é":{"ha":714,"x_min":0,"x_max":0,"o":"m 379 947 l 303 788 b 317 763 294 771 301 763 l 413 763 b 446 788 426 763 436 774 l 569 947 b 556 972 582 963 571 972 l 408 972 b 379 947 394 972 388 964 z m 375 -7 b 617 76 478 -7 569 29 b 615 100 622 82 622 90 l 581 154 b 553 161 574 164 564 167 b 375 125 514 142 469 125 l 360 125 b 225 236 267 125 225 171 l 225 285 l 601 285 b 644 326 629 285 644 300 l 644 460 b 392 700 644 608 565 700 l 322 700 b 71 458 149 700 71 608 l 71 235 b 356 -7 71 90 149 -7 z m 225 399 l 225 457 b 328 561 225 526 264 561 l 386 561 b 489 458 450 561 489 526 l 489 399 z "},"ě":{"ha":714,"x_min":0,"x_max":0,"o":"m 299 763 l 419 763 b 458 782 435 763 447 769 l 601 946 b 590 972 613 958 604 972 l 483 972 b 440 946 464 972 454 964 l 367 861 l 353 861 l 279 946 b 238 972 265 964 256 972 l 129 972 b 118 946 115 972 107 958 l 261 782 b 299 763 272 768 283 763 z m 375 -7 b 617 76 478 -7 569 29 b 615 100 622 82 622 90 l 581 154 b 553 161 574 164 564 167 b 375 125 514 142 469 125 l 360 125 b 225 236 267 125 225 171 l 225 285 l 601 285 b 644 326 629 285 644 300 l 644 460 b 392 700 644 608 565 700 l 322 700 b 71 458 149 700 71 608 l 71 235 b 356 -7 71 90 149 -7 z m 225 399 l 225 457 b 328 561 225 526 264 561 l 386 561 b 489 458 450 561 489 526 l 489 399 z "},"ȩ":{"ha":714,"x_min":0,"x_max":0,"o":"m 392 700 l 322 700 b 71 458 149 700 71 608 l 71 235 b 315 -6 71 100 139 7 b 261 -82 278 -42 261 -57 b 317 -131 261 -115 286 -128 b 458 -168 432 -142 458 -144 b 411 -193 458 -189 442 -193 l 383 -193 b 339 -168 356 -193 343 -183 b 324 -154 338 -160 332 -154 l 233 -154 b 219 -172 222 -154 219 -161 b 342 -285 219 -240 250 -285 l 444 -285 b 578 -167 535 -285 578 -242 b 449 -50 578 -81 542 -60 b 458 0 417 -47 389 -42 l 453 0 b 617 76 522 13 582 42 b 615 100 622 82 622 90 l 581 154 b 553 161 574 164 564 167 b 375 125 514 142 469 125 l 360 125 b 225 236 267 125 225 171 l 225 285 l 601 285 b 644 326 629 285 644 300 l 644 460 b 392 700 644 608 565 700 z m 489 399 l 225 399 l 225 457 b 328 561 225 526 264 561 l 386 561 b 489 458 450 561 489 526 z "},"ê":{"ha":714,"x_min":0,"x_max":0,"o":"m 299 972 b 261 953 283 972 272 967 l 118 789 b 129 763 107 776 115 763 l 238 763 b 279 789 256 763 265 772 l 353 874 l 367 874 l 440 789 b 483 763 454 772 464 763 l 590 763 b 601 789 604 763 613 776 l 458 953 b 419 972 447 965 435 972 z m 375 -7 b 617 76 478 -7 569 29 b 615 100 622 82 622 90 l 581 154 b 553 161 574 164 564 167 b 375 125 514 142 469 125 l 360 125 b 225 236 267 125 225 171 l 225 285 l 601 285 b 644 326 629 285 644 300 l 644 460 b 392 700 644 608 565 700 l 322 700 b 71 458 149 700 71 608 l 71 235 b 356 -7 71 90 149 -7 z m 225 399 l 225 457 b 328 561 225 526 264 561 l 386 561 b 489 458 450 561 489 526 l 489 399 z "},"ë":{"ha":714,"x_min":0,"x_max":0,"o":"m 101 813 l 221 813 b 240 832 235 813 240 818 l 240 951 b 221 972 240 965 235 972 l 101 972 b 81 951 88 972 81 965 l 81 832 b 101 813 81 818 88 813 z m 500 813 l 619 813 b 640 832 633 813 640 818 l 640 951 b 619 972 640 965 633 972 l 500 972 b 481 951 486 972 481 965 l 481 832 b 500 813 481 818 486 813 z m 375 -7 b 617 76 478 -7 569 29 b 615 100 622 82 622 90 l 581 154 b 553 161 574 164 564 167 b 375 125 514 142 469 125 l 360 125 b 225 236 267 125 225 171 l 225 285 l 601 285 b 644 326 629 285 644 300 l 644 460 b 392 700 644 608 565 700 l 322 700 b 71 458 149 700 71 608 l 71 235 b 356 -7 71 90 149 -7 z m 225 399 l 225 457 b 328 561 225 526 264 561 l 386 561 b 489 458 450 561 489 526 l 489 399 z "},"ė":{"ha":714,"x_min":0,"x_max":0,"o":"m 300 813 l 419 813 b 439 832 433 813 439 818 l 439 951 b 419 972 439 965 433 972 l 300 972 b 279 951 286 972 279 965 l 279 832 b 300 813 279 818 286 813 z m 375 -7 b 617 76 478 -7 569 29 b 615 100 622 82 622 90 l 581 154 b 553 161 574 164 564 167 b 375 125 514 142 469 125 l 360 125 b 225 236 267 125 225 171 l 225 285 l 601 285 b 644 326 629 285 644 300 l 644 460 b 392 700 644 608 565 700 l 322 700 b 71 458 149 700 71 608 l 71 235 b 356 -7 71 90 149 -7 z m 225 399 l 225 457 b 328 561 225 526 264 561 l 386 561 b 489 458 450 561 489 526 l 489 399 z "},"è":{"ha":714,"x_min":0,"x_max":0,"o":"m 349 947 b 319 972 339 964 333 972 l 171 972 b 157 947 156 972 144 963 l 281 788 b 314 763 290 774 300 763 l 410 763 b 424 788 425 763 432 771 z m 375 -7 b 617 76 478 -7 569 29 b 615 100 622 82 622 90 l 581 154 b 553 161 574 164 564 167 b 375 125 514 142 469 125 l 360 125 b 225 236 267 125 225 171 l 225 285 l 601 285 b 644 326 629 285 644 300 l 644 460 b 392 700 644 608 565 700 l 322 700 b 71 458 149 700 71 608 l 71 235 b 356 -7 71 90 149 -7 z m 225 399 l 225 457 b 328 561 225 526 264 561 l 386 561 b 489 458 450 561 489 526 l 489 399 z "},"ē":{"ha":714,"x_min":0,"x_max":0,"o":"m 135 832 l 585 832 b 606 853 597 832 606 839 l 606 951 b 585 972 606 965 597 972 l 135 972 b 114 951 121 972 114 965 l 114 853 b 135 832 114 839 121 832 z m 375 -7 b 617 76 478 -7 569 29 b 615 100 622 82 622 90 l 581 154 b 553 161 574 164 564 167 b 375 125 514 142 469 125 l 360 125 b 225 236 267 125 225 171 l 225 285 l 601 285 b 644 326 629 285 644 300 l 644 460 b 392 700 644 608 565 700 l 322 700 b 71 458 149 700 71 608 l 71 235 b 356 -7 71 90 149 -7 z m 225 399 l 225 457 b 328 561 225 526 264 561 l 386 561 b 489 458 450 561 489 526 l 489 399 z "},"ę":{"ha":714,"x_min":0,"x_max":0,"o":"m 392 700 l 322 700 b 71 458 149 700 71 608 l 71 235 b 332 -7 71 96 143 1 l 332 -10 b 285 -46 332 -40 318 -43 l 232 -51 b 129 -165 153 -60 129 -75 b 268 -286 129 -264 160 -286 l 453 -286 b 467 -272 463 -286 467 -281 l 467 -200 b 453 -183 467 -190 461 -183 l 296 -183 b 268 -162 274 -183 268 -178 b 289 -140 268 -146 272 -143 l 394 -128 b 486 -46 457 -119 486 -112 l 486 7 b 617 76 542 22 588 47 b 615 100 622 82 622 90 l 581 154 b 553 161 574 164 564 167 b 375 125 514 142 469 125 l 360 125 b 225 236 267 125 225 171 l 225 285 l 601 285 b 644 326 629 285 644 300 l 644 460 b 392 700 644 608 565 700 z m 489 399 l 225 399 l 225 457 b 328 561 225 526 264 561 l 386 561 b 489 458 450 561 489 526 z "},"f":{"ha":531,"x_min":0,"x_max":0,"o":"m 467 972 l 381 972 b 157 747 222 972 157 893 l 157 694 l 69 694 b 50 674 56 694 50 688 l 50 578 b 69 557 50 564 56 557 l 157 557 l 157 21 b 176 0 157 7 163 0 l 290 0 b 311 21 304 0 311 7 l 311 557 l 461 557 b 482 578 475 557 482 564 l 482 674 b 461 694 482 688 475 694 l 311 694 l 311 735 b 407 833 311 799 342 833 l 467 833 b 488 854 481 833 488 840 l 488 951 b 467 972 488 965 481 972 z "},"g":{"ha":732,"x_min":0,"x_max":0,"o":"m 357 -257 b 656 -11 560 -257 656 -194 l 656 674 b 635 694 656 688 649 694 l 521 694 b 501 674 510 694 501 688 l 501 628 l 486 628 b 328 700 454 671 407 700 l 303 700 b 71 465 146 700 71 617 l 71 228 b 303 -7 71 76 146 -7 l 328 -7 b 486 65 407 -7 454 22 l 501 65 l 501 -11 b 360 -126 501 -99 447 -126 b 232 -124 322 -126 276 -126 b 204 -147 214 -122 204 -132 l 204 -218 b 235 -247 204 -236 215 -243 b 357 -257 278 -256 325 -257 z m 331 132 b 225 240 265 132 225 171 l 225 453 b 331 561 225 524 265 561 l 396 561 b 501 453 461 561 501 522 l 501 240 b 396 132 501 171 461 132 z "},"ğ":{"ha":732,"x_min":0,"x_max":0,"o":"m 342 758 l 421 758 b 607 951 549 758 607 822 b 586 972 607 965 600 972 l 501 972 b 481 951 488 972 482 965 b 400 867 476 906 460 867 l 363 867 b 282 951 303 867 286 906 b 263 972 282 965 276 972 l 176 972 b 156 951 163 972 156 965 b 342 758 156 822 215 758 z m 357 -257 b 656 -11 560 -257 656 -194 l 656 674 b 635 694 656 688 649 694 l 521 694 b 501 674 510 694 501 688 l 501 628 l 486 628 b 328 700 454 671 407 700 l 303 700 b 71 465 146 700 71 617 l 71 228 b 303 -7 71 76 146 -7 l 328 -7 b 486 65 407 -7 454 22 l 501 65 l 501 -11 b 360 -126 501 -99 447 -126 b 232 -124 322 -126 276 -126 b 204 -147 214 -122 204 -132 l 204 -218 b 235 -247 204 -236 215 -243 b 357 -257 278 -256 325 -257 z m 331 132 b 225 240 265 132 225 171 l 225 453 b 331 561 225 524 265 561 l 396 561 b 501 453 461 561 501 522 l 501 240 b 396 132 501 171 461 132 z "},"ǧ":{"ha":732,"x_min":0,"x_max":0,"o":"m 321 763 l 442 763 b 481 782 457 763 469 769 l 624 946 b 613 972 635 958 626 972 l 506 972 b 463 946 486 972 476 964 l 389 861 l 375 861 l 301 946 b 260 972 288 964 278 972 l 151 972 b 140 946 138 972 129 958 l 283 782 b 321 763 294 768 306 763 z m 357 -257 b 656 -11 560 -257 656 -194 l 656 674 b 635 694 656 688 649 694 l 521 694 b 501 674 510 694 501 688 l 501 628 l 486 628 b 328 700 454 671 407 700 l 303 700 b 71 465 146 700 71 617 l 71 228 b 303 -7 71 76 146 -7 l 328 -7 b 486 65 407 -7 454 22 l 501 65 l 501 -11 b 360 -126 501 -99 447 -126 b 232 -124 322 -126 276 -126 b 204 -147 214 -122 204 -132 l 204 -218 b 235 -247 204 -236 215 -243 b 357 -257 278 -256 325 -257 z m 331 132 b 225 240 265 132 225 171 l 225 453 b 331 561 225 524 265 561 l 396 561 b 501 453 461 561 501 522 l 501 240 b 396 132 501 171 461 132 z "},"ĝ":{"ha":732,"x_min":0,"x_max":0,"o":"m 319 972 b 282 953 304 972 293 967 l 139 789 b 150 763 128 776 136 763 l 258 763 b 300 789 276 763 286 772 l 374 874 l 388 874 l 461 789 b 504 763 475 772 485 763 l 611 763 b 622 789 625 763 633 776 l 479 953 b 440 972 468 965 456 972 z m 357 -257 b 656 -11 560 -257 656 -194 l 656 674 b 635 694 656 688 649 694 l 521 694 b 501 674 510 694 501 688 l 501 628 l 486 628 b 328 700 454 671 407 700 l 303 700 b 71 465 146 700 71 617 l 71 228 b 303 -7 71 76 146 -7 l 328 -7 b 486 65 407 -7 454 22 l 501 65 l 501 -11 b 360 -126 501 -99 447 -126 b 232 -124 322 -126 276 -126 b 204 -147 214 -122 204 -132 l 204 -218 b 235 -247 204 -236 215 -243 b 357 -257 278 -256 325 -257 z m 331 132 b 225 240 265 132 225 171 l 225 453 b 331 561 225 524 265 561 l 396 561 b 501 453 461 561 501 522 l 501 240 b 396 132 501 171 461 132 z "},"ģ":{"ha":732,"x_min":0,"x_max":0,"o":"m 265 765 l 360 765 b 381 786 374 765 381 772 l 381 1017 l 438 1017 b 457 1038 451 1017 457 1024 l 457 1125 b 438 1146 457 1139 451 1146 l 292 1146 b 244 1099 260 1146 244 1131 l 244 786 b 265 765 244 772 251 765 z m 357 -257 b 656 -11 560 -257 656 -194 l 656 674 b 635 694 656 688 649 694 l 521 694 b 501 674 510 694 501 688 l 501 628 l 486 628 b 328 700 454 671 407 700 l 303 700 b 71 465 146 700 71 617 l 71 228 b 303 -7 71 76 146 -7 l 328 -7 b 486 65 407 -7 454 22 l 501 65 l 501 -11 b 360 -126 501 -99 447 -126 b 232 -124 322 -126 276 -126 b 204 -147 214 -122 204 -132 l 204 -218 b 235 -247 204 -236 215 -243 b 357 -257 278 -256 325 -257 z m 331 132 b 225 240 265 132 225 171 l 225 453 b 331 561 225 524 265 561 l 396 561 b 501 453 461 561 501 522 l 501 240 b 396 132 501 171 461 132 z "},"ġ":{"ha":732,"x_min":0,"x_max":0,"o":"m 322 813 l 442 813 b 461 832 456 813 461 818 l 461 951 b 442 972 461 965 456 972 l 322 972 b 301 951 308 972 301 965 l 301 832 b 322 813 301 818 308 813 z m 357 -257 b 656 -11 560 -257 656 -194 l 656 674 b 635 694 656 688 649 694 l 521 694 b 501 674 510 694 501 688 l 501 628 l 486 628 b 328 700 454 671 407 700 l 303 700 b 71 465 146 700 71 617 l 71 228 b 303 -7 71 76 146 -7 l 328 -7 b 486 65 407 -7 454 22 l 501 65 l 501 -11 b 360 -126 501 -99 447 -126 b 232 -124 322 -126 276 -126 b 204 -147 214 -122 204 -132 l 204 -218 b 235 -247 204 -236 215 -243 b 357 -257 278 -256 325 -257 z m 331 132 b 225 240 265 132 225 171 l 225 453 b 331 561 225 524 265 561 l 396 561 b 501 453 461 561 501 522 l 501 240 b 396 132 501 171 461 132 z "},"h":{"ha":753,"x_min":0,"x_max":0,"o":"m 450 700 l 426 700 b 257 622 349 700 289 671 l 239 622 l 239 951 b 218 972 239 965 232 972 l 104 972 b 85 951 90 972 85 965 l 85 21 b 104 0 85 7 90 0 l 219 0 l 224 0 b 239 21 233 3 239 8 l 239 451 b 353 561 239 522 283 561 l 413 561 b 515 451 479 561 515 524 l 515 21 b 536 0 515 7 522 0 l 650 0 b 669 21 660 0 669 7 l 669 465 b 450 700 669 617 607 700 z "},"ħ":{"ha":747,"x_min":0,"x_max":0,"o":"m 450 700 l 426 700 b 257 622 349 700 289 671 l 239 622 l 239 749 l 471 749 b 492 769 483 749 492 756 l 492 868 b 471 889 492 882 483 889 l 239 889 l 239 951 b 218 972 239 965 232 972 l 104 972 b 85 951 90 972 85 965 l 85 889 l 21 889 b 0 868 7 889 0 882 l 0 769 b 21 749 0 756 7 749 l 85 749 l 85 21 b 104 0 85 7 90 0 l 219 0 l 224 0 b 239 21 233 3 239 8 l 239 451 b 353 561 239 522 283 561 l 413 561 b 515 451 479 561 515 524 l 515 21 b 536 0 515 7 522 0 l 650 0 b 669 21 660 0 669 7 l 669 465 b 450 700 669 617 607 700 z "},"ĥ":{"ha":753,"x_min":0,"x_max":0,"o":"m 167 1151 l 240 1067 b 283 1040 254 1050 264 1040 l 390 1040 b 401 1067 404 1040 413 1054 l 258 1231 b 219 1250 247 1243 235 1250 l 99 1250 b 61 1231 83 1250 72 1244 l -82 1067 b -71 1040 -93 1054 -85 1040 l 38 1040 b 79 1067 56 1040 65 1050 l 153 1151 z m 450 700 l 426 700 b 257 622 349 700 289 671 l 239 622 l 239 951 b 218 972 239 965 232 972 l 104 972 b 85 951 90 972 85 965 l 85 21 b 104 0 85 7 90 0 l 219 0 l 224 0 b 239 21 233 3 239 8 l 239 451 b 353 561 239 522 283 561 l 413 561 b 515 451 479 561 515 524 l 515 21 b 536 0 515 7 522 0 l 650 0 b 669 21 660 0 669 7 l 669 465 b 450 700 669 617 607 700 z "},"i":{"ha":322,"x_min":0,"x_max":0,"o":"m 104 824 l 218 824 b 239 844 232 824 239 831 l 239 951 b 218 972 239 965 232 972 l 104 972 b 85 951 90 972 85 965 l 85 844 b 104 824 85 831 90 824 z m 104 0 l 218 0 b 239 21 232 0 239 7 l 239 674 b 218 694 239 688 232 694 l 104 694 b 85 674 90 694 85 688 l 85 21 b 104 0 85 7 90 0 z "},"ı":{"ha":307,"x_min":0,"x_max":0,"o":"m 97 0 l 210 0 b 231 21 224 0 231 7 l 231 674 b 210 694 231 688 224 694 l 97 694 b 76 674 83 694 76 688 l 76 21 b 97 0 76 7 83 0 z "},"í":{"ha":307,"x_min":0,"x_max":0,"o":"m 171 947 l 94 788 b 108 763 86 771 93 763 l 204 763 b 238 788 218 763 228 774 l 361 947 b 347 972 374 963 363 972 l 200 972 b 171 947 186 972 179 964 z m 97 0 l 210 0 b 231 21 224 0 231 7 l 231 674 b 210 694 231 688 224 694 l 97 694 b 76 674 83 694 76 688 l 76 21 b 97 0 76 7 83 0 z "},"ǐ":{"ha":307,"x_min":0,"x_max":0,"o":"m 90 763 l 211 763 b 250 782 226 763 239 769 l 393 946 b 382 972 404 958 396 972 l 275 972 b 232 946 256 972 246 964 l 158 861 l 144 861 l 71 946 b 29 972 57 964 47 972 l -79 972 b -90 946 -93 972 -101 958 l 53 782 b 90 763 64 768 75 763 z m 97 0 l 210 0 b 231 21 224 0 231 7 l 231 674 b 210 694 231 688 224 694 l 97 694 b 76 674 83 694 76 688 l 76 21 b 97 0 76 7 83 0 z "},"î":{"ha":307,"x_min":0,"x_max":0,"o":"m 89 972 b 51 953 74 972 63 967 l -92 789 b -81 763 -103 776 -94 763 l 28 763 b 69 789 46 763 56 772 l 143 874 l 157 874 l 231 789 b 274 763 244 772 254 763 l 381 763 b 392 789 394 763 403 776 l 249 953 b 210 972 238 965 225 972 z m 97 0 l 210 0 b 231 21 224 0 231 7 l 231 674 b 210 694 231 688 224 694 l 97 694 b 76 674 83 694 76 688 l 76 21 b 97 0 76 7 83 0 z "},"ï":{"ha":307,"x_min":0,"x_max":0,"o":"m -107 813 l 13 813 b 32 832 26 813 32 818 l 32 951 b 13 972 32 965 26 972 l -107 972 b -128 951 -121 972 -128 965 l -128 832 b -107 813 -128 818 -121 813 z m 292 813 l 411 813 b 432 832 425 813 432 818 l 432 951 b 411 972 432 965 425 972 l 292 972 b 272 951 278 972 272 965 l 272 832 b 292 813 272 818 278 813 z m 97 0 l 210 0 b 231 21 224 0 231 7 l 231 674 b 210 694 231 688 224 694 l 97 694 b 76 674 83 694 76 688 l 76 21 b 97 0 76 7 83 0 z "},"ì":{"ha":307,"x_min":0,"x_max":0,"o":"m 140 947 b 111 972 131 964 125 972 l -37 972 b -51 947 -53 972 -64 963 l 72 788 b 106 763 82 774 92 763 l 201 763 b 215 788 217 763 224 771 z m 97 0 l 210 0 b 231 21 224 0 231 7 l 231 674 b 210 694 231 688 224 694 l 97 694 b 76 674 83 694 76 688 l 76 21 b 97 0 76 7 83 0 z "},"ĳ":{"ha":657,"x_min":0,"x_max":0,"o":"m 104 824 l 218 824 b 239 844 232 824 239 831 l 239 951 b 218 972 239 965 232 972 l 104 972 b 85 951 90 972 85 965 l 85 844 b 104 824 85 831 90 824 z m 439 824 l 553 824 b 574 844 567 824 574 831 l 574 951 b 553 972 574 965 567 972 l 439 972 b 418 951 425 972 418 965 l 418 844 b 439 824 418 831 425 824 z m 104 0 l 218 0 b 239 21 232 0 239 7 l 239 674 b 218 694 239 688 232 694 l 104 694 b 85 674 90 694 85 688 l 85 21 b 104 0 85 7 90 0 z m 383 -260 b 574 -37 547 -260 574 -169 l 574 674 b 553 694 574 688 567 694 l 439 694 b 418 674 425 694 418 688 l 418 -39 b 338 -124 418 -101 393 -124 b 303 -156 311 -124 303 -133 l 303 -215 b 383 -260 303 -246 321 -260 z "},"ī":{"ha":307,"x_min":0,"x_max":0,"o":"m -74 832 l 376 832 b 397 853 389 832 397 839 l 397 951 b 376 972 397 965 389 972 l -74 972 b -94 951 -87 972 -94 965 l -94 853 b -74 832 -94 839 -87 832 z m 97 0 l 210 0 b 231 21 224 0 231 7 l 231 674 b 210 694 231 688 224 694 l 97 694 b 76 674 83 694 76 688 l 76 21 b 97 0 76 7 83 0 z "},"į":{"ha":307,"x_min":0,"x_max":0,"o":"m 211 972 l 92 972 b 71 951 78 972 71 965 l 71 832 b 92 813 71 818 78 813 l 211 813 b 231 832 225 813 231 818 l 231 951 b 211 972 231 965 225 972 z m 210 694 l 97 694 b 76 674 83 694 76 688 l 76 -10 b 29 -46 76 -40 63 -43 l -24 -51 b -126 -165 -103 -60 -126 -75 b 13 -286 -126 -264 -96 -286 l 197 -286 b 211 -272 207 -286 211 -281 l 211 -200 b 197 -183 211 -190 206 -183 l 40 -183 b 13 -162 18 -183 13 -178 b 33 -140 13 -146 17 -143 l 139 -128 b 231 -46 201 -119 231 -112 l 231 674 b 210 694 231 688 224 694 z "},"j":{"ha":335,"x_min":0,"x_max":0,"o":"m 117 824 l 231 824 b 251 844 244 824 251 831 l 251 951 b 231 972 251 965 244 972 l 117 972 b 96 951 103 972 96 965 l 96 844 b 117 824 96 831 103 824 z m 61 -260 b 251 -37 225 -260 251 -169 l 251 674 b 231 694 251 688 244 694 l 117 694 b 96 674 103 694 96 688 l 96 -39 b 15 -124 96 -101 71 -124 b -21 -156 -11 -124 -21 -133 l -21 -215 b 61 -260 -21 -246 -1 -260 z "},"ȷ":{"ha":328,"x_min":0,"x_max":0,"o":"m 54 -260 b 243 -37 218 -260 243 -169 l 243 674 b 222 694 243 688 236 694 l 110 694 b 89 674 96 694 89 688 l 89 -39 b 7 -124 89 -101 64 -124 b -28 -156 -18 -124 -28 -133 l -28 -215 b 54 -260 -28 -246 -10 -260 z "},"ĵ":{"ha":328,"x_min":0,"x_max":0,"o":"m 107 972 b 69 953 92 972 81 967 l -74 789 b -62 763 -85 776 -76 763 l 46 763 b 88 789 64 763 74 772 l 161 874 l 175 874 l 249 789 b 292 763 263 772 272 763 l 399 763 b 410 789 413 763 421 776 l 267 953 b 228 972 256 965 243 972 z m 54 -260 b 243 -37 218 -260 243 -169 l 243 674 b 222 694 243 688 236 694 l 110 694 b 89 674 96 694 89 688 l 89 -39 b 7 -124 89 -101 64 -124 b -28 -156 -18 -124 -28 -133 l -28 -215 b 54 -260 -28 -246 -10 -260 z "},"k":{"ha":735,"x_min":0,"x_max":0,"o":"m 694 32 l 422 408 l 667 653 b 657 694 690 675 674 694 l 539 694 b 503 676 524 694 514 688 l 239 408 l 239 951 b 218 972 239 965 232 972 l 104 972 b 85 951 90 972 85 965 l 85 21 b 104 0 85 7 90 0 l 218 0 b 239 21 232 0 239 7 l 239 225 l 321 307 l 526 24 b 571 0 539 7 551 0 l 676 0 b 694 32 699 0 707 17 z "},"ķ":{"ha":735,"x_min":0,"x_max":0,"o":"m 694 32 l 422 408 l 667 653 b 657 694 690 675 674 694 l 539 694 b 503 676 524 694 514 688 l 239 408 l 239 951 b 218 972 239 965 232 972 l 104 972 b 85 951 90 972 85 965 l 85 21 b 104 0 85 7 90 0 l 218 0 b 239 21 232 0 239 7 l 239 225 l 321 307 l 526 24 b 571 0 539 7 551 0 l 676 0 b 694 32 699 0 707 17 z m 368 -83 l 272 -83 b 253 -104 258 -83 253 -90 l 253 -335 l 196 -335 b 175 -356 182 -335 175 -342 l 175 -443 b 196 -464 175 -457 182 -464 l 342 -464 b 389 -417 372 -464 389 -449 l 389 -104 b 368 -83 389 -90 382 -83 z "},"l":{"ha":322,"x_min":0,"x_max":0,"o":"m 104 0 l 218 0 b 239 21 232 0 239 7 l 239 951 b 218 972 239 965 232 972 l 104 972 b 85 951 90 972 85 965 l 85 21 b 104 0 85 7 90 0 z "},"ĺ":{"ha":322,"x_min":0,"x_max":0,"o":"m 181 1225 l 104 1065 b 118 1040 96 1049 103 1040 l 214 1040 b 247 1065 228 1040 238 1051 l 371 1225 b 357 1250 383 1240 372 1250 l 210 1250 b 181 1225 196 1250 189 1242 z m 104 0 l 218 0 b 239 21 232 0 239 7 l 239 951 b 218 972 239 965 232 972 l 104 972 b 85 951 90 972 85 965 l 85 21 b 104 0 85 7 90 0 z "},"ľ":{"ha":475,"x_min":0,"x_max":0,"o":"m 104 0 l 218 0 b 239 21 232 0 239 7 l 239 951 b 218 972 239 965 232 972 l 104 972 b 85 951 90 972 85 965 l 85 21 b 104 0 85 7 90 0 z m 489 972 l 394 972 b 374 951 381 972 374 965 l 374 721 l 317 721 b 297 700 303 721 297 714 l 297 613 b 317 592 297 599 303 592 l 463 592 b 510 639 494 592 510 607 l 510 951 b 489 972 510 965 503 972 z "},"ļ":{"ha":322,"x_min":0,"x_max":0,"o":"m 104 0 l 218 0 b 239 21 232 0 239 7 l 239 951 b 218 972 239 965 232 972 l 104 972 b 85 951 90 972 85 965 l 85 21 b 104 0 85 7 90 0 z m 207 -83 l 111 -83 b 92 -104 97 -83 92 -90 l 92 -335 l 35 -335 b 14 -356 21 -335 14 -342 l 14 -443 b 35 -464 14 -457 21 -464 l 181 -464 b 228 -417 211 -464 228 -449 l 228 -104 b 207 -83 228 -90 221 -83 z "},"ŀ":{"ha":429,"x_min":0,"x_max":0,"o":"m 104 0 l 218 0 b 239 21 232 0 239 7 l 239 951 b 218 972 239 965 232 972 l 104 972 b 85 951 90 972 85 965 l 85 21 b 104 0 85 7 90 0 z m 322 331 l 442 331 b 463 351 456 331 463 338 l 463 471 b 442 490 463 485 456 490 l 322 490 b 301 471 308 490 301 485 l 301 351 b 322 331 301 338 308 331 z "},"ł":{"ha":388,"x_min":0,"x_max":0,"o":"m 376 657 l 271 657 l 271 951 b 250 972 271 965 264 972 l 136 972 b 117 951 124 972 117 965 l 117 524 l -1 399 b 11 374 -14 386 -6 374 l 117 374 l 117 21 b 136 0 117 7 124 0 l 250 0 b 271 21 264 0 271 7 l 271 508 l 388 632 b 376 657 400 646 393 657 z "},"m":{"ha":1144,"x_min":0,"x_max":0,"o":"m 844 700 l 815 700 b 631 614 736 700 663 669 l 618 614 b 446 700 586 671 531 700 l 424 700 b 257 622 346 700 289 671 l 239 622 l 239 674 b 219 694 239 688 229 694 l 104 694 b 85 674 90 694 85 688 l 85 21 b 104 0 85 7 90 0 l 219 0 b 239 21 229 0 239 7 l 239 451 b 347 561 239 522 281 561 l 390 561 b 494 451 457 561 494 524 l 494 21 b 515 0 494 7 501 0 l 631 0 b 649 21 640 0 649 7 l 649 451 b 757 561 649 522 692 561 l 801 561 b 906 451 867 561 906 524 l 906 21 b 926 0 906 7 913 0 l 1040 0 b 1060 21 1051 0 1060 7 l 1060 465 b 844 700 1060 617 999 700 z "},"ḿ":{"ha":1144,"x_min":0,"x_max":0,"o":"m 536 763 l 632 763 b 665 788 646 763 656 774 l 789 947 b 775 972 801 963 790 972 l 628 972 b 599 947 614 972 607 964 l 522 788 b 536 763 514 771 521 763 z m 844 700 l 815 700 b 631 614 736 700 663 669 l 618 614 b 446 700 586 671 531 700 l 424 700 b 257 622 346 700 289 671 l 239 622 l 239 674 b 219 694 239 688 229 694 l 104 694 b 85 674 90 694 85 688 l 85 21 b 104 0 85 7 90 0 l 219 0 b 239 21 229 0 239 7 l 239 451 b 347 561 239 522 281 561 l 390 561 b 494 451 457 561 494 524 l 494 21 b 515 0 494 7 501 0 l 631 0 b 649 21 640 0 649 7 l 649 451 b 757 561 649 522 692 561 l 801 561 b 906 451 867 561 906 524 l 906 21 b 926 0 906 7 913 0 l 1040 0 b 1060 21 1051 0 1060 7 l 1060 465 b 844 700 1060 617 999 700 z "},"n":{"ha":753,"x_min":0,"x_max":0,"o":"m 104 0 l 219 0 b 239 21 229 0 239 7 l 239 451 b 353 561 239 522 283 561 l 413 561 b 515 451 479 561 515 524 l 515 21 b 536 0 515 7 522 0 l 650 0 b 669 21 660 0 669 7 l 669 465 b 450 700 669 617 607 700 l 426 700 b 257 622 349 700 289 671 l 239 622 l 239 674 b 219 694 239 688 229 694 l 104 694 b 85 674 90 694 85 688 l 85 21 b 104 0 85 7 90 0 z "},"ń":{"ha":753,"x_min":0,"x_max":0,"o":"m 396 947 l 319 788 b 333 763 311 771 318 763 l 429 763 b 463 788 443 763 453 774 l 586 947 b 572 972 599 963 588 972 l 425 972 b 396 947 411 972 404 964 z m 104 0 l 219 0 b 239 21 229 0 239 7 l 239 451 b 353 561 239 522 283 561 l 413 561 b 515 451 479 561 515 524 l 515 21 b 536 0 515 7 522 0 l 650 0 b 669 21 660 0 669 7 l 669 465 b 450 700 669 617 607 700 l 426 700 b 257 622 349 700 289 671 l 239 622 l 239 674 b 219 694 239 688 229 694 l 104 694 b 85 674 90 694 85 688 l 85 21 b 104 0 85 7 90 0 z "},"ň":{"ha":753,"x_min":0,"x_max":0,"o":"m 315 763 l 436 763 b 475 782 451 763 464 769 l 618 946 b 607 972 629 958 621 972 l 500 972 b 457 946 481 972 471 964 l 383 861 l 369 861 l 296 946 b 254 972 282 964 272 972 l 146 972 b 135 946 132 972 124 958 l 278 782 b 315 763 289 768 300 763 z m 104 0 l 219 0 b 239 21 229 0 239 7 l 239 451 b 353 561 239 522 283 561 l 413 561 b 515 451 479 561 515 524 l 515 21 b 536 0 515 7 522 0 l 650 0 b 669 21 660 0 669 7 l 669 465 b 450 700 669 617 607 700 l 426 700 b 257 622 349 700 289 671 l 239 622 l 239 674 b 219 694 239 688 229 694 l 104 694 b 85 674 90 694 85 688 l 85 21 b 104 0 85 7 90 0 z "},"ņ":{"ha":753,"x_min":0,"x_max":0,"o":"m 104 0 l 219 0 b 239 21 229 0 239 7 l 239 451 b 353 561 239 522 283 561 l 413 561 b 515 451 479 561 515 524 l 515 21 b 536 0 515 7 522 0 l 650 0 b 669 21 660 0 669 7 l 669 465 b 450 700 669 617 607 700 l 426 700 b 257 622 349 700 289 671 l 239 622 l 239 674 b 219 694 239 688 229 694 l 104 694 b 85 674 90 694 85 688 l 85 21 b 104 0 85 7 90 0 z m 422 -83 l 326 -83 b 307 -104 313 -83 307 -90 l 307 -335 l 250 -335 b 229 -356 236 -335 229 -342 l 229 -443 b 250 -464 229 -457 236 -464 l 396 -464 b 443 -417 426 -464 443 -449 l 443 -104 b 422 -83 443 -90 436 -83 z "},"ŋ":{"ha":753,"x_min":0,"x_max":0,"o":"m 450 700 l 426 700 b 257 622 349 700 289 671 l 239 622 l 239 674 b 219 694 239 688 229 694 l 104 694 b 85 674 90 694 85 688 l 85 21 b 104 0 85 7 90 0 l 219 0 b 239 21 229 0 239 7 l 239 451 b 353 561 239 522 283 561 l 413 561 b 515 451 479 561 515 524 l 515 231 l 507 231 l 507 -64 b 426 -149 507 -128 482 -149 b 390 -181 400 -149 390 -160 l 390 -242 b 472 -285 390 -272 410 -285 b 661 -62 636 -285 661 -196 l 661 3 b 669 21 667 7 669 13 l 669 465 b 450 700 669 617 607 700 z "},"ñ":{"ha":753,"x_min":0,"x_max":0,"o":"m 471 786 b 604 832 515 786 557 797 b 617 861 615 840 622 847 l 583 942 b 558 949 579 950 571 956 b 475 921 525 929 507 921 b 283 979 403 921 379 979 b 150 935 239 979 197 969 b 138 904 139 926 132 918 l 171 824 b 196 818 175 815 183 810 b 279 844 228 838 247 844 b 471 786 351 844 375 786 z m 104 0 l 219 0 b 239 21 229 0 239 7 l 239 451 b 353 561 239 522 283 561 l 413 561 b 515 451 479 561 515 524 l 515 21 b 536 0 515 7 522 0 l 650 0 b 669 21 660 0 669 7 l 669 465 b 450 700 669 617 607 700 l 426 700 b 257 622 349 700 289 671 l 239 622 l 239 674 b 219 694 239 688 229 694 l 104 694 b 85 674 90 694 85 688 l 85 21 b 104 0 85 7 90 0 z "},"o":{"ha":725,"x_min":0,"x_max":0,"o":"m 322 -7 l 404 -7 b 656 233 576 -7 656 85 l 656 460 b 404 700 656 608 576 700 l 322 700 b 71 460 149 700 71 608 l 71 233 b 322 -7 71 85 149 -7 z m 328 132 b 225 236 264 132 225 167 l 225 457 b 328 561 225 526 264 561 l 397 561 b 501 457 463 561 501 526 l 501 236 b 397 132 501 167 463 132 z "},"ó":{"ha":725,"x_min":0,"x_max":0,"o":"m 382 947 l 306 788 b 319 763 297 771 304 763 l 415 763 b 449 788 429 763 439 774 l 572 947 b 558 972 585 963 574 972 l 411 972 b 382 947 397 972 390 964 z m 322 -7 l 404 -7 b 656 233 576 -7 656 85 l 656 460 b 404 700 656 608 576 700 l 322 700 b 71 460 149 700 71 608 l 71 233 b 322 -7 71 85 149 -7 z m 328 132 b 225 236 264 132 225 167 l 225 457 b 328 561 225 526 264 561 l 397 561 b 501 457 463 561 501 526 l 501 236 b 397 132 501 167 463 132 z "},"ǒ":{"ha":725,"x_min":0,"x_max":0,"o":"m 301 763 l 422 763 b 461 782 438 763 450 769 l 604 946 b 593 972 615 958 607 972 l 486 972 b 443 946 467 972 457 964 l 369 861 l 356 861 l 282 946 b 240 972 268 964 258 972 l 132 972 b 121 946 118 972 110 958 l 264 782 b 301 763 275 768 286 763 z m 322 -7 l 404 -7 b 656 233 576 -7 656 85 l 656 460 b 404 700 656 608 576 700 l 322 700 b 71 460 149 700 71 608 l 71 233 b 322 -7 71 85 149 -7 z m 328 132 b 225 236 264 132 225 167 l 225 457 b 328 561 225 526 264 561 l 397 561 b 501 457 463 561 501 526 l 501 236 b 397 132 501 167 463 132 z "},"ô":{"ha":725,"x_min":0,"x_max":0,"o":"m 301 972 b 264 953 286 972 275 967 l 121 789 b 132 763 110 776 118 763 l 240 763 b 282 789 258 763 268 772 l 356 874 l 369 874 l 443 789 b 486 763 457 772 467 763 l 593 763 b 604 789 607 763 615 776 l 461 953 b 422 972 450 965 438 972 z m 322 -7 l 404 -7 b 656 233 576 -7 656 85 l 656 460 b 404 700 656 608 576 700 l 322 700 b 71 460 149 700 71 608 l 71 233 b 322 -7 71 85 149 -7 z m 328 132 b 225 236 264 132 225 167 l 225 457 b 328 561 225 526 264 561 l 397 561 b 501 457 463 561 501 526 l 501 236 b 397 132 501 167 463 132 z "},"ö":{"ha":725,"x_min":0,"x_max":0,"o":"m 104 813 l 224 813 b 243 832 238 813 243 818 l 243 951 b 224 972 243 965 238 972 l 104 972 b 83 951 90 972 83 965 l 83 832 b 104 813 83 818 90 813 z m 503 813 l 622 813 b 643 832 636 813 643 818 l 643 951 b 622 972 643 965 636 972 l 503 972 b 483 951 489 972 483 965 l 483 832 b 503 813 483 818 489 813 z m 322 -7 l 404 -7 b 656 233 576 -7 656 85 l 656 460 b 404 700 656 608 576 700 l 322 700 b 71 460 149 700 71 608 l 71 233 b 322 -7 71 85 149 -7 z m 328 132 b 225 236 264 132 225 167 l 225 457 b 328 561 225 526 264 561 l 397 561 b 501 457 463 561 501 526 l 501 236 b 397 132 501 167 463 132 z "},"ò":{"ha":725,"x_min":0,"x_max":0,"o":"m 351 947 b 322 972 342 964 336 972 l 174 972 b 160 947 158 972 147 963 l 283 788 b 317 763 293 774 303 763 l 413 763 b 426 788 428 763 435 771 z m 322 -7 l 404 -7 b 656 233 576 -7 656 85 l 656 460 b 404 700 656 608 576 700 l 322 700 b 71 460 149 700 71 608 l 71 233 b 322 -7 71 85 149 -7 z m 328 132 b 225 236 264 132 225 167 l 225 457 b 328 561 225 526 264 561 l 397 561 b 501 457 463 561 501 526 l 501 236 b 397 132 501 167 463 132 z "},"ő":{"ha":725,"x_min":0,"x_max":0,"o":"m 251 947 l 175 788 b 189 763 167 771 174 763 l 285 763 b 318 788 299 763 308 774 l 442 947 b 428 972 454 963 443 972 l 281 972 b 251 947 267 972 260 964 z m 503 947 l 426 788 b 440 763 418 771 425 763 l 538 763 b 569 788 551 763 560 774 l 694 947 b 681 972 707 963 696 972 l 532 972 b 503 947 518 972 511 964 z m 322 -7 l 404 -7 b 656 233 576 -7 656 85 l 656 460 b 404 700 656 608 576 700 l 322 700 b 71 460 149 700 71 608 l 71 233 b 322 -7 71 85 149 -7 z m 328 132 b 225 236 264 132 225 167 l 225 457 b 328 561 225 526 264 561 l 397 561 b 501 457 463 561 501 526 l 501 236 b 397 132 501 167 463 132 z "},"ō":{"ha":725,"x_min":0,"x_max":0,"o":"m 138 832 l 588 832 b 608 853 600 832 608 839 l 608 951 b 588 972 608 965 600 972 l 138 972 b 117 951 124 972 117 965 l 117 853 b 138 832 117 839 124 832 z m 322 -7 l 404 -7 b 656 233 576 -7 656 85 l 656 460 b 404 700 656 608 576 700 l 322 700 b 71 460 149 700 71 608 l 71 233 b 322 -7 71 85 149 -7 z m 328 132 b 225 236 264 132 225 167 l 225 457 b 328 561 225 526 264 561 l 397 561 b 501 457 463 561 501 526 l 501 236 b 397 132 501 167 463 132 z "},"ø":{"ha":725,"x_min":0,"x_max":0,"o":"m 579 649 l 599 688 b 585 708 606 701 599 708 l 503 708 b 479 693 490 708 483 703 b 404 700 456 697 431 700 l 322 700 b 71 460 149 700 71 608 l 71 233 b 149 43 71 150 96 83 l 126 0 b 140 -21 119 -14 126 -21 l 222 -21 b 250 -1 236 -21 243 -14 b 322 -7 272 -4 296 -7 l 404 -7 b 656 233 576 -7 656 85 l 656 460 b 579 649 656 543 631 608 z m 225 236 l 225 457 b 328 561 225 526 264 561 l 397 561 l 411 561 l 229 201 b 225 236 226 213 225 224 z m 501 236 b 397 132 501 167 463 132 l 328 132 l 317 132 l 499 489 b 501 457 500 479 501 468 z "},"õ":{"ha":725,"x_min":0,"x_max":0,"o":"m 457 786 b 590 832 501 786 543 797 b 603 861 601 840 608 847 l 569 942 b 544 949 565 950 557 956 b 461 921 511 929 493 921 b 269 979 389 921 365 979 b 136 935 225 979 183 969 b 124 904 125 926 118 918 l 157 824 b 182 818 161 815 169 810 b 265 844 214 838 233 844 b 457 786 338 844 361 786 z m 322 -7 l 404 -7 b 656 233 576 -7 656 85 l 656 460 b 404 700 656 608 576 700 l 322 700 b 71 460 149 700 71 608 l 71 233 b 322 -7 71 85 149 -7 z m 328 132 b 225 236 264 132 225 167 l 225 457 b 328 561 225 526 264 561 l 397 561 b 501 457 463 561 501 526 l 501 236 b 397 132 501 167 463 132 z "},"œ":{"ha":1144,"x_min":0,"x_max":0,"o":"m 824 700 l 753 700 b 579 650 678 700 619 682 b 404 700 538 682 481 700 l 322 700 b 71 460 149 700 71 608 l 71 233 b 322 -7 71 85 149 -7 l 404 -7 b 582 46 482 -7 542 13 b 788 -7 628 13 694 -7 l 806 -7 b 1049 76 908 -7 1000 29 b 1047 100 1054 82 1054 90 l 1011 154 b 983 161 1004 164 996 167 b 806 125 944 142 900 125 l 790 125 b 656 236 697 125 656 171 l 656 285 l 1033 285 b 1075 326 1061 285 1075 300 l 1075 460 b 824 700 1075 608 996 700 z m 397 132 l 328 132 b 225 236 264 132 225 167 l 225 457 b 328 561 225 526 264 561 l 397 561 b 501 457 463 561 501 526 l 501 236 b 397 132 501 167 463 132 z m 921 399 l 656 399 l 656 457 b 760 561 656 526 694 561 l 817 561 b 921 458 882 561 921 526 z "},"p":{"ha":739,"x_min":0,"x_max":0,"o":"m 438 700 l 413 700 b 253 628 332 700 285 671 l 239 628 l 239 674 b 218 694 239 688 232 694 l 104 694 b 85 674 90 694 85 688 l 85 -225 b 104 -246 85 -239 90 -246 l 218 -246 b 239 -225 232 -246 239 -239 l 239 65 l 253 65 b 413 -7 285 22 332 -7 l 438 -7 b 669 228 593 -7 669 76 l 669 465 b 438 700 669 617 593 700 z m 515 240 b 410 132 515 171 475 132 l 343 132 b 239 240 279 132 239 171 l 239 453 b 343 561 239 522 279 561 l 410 561 b 515 453 475 561 515 524 z "},"þ":{"ha":739,"x_min":0,"x_max":0,"o":"m 438 700 l 413 700 b 253 628 332 700 285 671 l 239 628 l 239 951 b 218 972 239 965 232 972 l 104 972 b 83 951 90 972 83 965 l 83 21 b 85 11 83 17 83 14 l 85 -225 b 104 -246 85 -239 90 -246 l 218 -246 b 239 -225 232 -246 239 -239 l 239 65 l 253 65 b 413 -7 285 22 332 -7 l 438 -7 b 669 228 593 -7 669 76 l 669 465 b 438 700 669 617 593 700 z m 515 240 b 410 132 515 171 475 132 l 343 132 b 239 240 279 132 239 171 l 239 453 b 343 561 239 522 279 561 l 410 561 b 515 453 475 561 515 524 z "},"q":{"ha":739,"x_min":0,"x_max":0,"o":"m 303 700 b 69 465 146 700 69 617 l 69 228 b 303 -7 69 76 146 -7 l 328 -7 b 486 65 407 -7 454 22 l 501 65 l 501 -225 b 522 -246 501 -239 508 -246 l 635 -246 b 656 -225 649 -246 656 -239 l 656 674 b 635 694 656 688 649 694 l 522 694 b 501 674 508 694 501 688 l 501 628 l 486 628 b 328 700 454 671 407 700 z m 225 240 l 225 453 b 329 561 225 524 265 561 l 396 561 b 501 453 461 561 501 522 l 501 240 b 396 132 501 171 461 132 l 329 132 b 225 240 265 132 225 171 z "},"r":{"ha":669,"x_min":0,"x_max":0,"o":"m 104 0 l 219 0 b 239 21 229 0 239 7 l 239 451 b 353 561 239 522 283 561 l 385 561 b 481 463 453 561 481 524 b 501 442 481 449 488 442 l 601 442 b 621 463 613 442 621 449 l 621 499 b 439 700 621 631 572 700 l 422 700 b 257 622 346 700 289 671 l 239 622 l 239 674 b 219 694 239 688 229 694 l 104 694 b 85 674 90 694 85 688 l 85 21 b 104 0 85 7 90 0 z "},"ŕ":{"ha":669,"x_min":0,"x_max":0,"o":"m 375 947 l 299 788 b 313 763 290 771 297 763 l 408 763 b 442 788 422 763 432 774 l 565 947 b 551 972 578 963 567 972 l 404 972 b 375 947 390 972 383 964 z m 104 0 l 219 0 b 239 21 229 0 239 7 l 239 451 b 353 561 239 522 283 561 l 385 561 b 481 463 453 561 481 524 b 501 442 481 449 488 442 l 601 442 b 621 463 613 442 621 449 l 621 499 b 439 700 621 631 572 700 l 422 700 b 257 622 346 700 289 671 l 239 622 l 239 674 b 219 694 239 688 229 694 l 104 694 b 85 674 90 694 85 688 l 85 21 b 104 0 85 7 90 0 z "},"ř":{"ha":669,"x_min":0,"x_max":0,"o":"m 294 763 l 415 763 b 454 782 431 763 443 769 l 597 946 b 586 972 608 958 600 972 l 479 972 b 436 946 460 972 450 964 l 363 861 l 349 861 l 275 946 b 233 972 261 964 251 972 l 125 972 b 114 946 111 972 103 958 l 257 782 b 294 763 268 768 279 763 z m 104 0 l 219 0 b 239 21 229 0 239 7 l 239 451 b 353 561 239 522 283 561 l 385 561 b 481 463 453 561 481 524 b 501 442 481 449 488 442 l 601 442 b 621 463 613 442 621 449 l 621 499 b 439 700 621 631 572 700 l 422 700 b 257 622 346 700 289 671 l 239 622 l 239 674 b 219 694 239 688 229 694 l 104 694 b 85 674 90 694 85 688 l 85 21 b 104 0 85 7 90 0 z "},"ŗ":{"ha":669,"x_min":0,"x_max":0,"o":"m 104 0 l 219 0 b 239 21 229 0 239 7 l 239 451 b 353 561 239 522 283 561 l 385 561 b 481 463 453 561 481 524 b 501 442 481 449 488 442 l 601 442 b 621 463 613 442 621 449 l 621 499 b 439 700 621 631 572 700 l 422 700 b 257 622 346 700 289 671 l 239 622 l 239 674 b 219 694 239 688 229 694 l 104 694 b 85 674 90 694 85 688 l 85 21 b 104 0 85 7 90 0 z m 207 -83 l 111 -83 b 92 -104 97 -83 92 -90 l 92 -335 l 35 -335 b 14 -356 21 -335 14 -342 l 14 -443 b 35 -464 14 -457 21 -464 l 181 -464 b 228 -417 211 -464 228 -449 l 228 -104 b 207 -83 228 -90 221 -83 z "},"s":{"ha":688,"x_min":0,"x_max":0,"o":"m 308 -7 l 369 -7 b 625 206 535 -7 625 53 b 375 408 625 347 551 389 l 325 414 b 219 496 244 422 219 449 b 308 568 219 544 249 568 l 361 568 b 457 496 422 568 450 543 b 489 474 460 479 472 474 l 588 474 b 610 496 604 474 610 482 b 378 700 610 628 518 700 l 303 700 b 65 493 160 700 65 642 b 307 285 65 367 128 304 l 357 281 b 469 200 440 271 469 251 b 369 125 469 151 439 125 l 318 125 b 218 189 258 125 228 143 b 194 207 215 200 210 207 l 83 207 b 64 182 69 207 64 197 b 308 -7 64 56 153 -7 z "},"ś":{"ha":688,"x_min":0,"x_max":0,"o":"m 358 947 l 282 788 b 296 763 274 771 281 763 l 392 763 b 425 788 406 763 415 774 l 549 947 b 535 972 561 963 550 972 l 388 972 b 358 947 374 972 367 964 z m 308 -7 l 369 -7 b 625 206 535 -7 625 53 b 375 408 625 347 551 389 l 325 414 b 219 496 244 422 219 449 b 308 568 219 544 249 568 l 361 568 b 457 496 422 568 450 543 b 489 474 460 479 472 474 l 588 474 b 610 496 604 474 610 482 b 378 700 610 628 518 700 l 303 700 b 65 493 160 700 65 642 b 307 285 65 367 128 304 l 357 281 b 469 200 440 271 469 251 b 369 125 469 151 439 125 l 318 125 b 218 189 258 125 228 143 b 194 207 215 200 210 207 l 83 207 b 64 182 69 207 64 197 b 308 -7 64 56 153 -7 z "},"š":{"ha":688,"x_min":0,"x_max":0,"o":"m 278 763 l 399 763 b 438 782 414 763 426 769 l 581 946 b 569 972 592 958 583 972 l 463 972 b 419 946 443 972 433 964 l 346 861 l 332 861 l 258 946 b 217 972 244 964 235 972 l 108 972 b 97 946 94 972 86 958 l 240 782 b 278 763 251 768 263 763 z m 308 -7 l 369 -7 b 625 206 535 -7 625 53 b 375 408 625 347 551 389 l 325 414 b 219 496 244 422 219 449 b 308 568 219 544 249 568 l 361 568 b 457 496 422 568 450 543 b 489 474 460 479 472 474 l 588 474 b 610 496 604 474 610 482 b 378 700 610 628 518 700 l 303 700 b 65 493 160 700 65 642 b 307 285 65 367 128 304 l 357 281 b 469 200 440 271 469 251 b 369 125 469 151 439 125 l 318 125 b 218 189 258 125 228 143 b 194 207 215 200 210 207 l 83 207 b 64 182 69 207 64 197 b 308 -7 64 56 153 -7 z "},"ş":{"ha":688,"x_min":0,"x_max":0,"o":"m 443 -3 b 625 206 561 15 625 78 b 375 408 625 347 551 389 l 325 414 b 219 496 244 422 219 449 b 308 568 219 544 249 568 l 361 568 b 457 496 422 568 450 543 b 489 474 460 479 472 474 l 588 474 b 610 496 604 474 610 482 b 378 700 610 628 518 700 l 303 700 b 65 493 160 700 65 642 b 307 285 65 367 128 304 l 357 281 b 469 200 440 271 469 251 b 369 125 469 151 439 125 l 318 125 b 218 189 258 125 228 143 b 194 207 215 200 210 207 l 83 207 b 64 182 69 207 64 197 b 303 -7 64 57 150 -6 b 250 -82 267 -42 250 -57 b 306 -131 250 -115 275 -128 b 447 -168 421 -142 447 -144 b 400 -193 447 -189 431 -193 l 372 -193 b 328 -168 344 -193 332 -183 b 313 -154 326 -160 321 -154 l 222 -154 b 208 -172 211 -154 208 -161 b 331 -285 208 -240 239 -285 l 433 -285 b 567 -167 524 -285 567 -242 b 438 -50 567 -81 531 -60 b 443 -3 406 -47 379 -42 z "},"ŝ":{"ha":688,"x_min":0,"x_max":0,"o":"m 278 972 b 240 953 263 972 251 967 l 97 789 b 108 763 86 776 94 763 l 217 763 b 258 789 235 763 244 772 l 332 874 l 346 874 l 419 789 b 463 763 433 772 443 763 l 569 763 b 581 789 583 763 592 776 l 438 953 b 399 972 426 965 414 972 z m 308 -7 l 369 -7 b 625 206 535 -7 625 53 b 375 408 625 347 551 389 l 325 414 b 219 496 244 422 219 449 b 308 568 219 544 249 568 l 361 568 b 457 496 422 568 450 543 b 489 474 460 479 472 474 l 588 474 b 610 496 604 474 610 482 b 378 700 610 628 518 700 l 303 700 b 65 493 160 700 65 642 b 307 285 65 367 128 304 l 357 281 b 469 200 440 271 469 251 b 369 125 469 151 439 125 l 318 125 b 218 189 258 125 228 143 b 194 207 215 200 210 207 l 83 207 b 64 182 69 207 64 197 b 308 -7 64 56 153 -7 z "},"ș":{"ha":688,"x_min":0,"x_max":0,"o":"m 308 -7 l 369 -7 b 625 206 535 -7 625 53 b 375 408 625 347 551 389 l 325 414 b 219 496 244 422 219 449 b 308 568 219 544 249 568 l 361 568 b 457 496 422 568 450 543 b 489 474 460 479 472 474 l 588 474 b 610 496 604 474 610 482 b 378 700 610 628 518 700 l 303 700 b 65 493 160 700 65 642 b 307 285 65 367 128 304 l 357 281 b 469 200 440 271 469 251 b 369 125 469 151 439 125 l 318 125 b 218 189 258 125 228 143 b 194 207 215 200 210 207 l 83 207 b 64 182 69 207 64 197 b 308 -7 64 56 153 -7 z m 385 -83 l 289 -83 b 269 -104 275 -83 269 -90 l 269 -335 l 213 -335 b 192 -356 199 -335 192 -342 l 192 -443 b 213 -464 192 -457 199 -464 l 358 -464 b 406 -417 389 -464 406 -449 l 406 -104 b 385 -83 406 -90 399 -83 z "},"ß":{"ha":814,"x_min":0,"x_max":0,"o":"m 104 0 l 218 0 b 239 21 232 0 239 7 l 239 735 b 342 840 239 804 278 840 l 444 840 b 549 735 510 840 549 804 l 549 679 b 444 586 549 613 514 586 l 410 586 b 388 565 394 586 388 579 l 388 471 b 410 449 388 456 394 449 l 444 449 b 589 325 539 449 589 414 l 589 257 b 446 138 589 160 550 138 l 410 138 b 388 115 394 138 388 131 l 388 22 b 410 0 388 7 394 0 l 446 0 b 743 257 653 0 743 50 l 743 325 b 596 514 743 438 686 494 l 596 529 b 703 679 686 553 703 619 l 703 738 b 451 979 703 886 631 979 l 336 979 b 85 738 157 979 85 886 l 85 21 b 104 0 85 7 90 0 z "},"t":{"ha":492,"x_min":0,"x_max":0,"o":"m 414 694 l 308 694 l 308 831 b 288 851 308 844 301 851 l 174 851 b 153 831 160 851 153 844 l 153 694 l 64 694 b 43 672 49 694 43 688 l 43 579 b 64 557 43 564 49 557 l 153 557 l 153 215 b 343 -7 153 82 179 -7 b 424 36 406 -7 424 7 l 424 97 b 389 129 424 118 415 129 b 308 214 333 129 308 150 l 308 557 l 414 557 b 435 579 428 557 435 564 l 435 672 b 414 694 435 688 428 694 z "},"ŧ":{"ha":492,"x_min":0,"x_max":0,"o":"m 414 557 b 435 579 428 557 435 564 l 435 672 b 414 694 435 688 428 694 l 308 694 l 308 831 b 288 851 308 844 301 851 l 174 851 b 153 831 160 851 153 844 l 153 694 l 64 694 b 43 672 49 694 43 688 l 43 579 b 64 557 43 564 49 557 l 153 557 l 153 476 l 64 476 b 43 454 49 476 43 469 l 43 361 b 64 339 43 346 49 339 l 153 339 l 153 215 b 343 -7 153 82 179 -7 b 424 36 406 -7 424 7 l 424 97 b 389 129 424 118 415 129 b 308 214 333 129 308 150 l 308 339 l 414 339 b 435 361 428 339 435 346 l 435 454 b 414 476 435 469 428 476 l 308 476 l 308 557 z "},"ť":{"ha":471,"x_min":0,"x_max":0,"o":"m 546 1125 l 451 1125 b 431 1104 438 1125 431 1118 l 431 874 l 374 874 b 354 853 360 874 354 867 l 354 765 b 374 744 354 751 360 744 l 519 744 b 567 792 551 744 567 760 l 567 1104 b 546 1125 567 1118 560 1125 z m 414 694 l 308 694 l 308 831 b 288 851 308 844 301 851 l 174 851 b 153 831 160 851 153 844 l 153 694 l 64 694 b 43 672 49 694 43 688 l 43 579 b 64 557 43 564 49 557 l 153 557 l 153 215 b 343 -7 153 82 179 -7 b 424 36 406 -7 424 7 l 424 97 b 389 129 424 118 415 129 b 308 214 333 129 308 150 l 308 557 l 414 557 b 435 579 428 557 435 564 l 435 672 b 414 694 435 688 428 694 z "},"ţ":{"ha":468,"x_min":0,"x_max":0,"o":"m 375 -44 b 365 -6 346 -42 319 -37 b 424 36 410 -3 424 11 l 424 97 b 389 129 424 118 415 129 b 308 214 333 129 308 150 l 308 557 l 414 557 b 435 579 428 557 435 564 l 435 672 b 414 694 435 688 428 694 l 308 694 l 308 831 b 288 851 308 844 301 851 l 174 851 b 153 831 160 851 153 844 l 153 694 l 64 694 b 43 672 49 694 43 688 l 43 579 b 64 557 43 564 49 557 l 153 557 l 153 215 b 254 6 153 111 169 35 l 247 6 b 188 -76 204 -35 188 -50 b 243 -125 188 -110 213 -122 b 385 -162 358 -136 385 -139 b 338 -187 385 -183 367 -187 l 310 -187 b 265 -162 282 -187 268 -178 b 250 -149 264 -154 258 -149 l 160 -149 b 146 -167 149 -149 146 -156 b 268 -279 146 -235 176 -279 l 369 -279 b 504 -161 460 -279 504 -236 b 375 -44 504 -75 467 -54 z "},"ț":{"ha":492,"x_min":0,"x_max":0,"o":"m 414 694 l 308 694 l 308 831 b 288 851 308 844 301 851 l 174 851 b 153 831 160 851 153 844 l 153 694 l 64 694 b 43 672 49 694 43 688 l 43 579 b 64 557 43 564 49 557 l 153 557 l 153 215 b 343 -7 153 82 179 -7 b 424 36 406 -7 424 7 l 424 97 b 389 129 424 118 415 129 b 308 214 333 129 308 150 l 308 557 l 414 557 b 435 579 428 557 435 564 l 435 672 b 414 694 435 688 428 694 z m 324 -83 l 228 -83 b 208 -104 214 -83 208 -90 l 208 -335 l 151 -335 b 131 -356 138 -335 131 -342 l 131 -443 b 151 -464 131 -457 138 -464 l 297 -464 b 344 -417 328 -464 344 -449 l 344 -104 b 324 -83 344 -90 338 -83 z "},"u":{"ha":754,"x_min":0,"x_max":0,"o":"m 649 694 l 535 694 b 515 674 524 694 515 688 l 515 243 b 401 133 515 172 469 133 l 342 133 b 239 243 275 133 239 172 l 239 674 b 218 694 239 688 232 694 l 103 694 b 83 674 93 694 83 688 l 83 229 b 303 -6 83 78 146 -6 l 328 -6 b 496 74 406 -6 465 24 l 515 74 l 515 21 b 535 0 515 7 524 0 l 649 0 b 669 21 663 0 669 7 l 669 674 b 649 694 669 688 663 694 z "},"ú":{"ha":754,"x_min":0,"x_max":0,"o":"m 385 947 l 308 788 b 322 763 300 771 307 763 l 418 763 b 451 788 432 763 442 774 l 575 947 b 561 972 588 963 576 972 l 414 972 b 385 947 400 972 393 964 z m 649 694 l 535 694 b 515 674 524 694 515 688 l 515 243 b 401 133 515 172 469 133 l 342 133 b 239 243 275 133 239 172 l 239 674 b 218 694 239 688 232 694 l 103 694 b 83 674 93 694 83 688 l 83 229 b 303 -6 83 78 146 -6 l 328 -6 b 496 74 406 -6 465 24 l 515 74 l 515 21 b 535 0 515 7 524 0 l 649 0 b 669 21 663 0 669 7 l 669 674 b 649 694 669 688 663 694 z "},"ŭ":{"ha":754,"x_min":0,"x_max":0,"o":"m 325 758 l 404 758 b 590 951 532 758 590 822 b 569 972 590 965 583 972 l 485 972 b 464 951 471 972 465 965 b 383 867 460 906 443 867 l 346 867 b 265 951 286 867 269 906 b 246 972 265 965 260 972 l 160 972 b 139 951 146 972 139 965 b 325 758 139 822 199 758 z m 649 694 l 535 694 b 515 674 524 694 515 688 l 515 243 b 401 133 515 172 469 133 l 342 133 b 239 243 275 133 239 172 l 239 674 b 218 694 239 688 232 694 l 103 694 b 83 674 93 694 83 688 l 83 229 b 303 -6 83 78 146 -6 l 328 -6 b 496 74 406 -6 465 24 l 515 74 l 515 21 b 535 0 515 7 524 0 l 649 0 b 669 21 663 0 669 7 l 669 674 b 649 694 669 688 663 694 z "},"ǔ":{"ha":754,"x_min":0,"x_max":0,"o":"m 304 763 l 425 763 b 464 782 440 763 453 769 l 607 946 b 596 972 618 958 610 972 l 489 972 b 446 946 469 972 460 964 l 372 861 l 358 861 l 285 946 b 243 972 271 964 261 972 l 135 972 b 124 946 121 972 113 958 l 267 782 b 304 763 278 768 289 763 z m 649 694 l 535 694 b 515 674 524 694 515 688 l 515 243 b 401 133 515 172 469 133 l 342 133 b 239 243 275 133 239 172 l 239 674 b 218 694 239 688 232 694 l 103 694 b 83 674 93 694 83 688 l 83 229 b 303 -6 83 78 146 -6 l 328 -6 b 496 74 406 -6 465 24 l 515 74 l 515 21 b 535 0 515 7 524 0 l 649 0 b 669 21 663 0 669 7 l 669 674 b 649 694 669 688 663 694 z "},"û":{"ha":754,"x_min":0,"x_max":0,"o":"m 303 972 b 265 953 288 972 276 967 l 122 789 b 133 763 111 776 119 763 l 242 763 b 283 789 260 763 269 772 l 357 874 l 371 874 l 444 789 b 488 763 458 772 468 763 l 594 763 b 606 789 608 763 617 776 l 463 953 b 424 972 451 965 439 972 z m 649 694 l 535 694 b 515 674 524 694 515 688 l 515 243 b 401 133 515 172 469 133 l 342 133 b 239 243 275 133 239 172 l 239 674 b 218 694 239 688 232 694 l 103 694 b 83 674 93 694 83 688 l 83 229 b 303 -6 83 78 146 -6 l 328 -6 b 496 74 406 -6 465 24 l 515 74 l 515 21 b 535 0 515 7 524 0 l 649 0 b 669 21 663 0 669 7 l 669 674 b 649 694 669 688 663 694 z "},"ü":{"ha":754,"x_min":0,"x_max":0,"o":"m 106 813 l 225 813 b 244 832 239 813 244 818 l 244 951 b 225 972 244 965 239 972 l 106 972 b 85 951 92 972 85 965 l 85 832 b 106 813 85 818 92 813 z m 504 813 l 624 813 b 644 832 638 813 644 818 l 644 951 b 624 972 644 965 638 972 l 504 972 b 485 951 490 972 485 965 l 485 832 b 504 813 485 818 490 813 z m 649 694 l 535 694 b 515 674 524 694 515 688 l 515 243 b 401 133 515 172 469 133 l 342 133 b 239 243 275 133 239 172 l 239 674 b 218 694 239 688 232 694 l 103 694 b 83 674 93 694 83 688 l 83 229 b 303 -6 83 78 146 -6 l 328 -6 b 496 74 406 -6 465 24 l 515 74 l 515 21 b 535 0 515 7 524 0 l 649 0 b 669 21 663 0 669 7 l 669 674 b 649 694 669 688 663 694 z "},"ù":{"ha":754,"x_min":0,"x_max":0,"o":"m 353 947 b 324 972 343 964 338 972 l 175 972 b 161 947 160 972 149 963 l 285 788 b 318 763 294 774 304 763 l 414 763 b 428 788 429 763 436 771 z m 649 694 l 535 694 b 515 674 524 694 515 688 l 515 243 b 401 133 515 172 469 133 l 342 133 b 239 243 275 133 239 172 l 239 674 b 218 694 239 688 232 694 l 103 694 b 83 674 93 694 83 688 l 83 229 b 303 -6 83 78 146 -6 l 328 -6 b 496 74 406 -6 465 24 l 515 74 l 515 21 b 535 0 515 7 524 0 l 649 0 b 669 21 663 0 669 7 l 669 674 b 649 694 669 688 663 694 z "},"ű":{"ha":754,"x_min":0,"x_max":0,"o":"m 253 947 l 176 788 b 190 763 168 771 175 763 l 286 763 b 319 788 300 763 310 774 l 443 947 b 429 972 456 963 444 972 l 282 972 b 253 947 268 972 261 964 z m 504 947 l 428 788 b 442 763 419 771 426 763 l 539 763 b 571 788 553 763 561 774 l 696 947 b 682 972 708 963 697 972 l 533 972 b 504 947 519 972 513 964 z m 649 694 l 535 694 b 515 674 524 694 515 688 l 515 243 b 401 133 515 172 469 133 l 342 133 b 239 243 275 133 239 172 l 239 674 b 218 694 239 688 232 694 l 103 694 b 83 674 93 694 83 688 l 83 229 b 303 -6 83 78 146 -6 l 328 -6 b 496 74 406 -6 465 24 l 515 74 l 515 21 b 535 0 515 7 524 0 l 649 0 b 669 21 663 0 669 7 l 669 674 b 649 694 669 688 663 694 z "},"ū":{"ha":754,"x_min":0,"x_max":0,"o":"m 140 832 l 590 832 b 611 853 603 832 611 839 l 611 951 b 590 972 611 965 603 972 l 140 972 b 119 951 126 972 119 965 l 119 853 b 140 832 119 839 126 832 z m 649 694 l 535 694 b 515 674 524 694 515 688 l 515 243 b 401 133 515 172 469 133 l 342 133 b 239 243 275 133 239 172 l 239 674 b 218 694 239 688 232 694 l 103 694 b 83 674 93 694 83 688 l 83 229 b 303 -6 83 78 146 -6 l 328 -6 b 496 74 406 -6 465 24 l 515 74 l 515 21 b 535 0 515 7 524 0 l 649 0 b 669 21 663 0 669 7 l 669 674 b 649 694 669 688 663 694 z "},"ų":{"ha":754,"x_min":0,"x_max":0,"o":"m 649 694 l 535 694 b 515 674 524 694 515 688 l 515 243 b 401 133 515 172 469 133 l 342 133 b 239 243 275 133 239 172 l 239 674 b 218 694 239 688 232 694 l 103 694 b 83 674 93 694 83 688 l 83 229 b 303 -6 83 78 146 -6 l 328 -6 b 496 74 406 -6 465 24 l 515 74 l 515 28 l 493 28 l 493 -10 b 446 -46 493 -40 479 -43 l 393 -51 b 290 -165 314 -60 290 -75 b 429 -286 290 -264 321 -286 l 614 -286 b 628 -272 624 -286 628 -281 l 628 -200 b 614 -183 628 -190 622 -183 l 457 -183 b 429 -162 435 -183 429 -178 b 450 -140 429 -146 433 -143 l 556 -128 b 647 -46 618 -119 647 -112 l 647 0 l 649 0 b 669 21 663 0 669 7 l 669 674 b 649 694 669 688 663 694 z "},"ů":{"ha":754,"x_min":0,"x_max":0,"o":"m 374 994 l 356 994 b 239 878 288 994 239 943 l 239 863 b 356 747 239 797 288 747 l 374 747 b 490 863 442 747 490 797 l 490 878 b 374 994 490 943 442 994 z m 406 876 l 406 867 b 371 832 406 847 392 832 l 358 832 b 325 867 339 832 325 847 l 325 876 b 358 910 325 896 339 910 l 371 910 b 406 876 392 910 406 896 z m 649 694 l 535 694 b 515 674 524 694 515 688 l 515 243 b 401 133 515 172 469 133 l 342 133 b 239 243 275 133 239 172 l 239 674 b 218 694 239 688 232 694 l 103 694 b 83 674 93 694 83 688 l 83 229 b 303 -6 83 78 146 -6 l 328 -6 b 496 74 406 -6 465 24 l 515 74 l 515 21 b 535 0 515 7 524 0 l 649 0 b 669 21 663 0 669 7 l 669 674 b 649 694 669 688 663 694 z "},"ũ":{"ha":754,"x_min":0,"x_max":0,"o":"m 460 786 b 593 832 504 786 546 797 b 606 861 604 840 611 847 l 572 942 b 547 949 568 950 560 956 b 464 921 514 929 496 921 b 272 979 392 921 368 979 b 139 935 228 979 186 969 b 126 904 128 926 121 918 l 160 824 b 185 818 164 815 172 810 b 268 844 217 838 236 844 b 460 786 340 844 364 786 z m 649 694 l 535 694 b 515 674 524 694 515 688 l 515 243 b 401 133 515 172 469 133 l 342 133 b 239 243 275 133 239 172 l 239 674 b 218 694 239 688 232 694 l 103 694 b 83 674 93 694 83 688 l 83 229 b 303 -6 83 78 146 -6 l 328 -6 b 496 74 406 -6 465 24 l 515 74 l 515 21 b 535 0 515 7 524 0 l 649 0 b 669 21 663 0 669 7 l 669 674 b 649 694 669 688 663 694 z "},"v":{"ha":733,"x_min":0,"x_max":0,"o":"m 278 0 l 456 0 b 489 28 472 0 483 8 l 683 671 b 667 694 688 686 681 694 l 551 694 b 528 671 538 694 532 686 l 372 146 l 361 146 l 207 671 b 182 694 203 686 196 694 l 67 694 b 51 671 53 694 47 686 l 246 28 b 278 0 251 8 261 0 z "},"w":{"ha":1079,"x_min":0,"x_max":0,"o":"m 231 0 l 400 0 b 432 28 417 0 428 8 l 536 458 l 543 458 l 647 28 b 679 0 651 8 663 0 l 849 0 b 881 28 865 0 876 8 l 1029 671 b 1014 694 1032 686 1028 694 l 901 694 b 876 671 888 694 879 686 l 764 146 l 756 146 l 626 671 b 601 694 622 686 615 694 l 478 694 b 453 671 464 694 457 686 l 324 146 l 315 146 l 203 671 b 178 694 200 686 192 694 l 65 694 b 50 671 51 694 47 686 l 199 28 b 231 0 203 8 214 0 z "},"ẃ":{"ha":1079,"x_min":0,"x_max":0,"o":"m 558 947 l 482 788 b 496 763 474 771 481 763 l 592 763 b 625 788 606 763 615 774 l 749 947 b 735 972 761 963 750 972 l 588 972 b 558 947 574 972 567 964 z m 231 0 l 400 0 b 432 28 417 0 428 8 l 536 458 l 543 458 l 647 28 b 679 0 651 8 663 0 l 849 0 b 881 28 865 0 876 8 l 1029 671 b 1014 694 1032 686 1028 694 l 901 694 b 876 671 888 694 879 686 l 764 146 l 756 146 l 626 671 b 601 694 622 686 615 694 l 478 694 b 453 671 464 694 457 686 l 324 146 l 315 146 l 203 671 b 178 694 200 686 192 694 l 65 694 b 50 671 51 694 47 686 l 199 28 b 231 0 203 8 214 0 z "},"ŵ":{"ha":1079,"x_min":0,"x_max":0,"o":"m 478 972 b 440 953 463 972 451 967 l 297 789 b 308 763 286 776 294 763 l 417 763 b 458 789 435 763 444 772 l 532 874 l 546 874 l 619 789 b 663 763 633 772 643 763 l 769 763 b 781 789 783 763 792 776 l 638 953 b 599 972 626 965 614 972 z m 231 0 l 400 0 b 432 28 417 0 428 8 l 536 458 l 543 458 l 647 28 b 679 0 651 8 663 0 l 849 0 b 881 28 865 0 876 8 l 1029 671 b 1014 694 1032 686 1028 694 l 901 694 b 876 671 888 694 879 686 l 764 146 l 756 146 l 626 671 b 601 694 622 686 615 694 l 478 694 b 453 671 464 694 457 686 l 324 146 l 315 146 l 203 671 b 178 694 200 686 192 694 l 65 694 b 50 671 51 694 47 686 l 199 28 b 231 0 203 8 214 0 z "},"ẅ":{"ha":1079,"x_min":0,"x_max":0,"o":"m 281 813 l 400 813 b 419 832 414 813 419 818 l 419 951 b 400 972 419 965 414 972 l 281 972 b 260 951 267 972 260 965 l 260 832 b 281 813 260 818 267 813 z m 679 813 l 799 813 b 819 832 813 813 819 818 l 819 951 b 799 972 819 965 813 972 l 679 972 b 660 951 665 972 660 965 l 660 832 b 679 813 660 818 665 813 z m 231 0 l 400 0 b 432 28 417 0 428 8 l 536 458 l 543 458 l 647 28 b 679 0 651 8 663 0 l 849 0 b 881 28 865 0 876 8 l 1029 671 b 1014 694 1032 686 1028 694 l 901 694 b 876 671 888 694 879 686 l 764 146 l 756 146 l 626 671 b 601 694 622 686 615 694 l 478 694 b 453 671 464 694 457 686 l 324 146 l 315 146 l 203 671 b 178 694 200 686 192 694 l 65 694 b 50 671 51 694 47 686 l 199 28 b 231 0 203 8 214 0 z "},"ẁ":{"ha":1079,"x_min":0,"x_max":0,"o":"m 528 947 b 499 972 518 964 513 972 l 350 972 b 336 947 335 972 324 963 l 460 788 b 493 763 469 774 479 763 l 589 763 b 603 788 604 763 611 771 z m 231 0 l 400 0 b 432 28 417 0 428 8 l 536 458 l 543 458 l 647 28 b 679 0 651 8 663 0 l 849 0 b 881 28 865 0 876 8 l 1029 671 b 1014 694 1032 686 1028 694 l 901 694 b 876 671 888 694 879 686 l 764 146 l 756 146 l 626 671 b 601 694 622 686 615 694 l 478 694 b 453 671 464 694 457 686 l 324 146 l 315 146 l 203 671 b 178 694 200 686 192 694 l 65 694 b 50 671 51 694 47 686 l 199 28 b 231 0 203 8 214 0 z "},"x":{"ha":665,"x_min":0,"x_max":0,"o":"m 69 0 l 186 0 b 217 25 197 0 207 4 l 326 221 l 338 221 l 446 25 b 478 0 457 4 467 0 l 594 0 b 610 26 613 0 618 13 l 426 347 l 611 668 b 597 694 619 682 614 694 l 481 694 b 449 669 468 694 460 690 l 338 474 l 326 474 l 217 669 b 183 694 206 690 196 694 l 68 694 b 54 668 51 694 46 682 l 239 347 l 54 26 b 69 0 46 13 51 0 z "},"y":{"ha":765,"x_min":0,"x_max":0,"o":"m 699 694 l 583 694 b 560 671 569 694 565 686 l 389 186 l 378 186 l 207 671 b 182 694 201 686 196 694 l 67 694 b 51 671 53 694 46 686 l 306 -11 l 226 -222 b 243 -246 221 -237 229 -246 l 357 -246 b 382 -222 371 -246 376 -237 l 715 671 b 699 694 721 686 713 694 z "},"ý":{"ha":765,"x_min":0,"x_max":0,"o":"m 403 947 l 326 788 b 340 763 318 771 325 763 l 436 763 b 469 788 450 763 460 774 l 593 947 b 579 972 606 963 594 972 l 432 972 b 403 947 418 972 411 964 z m 699 694 l 583 694 b 560 671 569 694 565 686 l 389 186 l 378 186 l 207 671 b 182 694 201 686 196 694 l 67 694 b 51 671 53 694 46 686 l 306 -11 l 226 -222 b 243 -246 221 -237 229 -246 l 357 -246 b 382 -222 371 -246 376 -237 l 715 671 b 699 694 721 686 713 694 z "},"ŷ":{"ha":765,"x_min":0,"x_max":0,"o":"m 321 972 b 283 953 306 972 294 967 l 140 789 b 151 763 129 776 138 763 l 260 763 b 301 789 278 763 288 772 l 375 874 l 389 874 l 463 789 b 506 763 476 772 486 763 l 613 763 b 624 789 626 763 635 776 l 481 953 b 442 972 469 965 457 972 z m 699 694 l 583 694 b 560 671 569 694 565 686 l 389 186 l 378 186 l 207 671 b 182 694 201 686 196 694 l 67 694 b 51 671 53 694 46 686 l 306 -11 l 226 -222 b 243 -246 221 -237 229 -246 l 357 -246 b 382 -222 371 -246 376 -237 l 715 671 b 699 694 721 686 713 694 z "},"ÿ":{"ha":765,"x_min":0,"x_max":0,"o":"m 125 813 l 244 813 b 264 832 258 813 264 818 l 264 951 b 244 972 264 965 258 972 l 125 972 b 104 951 111 972 104 965 l 104 832 b 125 813 104 818 111 813 z m 524 813 l 643 813 b 664 832 657 813 664 818 l 664 951 b 643 972 664 965 657 972 l 524 972 b 504 951 510 972 504 965 l 504 832 b 524 813 504 818 510 813 z m 699 694 l 583 694 b 560 671 569 694 565 686 l 389 186 l 378 186 l 207 671 b 182 694 201 686 196 694 l 67 694 b 51 671 53 694 46 686 l 306 -11 l 226 -222 b 243 -246 221 -237 229 -246 l 357 -246 b 382 -222 371 -246 376 -237 l 715 671 b 699 694 721 686 713 694 z "},"ỳ":{"ha":765,"x_min":0,"x_max":0,"o":"m 372 947 b 343 972 363 964 357 972 l 194 972 b 181 947 179 972 168 963 l 304 788 b 338 763 314 774 324 763 l 433 763 b 447 788 449 763 456 771 z m 699 694 l 583 694 b 560 671 569 694 565 686 l 389 186 l 378 186 l 207 671 b 182 694 201 686 196 694 l 67 694 b 51 671 53 694 46 686 l 306 -11 l 226 -222 b 243 -246 221 -237 229 -246 l 357 -246 b 382 -222 371 -246 376 -237 l 715 671 b 699 694 721 686 713 694 z "},"z":{"ha":597,"x_min":0,"x_max":0,"o":"m 69 0 l 519 0 b 540 21 533 0 540 7 l 540 117 b 518 138 540 131 533 138 l 222 138 l 222 147 l 533 546 b 540 567 538 551 540 561 l 540 674 b 518 694 540 688 533 694 l 82 694 b 61 672 68 694 61 688 l 61 578 b 82 557 61 564 68 557 l 368 557 l 368 547 l 57 147 b 50 124 51 140 50 132 l 50 21 b 69 0 50 7 56 0 z "},"ź":{"ha":597,"x_min":0,"x_max":0,"o":"m 322 947 l 246 788 b 260 763 238 771 244 763 l 356 763 b 389 788 369 763 379 774 l 513 947 b 499 972 525 963 514 972 l 351 972 b 322 947 338 972 331 964 z m 69 0 l 519 0 b 540 21 533 0 540 7 l 540 117 b 518 138 540 131 533 138 l 222 138 l 222 147 l 533 546 b 540 567 538 551 540 561 l 540 674 b 518 694 540 688 533 694 l 82 694 b 61 672 68 694 61 688 l 61 578 b 82 557 61 564 68 557 l 368 557 l 368 547 l 57 147 b 50 124 51 140 50 132 l 50 21 b 69 0 50 7 56 0 z "},"ž":{"ha":597,"x_min":0,"x_max":0,"o":"m 242 763 l 363 763 b 401 782 378 763 390 769 l 544 946 b 533 972 556 958 547 972 l 426 972 b 383 946 407 972 397 964 l 310 861 l 296 861 l 222 946 b 181 972 208 964 199 972 l 72 972 b 61 946 58 972 50 958 l 204 782 b 242 763 215 768 226 763 z m 69 0 l 519 0 b 540 21 533 0 540 7 l 540 117 b 518 138 540 131 533 138 l 222 138 l 222 147 l 533 546 b 540 567 538 551 540 561 l 540 674 b 518 694 540 688 533 694 l 82 694 b 61 672 68 694 61 688 l 61 578 b 82 557 61 564 68 557 l 368 557 l 368 547 l 57 147 b 50 124 51 140 50 132 l 50 21 b 69 0 50 7 56 0 z "},"ż":{"ha":597,"x_min":0,"x_max":0,"o":"m 243 813 l 363 813 b 382 832 376 813 382 818 l 382 951 b 363 972 382 965 376 972 l 243 972 b 222 951 229 972 222 965 l 222 832 b 243 813 222 818 229 813 z m 69 0 l 519 0 b 540 21 533 0 540 7 l 540 117 b 518 138 540 131 533 138 l 222 138 l 222 147 l 533 546 b 540 567 538 551 540 561 l 540 674 b 518 694 540 688 533 694 l 82 694 b 61 672 68 694 61 688 l 61 578 b 82 557 61 564 68 557 l 368 557 l 368 547 l 57 147 b 50 124 51 140 50 132 l 50 21 b 69 0 50 7 56 0 z "},"ﬁ":{"ha":792,"x_min":0,"x_max":0,"o":"m 686 694 l 311 694 l 311 735 b 407 833 311 799 342 833 l 467 833 b 488 854 481 833 488 840 l 488 951 b 467 972 488 965 481 972 l 381 972 b 157 747 222 972 157 893 l 157 694 l 69 694 b 50 674 56 694 50 688 l 50 578 b 69 557 50 564 56 557 l 157 557 l 157 21 b 176 0 157 7 163 0 l 290 0 b 311 21 304 0 311 7 l 311 557 l 553 557 l 553 21 b 574 0 553 7 560 0 l 686 0 b 707 21 700 0 707 7 l 707 674 b 686 694 707 688 700 694 z "},"ﬂ":{"ha":821,"x_min":0,"x_max":0,"o":"m 717 972 l 381 972 b 157 747 222 972 157 893 l 157 694 l 69 694 b 50 674 56 694 50 688 l 50 578 b 69 557 50 564 56 557 l 157 557 l 157 21 b 176 0 157 7 163 0 l 290 0 b 311 21 304 0 311 7 l 311 557 l 461 557 b 482 578 475 557 482 564 l 482 674 b 461 694 482 688 475 694 l 311 694 l 311 735 b 407 833 311 799 342 833 l 582 833 l 582 21 b 603 0 582 7 589 0 l 717 0 b 738 21 731 0 738 7 l 738 951 b 717 972 738 965 731 972 z "},"ª":{"ha":447,"x_min":0,"x_max":0,"o":"m 253 979 l 225 979 b 100 947 175 979 133 967 b 94 925 93 943 92 933 l 111 888 b 132 882 115 878 124 879 b 215 899 158 893 186 899 l 238 899 b 296 842 274 899 296 883 l 189 842 b 69 732 107 842 69 804 b 189 624 69 656 118 624 l 207 624 b 296 663 240 624 269 640 l 296 640 b 310 624 296 628 300 624 l 361 624 b 378 640 371 624 378 628 l 378 842 b 253 979 378 926 331 979 z m 221 703 l 197 703 b 154 733 169 703 154 713 b 197 763 154 754 169 763 l 296 763 l 296 722 b 221 703 278 711 254 703 z "},"º":{"ha":472,"x_min":0,"x_max":0,"o":"m 260 979 l 213 979 b 69 832 128 979 69 917 l 69 772 b 213 624 69 685 128 624 l 260 624 b 403 772 343 624 403 685 l 403 832 b 260 979 403 917 343 979 z m 319 828 l 319 778 b 258 708 319 739 292 708 l 215 708 b 153 778 178 708 153 739 l 153 828 b 215 894 153 867 178 894 l 258 894 b 319 828 292 894 319 867 z "},"А":{"ha":857,"x_min":0,"x_max":0,"o":"m 806 26 l 554 950 b 528 972 550 964 540 972 l 329 972 b 303 950 317 972 307 964 l 51 26 b 68 0 47 11 54 0 l 186 0 b 213 26 200 0 208 11 l 251 169 l 606 169 l 644 26 b 671 0 649 11 657 0 l 789 0 b 806 26 801 0 810 11 z m 289 307 l 419 793 l 438 793 l 568 307 z "},"Б":{"ha":836,"x_min":0,"x_max":0,"o":"m 481 713 l 250 713 l 250 829 l 563 829 b 583 850 576 829 583 836 l 583 951 b 563 972 583 965 576 972 l 111 972 b 92 951 97 972 92 965 l 92 21 b 111 0 92 7 97 0 l 481 0 b 767 283 681 0 767 106 l 767 429 b 481 713 767 607 681 713 z m 608 288 b 468 143 608 181 560 143 l 250 143 l 250 571 l 468 571 b 608 425 560 571 608 533 z "},"В":{"ha":838,"x_min":0,"x_max":0,"o":"m 629 508 l 629 519 b 735 721 710 560 735 618 b 481 972 735 897 660 972 l 111 972 b 92 951 97 972 92 965 l 92 21 b 111 0 92 7 97 0 l 482 0 b 768 257 674 0 768 69 l 768 310 b 629 508 768 410 719 476 z m 576 714 l 576 682 b 458 564 576 589 533 564 l 250 564 l 250 829 l 458 829 b 576 714 536 829 576 808 z m 610 264 b 472 143 610 169 564 143 l 250 143 l 250 438 l 472 438 b 610 313 564 438 610 408 z "},"Г":{"ha":686,"x_min":0,"x_max":0,"o":"m 610 972 l 111 972 b 92 951 97 972 92 965 l 92 21 b 111 0 92 7 97 0 l 229 0 b 250 21 243 0 250 7 l 250 829 l 610 829 b 631 850 624 829 631 836 l 631 951 b 610 972 631 965 624 972 z "},"Ѓ":{"ha":686,"x_min":0,"x_max":0,"o":"m 308 1040 l 404 1040 b 438 1065 418 1040 428 1051 l 561 1225 b 547 1250 574 1240 563 1250 l 400 1250 b 371 1225 386 1250 379 1242 l 294 1065 b 308 1040 286 1049 293 1040 z m 610 972 l 111 972 b 92 951 97 972 92 965 l 92 21 b 111 0 92 7 97 0 l 229 0 b 250 21 243 0 250 7 l 250 829 l 610 829 b 631 850 624 829 631 836 l 631 951 b 610 972 631 965 624 972 z "},"Ґ":{"ha":686,"x_min":0,"x_max":0,"o":"m 610 1069 l 492 1069 b 472 1049 478 1069 472 1063 l 472 972 l 111 972 b 92 951 97 972 92 965 l 92 21 b 111 0 92 7 97 0 l 229 0 b 250 21 243 0 250 7 l 250 829 l 610 829 b 631 850 624 829 631 836 l 631 1049 b 610 1069 631 1063 624 1069 z "},"Д":{"ha":961,"x_min":0,"x_max":0,"o":"m 913 143 l 849 143 l 849 951 b 828 972 849 965 842 972 l 210 972 b 189 951 196 972 189 965 l 189 415 b 78 143 189 222 135 143 l 49 143 b 28 122 35 143 28 136 l 28 -114 b 49 -135 28 -128 35 -135 l 165 -135 b 186 -114 179 -135 186 -128 l 186 0 l 775 0 l 775 -114 b 796 -135 775 -128 782 -135 l 913 -135 b 933 -114 926 -135 933 -128 l 933 122 b 913 143 933 136 926 143 z m 285 143 b 347 415 328 196 347 282 l 347 829 l 690 829 l 690 143 z "},"Е":{"ha":735,"x_min":0,"x_max":0,"o":"m 111 0 l 665 0 b 686 21 679 0 686 7 l 686 122 b 665 143 686 136 679 143 l 250 143 l 250 418 l 625 418 b 644 439 639 418 644 425 l 644 536 b 625 557 644 550 639 557 l 250 557 l 250 829 l 658 829 b 679 850 672 829 679 836 l 679 951 b 658 972 679 965 672 972 l 111 972 b 92 951 97 972 92 965 l 92 21 b 111 0 92 7 97 0 z "},"Ё":{"ha":735,"x_min":0,"x_max":0,"o":"m 126 1090 l 246 1090 b 265 1110 260 1090 265 1096 l 265 1229 b 246 1250 265 1243 260 1250 l 126 1250 b 106 1229 113 1250 106 1243 l 106 1110 b 126 1090 106 1096 113 1090 z m 525 1090 l 644 1090 b 665 1110 658 1090 665 1096 l 665 1229 b 644 1250 665 1243 658 1250 l 525 1250 b 506 1229 511 1250 506 1243 l 506 1110 b 525 1090 506 1096 511 1090 z m 111 0 l 665 0 b 686 21 679 0 686 7 l 686 122 b 665 143 686 136 679 143 l 250 143 l 250 418 l 625 418 b 644 439 639 418 644 425 l 644 536 b 625 557 644 550 639 557 l 250 557 l 250 829 l 658 829 b 679 850 672 829 679 836 l 679 951 b 658 972 679 965 672 972 l 111 972 b 92 951 97 972 92 965 l 92 21 b 111 0 92 7 97 0 z "},"Ж":{"ha":1353,"x_min":0,"x_max":0,"o":"m 1299 32 l 947 536 l 1275 938 b 1267 972 1290 956 1283 972 l 1133 972 b 1097 950 1117 972 1108 964 l 756 524 l 756 951 b 735 972 756 965 749 972 l 618 972 b 597 951 604 972 597 965 l 597 524 l 256 950 b 219 972 244 964 236 972 l 86 972 b 78 938 69 972 63 956 l 406 536 l 54 32 b 64 0 47 21 46 0 l 197 0 b 235 19 210 0 224 3 l 508 410 l 597 300 l 597 21 b 618 0 597 7 604 0 l 735 0 b 756 21 749 0 756 7 l 756 300 l 846 411 l 1118 19 b 1156 0 1129 3 1143 0 l 1289 0 b 1299 32 1307 0 1306 21 z "},"З":{"ha":806,"x_min":0,"x_max":0,"o":"m 571 494 l 571 507 b 722 714 671 533 722 576 b 444 979 722 868 644 979 l 374 979 b 82 722 178 979 82 897 l 82 696 b 101 675 82 682 88 675 l 215 675 b 236 696 229 675 236 682 b 376 840 236 804 285 840 l 436 840 b 568 714 524 840 568 797 b 415 569 568 626 546 569 l 344 569 b 324 547 331 569 324 563 l 324 454 b 344 432 324 439 331 432 l 415 432 b 586 263 546 432 586 378 b 453 132 586 178 540 132 l 365 132 b 225 276 274 132 225 168 b 204 297 225 290 218 297 l 90 297 b 71 276 76 297 71 290 l 71 250 b 363 -7 71 75 167 -7 l 461 -7 b 740 263 661 -7 740 107 b 571 494 740 432 671 471 z "},"И":{"ha":896,"x_min":0,"x_max":0,"o":"m 785 0 b 806 21 799 0 806 7 l 806 951 b 785 972 806 965 799 972 l 581 972 b 556 957 569 972 560 968 l 261 203 l 250 203 l 250 951 b 229 972 250 965 243 972 l 111 972 b 92 951 97 972 92 965 l 92 21 b 111 0 92 7 97 0 l 315 0 b 340 15 326 0 336 4 l 635 769 l 647 769 l 647 21 b 667 0 647 7 653 0 z "},"Й":{"ha":896,"x_min":0,"x_max":0,"o":"m 397 1036 l 476 1036 b 663 1229 604 1036 663 1100 b 642 1250 663 1243 656 1250 l 557 1250 b 536 1229 543 1250 538 1243 b 456 1144 532 1183 515 1144 l 418 1144 b 338 1229 358 1144 342 1183 b 318 1250 338 1243 332 1250 l 232 1250 b 211 1229 218 1250 211 1243 b 397 1036 211 1100 271 1036 z m 785 0 b 806 21 799 0 806 7 l 806 951 b 785 972 806 965 799 972 l 581 972 b 556 957 569 972 560 968 l 261 203 l 250 203 l 250 951 b 229 972 250 965 243 972 l 111 972 b 92 951 97 972 92 965 l 92 21 b 111 0 92 7 97 0 l 315 0 b 340 15 326 0 336 4 l 635 769 l 647 769 l 647 21 b 667 0 647 7 653 0 z "},"Ѝ":{"ha":896,"x_min":0,"x_max":0,"o":"m 425 1225 b 396 1250 415 1242 410 1250 l 247 1250 b 233 1225 232 1250 221 1240 l 357 1065 b 390 1040 367 1051 376 1040 l 486 1040 b 500 1065 501 1040 508 1049 z m 785 0 b 806 21 799 0 806 7 l 806 951 b 785 972 806 965 799 972 l 581 972 b 556 957 569 972 560 968 l 261 203 l 250 203 l 250 951 b 229 972 250 965 243 972 l 111 972 b 92 951 97 972 92 965 l 92 21 b 111 0 92 7 97 0 l 315 0 b 340 15 326 0 336 4 l 635 769 l 647 769 l 647 21 b 667 0 647 7 653 0 z "},"К":{"ha":847,"x_min":0,"x_max":0,"o":"m 792 32 l 440 535 l 768 938 b 761 972 783 956 778 972 l 628 972 b 590 950 611 972 601 964 l 250 524 l 250 951 b 229 972 250 965 243 972 l 111 972 b 92 951 97 972 92 965 l 92 21 b 111 0 92 7 97 0 l 229 0 b 250 21 243 0 250 7 l 250 300 l 339 410 l 613 19 b 650 0 624 3 636 0 l 783 0 b 792 32 801 0 799 21 z "},"Ќ":{"ha":847,"x_min":0,"x_max":0,"o":"m 372 1040 l 468 1040 b 501 1065 482 1040 492 1051 l 625 1225 b 611 1250 638 1240 626 1250 l 464 1250 b 435 1225 450 1250 443 1242 l 358 1065 b 372 1040 350 1049 357 1040 z m 792 32 l 440 535 l 768 938 b 761 972 783 956 778 972 l 628 972 b 590 950 611 972 601 964 l 250 524 l 250 951 b 229 972 250 965 243 972 l 111 972 b 92 951 97 972 92 965 l 92 21 b 111 0 92 7 97 0 l 229 0 b 250 21 243 0 250 7 l 250 300 l 339 410 l 613 19 b 650 0 624 3 636 0 l 783 0 b 792 32 801 0 799 21 z "},"Л":{"ha":926,"x_min":0,"x_max":0,"o":"m 815 972 l 182 972 b 161 951 168 972 161 965 l 161 264 b 65 158 161 175 114 158 b 42 138 53 158 42 153 l 42 17 b 64 -6 42 3 49 -6 l 115 -6 b 319 207 232 -6 319 56 l 319 829 l 678 829 l 678 21 b 699 0 678 7 685 0 l 815 0 b 836 21 829 0 836 7 l 836 951 b 815 972 836 965 829 972 z "},"М":{"ha":1072,"x_min":0,"x_max":0,"o":"m 111 0 l 229 0 b 250 21 243 0 250 7 l 250 769 l 261 769 l 432 21 b 458 0 435 7 446 0 l 614 0 b 640 21 626 0 638 7 l 811 769 l 824 769 l 824 21 b 844 0 824 7 831 0 l 961 0 b 982 21 975 0 982 7 l 982 951 b 961 972 982 965 975 972 l 744 972 b 717 951 731 972 719 965 l 542 189 l 532 189 l 357 951 b 329 972 353 965 343 972 l 111 972 b 92 951 97 972 92 965 l 92 21 b 111 0 92 7 97 0 z "},"Н":{"ha":872,"x_min":0,"x_max":0,"o":"m 761 972 l 642 972 b 622 951 628 972 622 965 l 622 557 l 250 557 l 250 951 b 231 972 250 965 244 972 l 111 972 b 92 951 97 972 92 965 l 92 21 b 111 0 92 7 97 0 l 231 0 b 250 21 244 0 250 7 l 250 418 l 622 418 l 622 21 b 642 0 622 7 628 0 l 761 0 b 782 21 775 0 782 7 l 782 951 b 761 972 782 965 775 972 z "},"О":{"ha":893,"x_min":0,"x_max":0,"o":"m 378 -7 l 515 -7 b 803 278 717 -7 803 100 l 803 694 b 515 979 803 872 717 979 l 378 979 b 92 694 176 979 92 872 l 92 278 b 378 -7 92 100 176 -7 z m 389 136 b 250 281 299 136 250 174 l 250 692 b 389 836 250 797 299 836 l 504 836 b 644 692 594 836 644 797 l 644 281 b 504 136 644 174 594 136 z "},"П":{"ha":857,"x_min":0,"x_max":0,"o":"m 111 0 l 229 0 b 250 21 243 0 250 7 l 250 829 l 608 829 l 608 21 b 628 0 608 7 614 0 l 746 0 b 767 21 760 0 767 7 l 767 951 b 746 972 767 965 760 972 l 113 972 b 92 951 99 972 92 965 l 92 21 b 111 0 92 7 97 0 z "},"Р":{"ha":843,"x_min":0,"x_max":0,"o":"m 481 972 l 111 972 b 92 951 97 972 92 965 l 92 21 b 111 0 92 7 97 0 l 229 0 b 250 21 243 0 250 7 l 250 260 l 481 260 b 767 543 681 260 767 365 l 767 689 b 481 972 767 867 681 972 z m 608 547 b 468 403 608 439 560 403 l 250 403 l 250 829 l 468 829 b 608 685 560 829 608 792 z "},"С":{"ha":872,"x_min":0,"x_max":0,"o":"m 378 -7 l 508 -7 b 794 269 713 -7 794 94 l 794 276 b 775 297 794 289 786 297 l 657 297 b 636 276 644 297 636 290 b 496 136 636 169 582 136 l 389 136 b 250 281 299 136 250 174 l 250 692 b 389 836 250 797 299 836 l 496 836 b 636 689 582 836 636 803 b 657 669 636 676 644 669 l 775 669 b 794 689 786 669 794 678 l 794 696 b 508 979 794 876 713 979 l 378 979 b 92 694 176 979 92 872 l 92 278 b 378 -7 92 100 176 -7 z "},"Т":{"ha":754,"x_min":0,"x_max":0,"o":"m 671 972 l 83 972 b 64 951 69 972 64 965 l 64 850 b 83 829 64 836 69 829 l 299 829 l 299 21 b 319 0 299 7 306 0 l 436 0 b 457 21 450 0 457 7 l 457 829 l 671 829 b 692 850 685 829 692 836 l 692 951 b 671 972 692 965 685 972 z "},"У":{"ha":829,"x_min":0,"x_max":0,"o":"m 761 972 l 640 972 b 611 951 625 972 618 967 l 413 526 l 218 951 b 189 972 211 967 204 972 l 67 972 b 53 947 51 972 44 964 l 331 350 l 179 25 b 194 0 171 8 179 0 l 317 0 b 344 21 332 0 338 6 l 776 947 b 761 972 785 964 776 972 z "},"Ў":{"ha":829,"x_min":0,"x_max":0,"o":"m 386 1036 l 465 1036 b 651 1229 593 1036 651 1100 b 631 1250 651 1243 644 1250 l 546 1250 b 525 1229 532 1250 526 1243 b 444 1144 521 1183 504 1144 l 407 1144 b 326 1229 347 1144 331 1183 b 307 1250 326 1243 321 1250 l 221 1250 b 200 1229 207 1250 200 1243 b 386 1036 200 1100 260 1036 z m 761 972 l 640 972 b 611 951 625 972 618 967 l 413 526 l 218 951 b 189 972 211 967 204 972 l 67 972 b 53 947 51 972 44 964 l 331 350 l 179 25 b 194 0 171 8 179 0 l 317 0 b 344 21 332 0 338 6 l 776 947 b 761 972 785 964 776 972 z "},"Ф":{"ha":1001,"x_min":0,"x_max":0,"o":"m 624 840 l 581 840 l 581 951 b 560 972 581 965 574 972 l 443 972 b 422 951 429 972 422 965 l 422 840 l 378 840 b 92 556 176 840 92 733 l 92 417 b 378 132 92 239 176 132 l 422 132 l 422 21 b 443 0 422 7 429 0 l 560 0 b 581 21 574 0 581 7 l 581 132 l 624 132 b 911 417 825 132 911 239 l 911 556 b 624 840 911 733 825 840 z m 389 275 b 250 419 299 275 250 313 l 250 553 b 389 697 250 658 299 697 l 422 697 l 422 275 z m 753 419 b 613 275 753 313 703 275 l 581 275 l 581 697 l 613 697 b 753 553 703 697 753 658 z "},"Х":{"ha":815,"x_min":0,"x_max":0,"o":"m 82 0 l 206 0 b 233 19 221 0 225 6 l 403 333 l 414 333 l 583 19 b 611 0 590 6 597 0 l 735 0 b 747 25 750 0 756 8 l 492 486 l 746 947 b 733 972 754 964 749 972 l 608 972 b 581 953 594 972 588 967 l 414 639 l 403 639 l 236 953 b 208 972 228 967 222 972 l 85 972 b 69 947 69 972 61 964 l 324 486 l 68 25 b 82 0 60 8 67 0 z "},"Ч":{"ha":842,"x_min":0,"x_max":0,"o":"m 613 0 l 731 0 b 751 21 744 0 751 7 l 751 951 b 731 972 751 965 744 972 l 613 972 b 593 951 599 972 593 965 l 593 510 b 490 404 593 442 561 404 l 328 404 b 228 510 258 404 228 440 l 228 951 b 207 972 228 965 221 972 l 90 972 b 69 951 76 972 69 965 l 69 506 b 322 265 69 347 146 265 l 403 265 b 593 335 474 265 558 281 l 593 21 b 613 0 593 7 599 0 z "},"Ц":{"ha":876,"x_min":0,"x_max":0,"o":"m 828 143 l 767 143 l 767 951 b 746 972 767 965 760 972 l 628 972 b 608 951 614 972 608 965 l 608 143 l 250 143 l 250 951 b 229 972 250 965 243 972 l 111 972 b 92 951 97 972 92 965 l 92 21 b 113 0 92 7 99 0 l 690 0 l 690 -114 b 711 -135 690 -128 697 -135 l 829 -135 b 849 -114 843 -135 849 -128 l 849 122 b 828 143 849 136 842 143 z "},"Ш":{"ha":1271,"x_min":0,"x_max":0,"o":"m 113 0 l 1160 0 b 1181 21 1174 0 1181 7 l 1181 951 b 1160 972 1181 965 1174 972 l 1042 972 b 1022 951 1028 972 1022 965 l 1022 143 l 715 143 l 715 951 b 694 972 715 965 708 972 l 576 972 b 557 951 563 972 557 965 l 557 143 l 250 143 l 250 951 b 229 972 250 965 243 972 l 111 972 b 92 951 97 972 92 965 l 92 21 b 113 0 92 7 99 0 z "},"Щ":{"ha":1290,"x_min":0,"x_max":0,"o":"m 1242 143 l 1181 143 l 1181 951 b 1160 972 1181 965 1174 972 l 1042 972 b 1022 951 1028 972 1022 965 l 1022 143 l 715 143 l 715 951 b 694 972 715 965 708 972 l 576 972 b 557 951 563 972 557 965 l 557 143 l 250 143 l 250 951 b 229 972 250 965 243 972 l 111 972 b 92 951 97 972 92 965 l 92 21 b 113 0 92 7 99 0 l 1104 0 l 1104 -114 b 1125 -135 1104 -128 1111 -135 l 1243 -135 b 1263 -114 1257 -135 1263 -128 l 1263 122 b 1242 143 1263 136 1256 143 z "},"Ь":{"ha":843,"x_min":0,"x_max":0,"o":"m 481 713 l 250 713 l 250 951 b 229 972 250 965 243 972 l 111 972 b 92 951 97 972 92 965 l 92 21 b 111 0 92 7 97 0 l 481 0 b 767 283 681 0 767 106 l 767 429 b 481 713 767 607 681 713 z m 608 288 b 468 143 608 181 560 143 l 250 143 l 250 571 l 468 571 b 608 425 560 571 608 533 z "},"Ъ":{"ha":971,"x_min":0,"x_max":0,"o":"m 593 713 l 363 713 l 363 951 b 343 972 363 965 357 972 l 83 972 b 64 951 69 972 64 965 l 64 850 b 83 829 64 836 69 829 l 204 829 l 204 21 b 225 0 204 7 211 0 l 593 0 b 879 283 794 0 879 106 l 879 429 b 593 713 879 607 794 713 z m 721 288 b 582 143 721 181 672 143 l 363 143 l 363 571 l 582 571 b 721 425 672 571 721 533 z "},"Ы":{"ha":1183,"x_min":0,"x_max":0,"o":"m 481 713 l 250 713 l 250 951 b 229 972 250 965 243 972 l 111 972 b 92 951 97 972 92 965 l 92 21 b 111 0 92 7 97 0 l 481 0 b 767 283 681 0 767 106 l 767 429 b 481 713 767 607 681 713 z m 1072 972 l 954 972 b 935 951 940 972 935 965 l 935 21 b 954 0 935 7 940 0 l 1072 0 b 1093 21 1086 0 1093 7 l 1093 951 b 1072 972 1093 965 1086 972 z m 608 288 b 468 143 608 181 560 143 l 250 143 l 250 571 l 468 571 b 608 425 560 571 608 533 z "},"Є":{"ha":872,"x_min":0,"x_max":0,"o":"m 389 836 l 496 836 b 636 689 582 836 636 803 b 657 669 636 676 644 669 l 775 669 b 794 689 786 669 794 678 l 794 696 b 508 979 794 876 713 979 l 378 979 b 92 694 176 979 92 872 l 92 278 b 378 -7 92 100 176 -7 l 508 -7 b 794 269 713 -7 794 94 l 794 276 b 775 297 794 289 786 297 l 657 297 b 636 276 644 297 636 290 b 496 136 636 169 582 136 l 389 136 b 250 281 299 136 250 174 l 250 415 l 433 415 b 454 435 447 415 454 421 l 454 538 b 433 557 454 551 447 557 l 250 557 l 250 692 b 389 836 250 797 299 836 z "},"Э":{"ha":872,"x_min":0,"x_max":0,"o":"m 494 979 l 364 979 b 78 696 160 979 78 876 l 78 689 b 99 669 78 678 86 669 l 217 669 b 236 689 228 669 236 676 b 376 836 236 803 290 836 l 483 836 b 624 692 574 836 624 797 l 624 557 l 439 557 b 419 538 425 557 419 551 l 419 435 b 439 415 419 421 425 415 l 624 415 l 624 281 b 483 136 624 174 574 136 l 376 136 b 236 276 290 136 236 169 b 217 297 236 290 228 297 l 99 297 b 78 276 86 297 78 289 l 78 269 b 364 -7 78 94 160 -7 l 494 -7 b 782 278 696 -7 782 100 l 782 694 b 494 979 782 872 696 979 z "},"І":{"ha":340,"x_min":0,"x_max":0,"o":"m 111 0 l 229 0 b 250 21 243 0 250 7 l 250 951 b 229 972 250 965 243 972 l 111 972 b 92 951 97 972 92 965 l 92 21 b 111 0 92 7 97 0 z "},"Ї":{"ha":340,"x_min":0,"x_max":0,"o":"m -89 1090 l 31 1090 b 50 1110 44 1090 50 1096 l 50 1229 b 31 1250 50 1243 44 1250 l -89 1250 b -110 1229 -103 1250 -110 1243 l -110 1110 b -89 1090 -110 1096 -103 1090 z m 310 1090 l 429 1090 b 450 1110 443 1090 450 1096 l 450 1229 b 429 1250 450 1243 443 1250 l 310 1250 b 290 1229 296 1250 290 1243 l 290 1110 b 310 1090 290 1096 296 1090 z m 111 0 l 229 0 b 250 21 243 0 250 7 l 250 951 b 229 972 250 965 243 972 l 111 972 b 92 951 97 972 92 965 l 92 21 b 111 0 92 7 97 0 z "},"Ј":{"ha":525,"x_min":0,"x_max":0,"o":"m 76 -7 l 147 -7 b 435 278 349 -7 435 100 l 435 951 b 414 972 435 965 428 972 l 296 972 b 276 951 282 972 276 965 l 276 281 b 136 136 276 174 226 136 l 76 136 b 57 115 63 136 57 129 l 57 14 b 76 -7 57 0 63 -7 z "},"Ю":{"ha":1247,"x_min":0,"x_max":0,"o":"m 869 979 l 732 979 b 446 694 531 979 446 872 l 446 557 l 250 557 l 250 951 b 229 972 250 965 243 972 l 111 972 b 92 951 97 972 92 965 l 92 21 b 111 0 92 7 97 0 l 229 0 b 250 21 243 0 250 7 l 250 418 l 446 418 l 446 278 b 732 -7 446 100 531 -7 l 869 -7 b 1157 278 1071 -7 1157 100 l 1157 694 b 869 979 1157 872 1071 979 z m 999 281 b 858 136 999 174 949 136 l 743 136 b 604 281 653 136 604 174 l 604 692 b 743 836 604 797 653 836 l 858 836 b 999 692 949 836 999 797 z "},"Я":{"ha":843,"x_min":0,"x_max":0,"o":"m 732 972 l 363 972 b 78 689 163 972 78 867 l 78 543 b 196 296 78 426 114 340 l 81 32 b 103 0 74 13 82 0 l 210 0 b 242 21 225 0 236 7 l 346 260 l 363 260 l 594 260 l 594 21 b 614 0 594 7 600 0 l 732 0 b 753 21 746 0 753 7 l 753 951 b 732 972 753 965 746 972 z m 375 403 b 236 547 283 403 236 439 l 236 685 b 375 829 236 792 283 829 l 594 829 l 594 403 z "},"Ӏ":{"ha":340,"x_min":0,"x_max":0,"o":"m 111 0 l 229 0 b 250 21 243 0 250 7 l 250 951 b 229 972 250 965 243 972 l 111 972 b 92 951 97 972 92 965 l 92 21 b 111 0 92 7 97 0 z "},"Ӣ":{"ha":896,"x_min":0,"x_max":0,"o":"m 213 1110 l 663 1110 b 683 1131 675 1110 683 1117 l 683 1229 b 663 1250 683 1243 675 1250 l 213 1250 b 192 1229 199 1250 192 1243 l 192 1131 b 213 1110 192 1117 199 1110 z m 785 0 b 806 21 799 0 806 7 l 806 951 b 785 972 806 965 799 972 l 581 972 b 556 957 569 972 560 968 l 261 203 l 250 203 l 250 951 b 229 972 250 965 243 972 l 111 972 b 92 951 97 972 92 965 l 92 21 b 111 0 92 7 97 0 l 315 0 b 340 15 326 0 336 4 l 635 769 l 647 769 l 647 21 b 667 0 647 7 653 0 z "},"Ө":{"ha":893,"x_min":0,"x_max":0,"o":"m 515 979 l 378 979 b 92 694 176 979 92 872 l 92 278 b 378 -7 92 100 176 -7 l 515 -7 b 803 278 717 -7 803 100 l 803 694 b 515 979 803 872 717 979 z m 389 836 l 504 836 b 644 692 594 836 644 797 l 644 556 l 250 556 l 250 692 b 389 836 250 797 299 836 z m 504 136 l 389 136 b 250 281 299 136 250 174 l 250 418 l 644 418 l 644 281 b 504 136 644 174 594 136 z "},"Ӭ":{"ha":872,"x_min":0,"x_max":0,"o":"m 172 1090 l 292 1090 b 311 1110 306 1090 311 1096 l 311 1229 b 292 1250 311 1243 306 1250 l 172 1250 b 151 1229 158 1250 151 1243 l 151 1110 b 172 1090 151 1096 158 1090 z m 571 1090 l 690 1090 b 711 1110 704 1090 711 1096 l 711 1229 b 690 1250 711 1243 704 1250 l 571 1250 b 551 1229 557 1250 551 1243 l 551 1110 b 571 1090 551 1096 557 1090 z m 494 979 l 364 979 b 78 696 160 979 78 876 l 78 689 b 99 669 78 678 86 669 l 217 669 b 236 689 228 669 236 676 b 376 836 236 803 290 836 l 483 836 b 624 692 574 836 624 797 l 624 557 l 439 557 b 419 538 425 557 419 551 l 419 435 b 439 415 419 421 425 415 l 624 415 l 624 281 b 483 136 624 174 574 136 l 376 136 b 236 276 290 136 236 169 b 217 297 236 290 228 297 l 99 297 b 78 276 86 297 78 289 l 78 269 b 364 -7 78 94 160 -7 l 494 -7 b 782 278 696 -7 782 100 l 782 694 b 494 979 782 872 696 979 z "},"Ӯ":{"ha":829,"x_min":0,"x_max":0,"o":"m 201 1110 l 651 1110 b 672 1131 664 1110 672 1117 l 672 1229 b 651 1250 672 1243 664 1250 l 201 1250 b 181 1229 188 1250 181 1243 l 181 1131 b 201 1110 181 1117 188 1110 z m 761 972 l 640 972 b 611 951 625 972 618 967 l 413 526 l 218 951 b 189 972 211 967 204 972 l 67 972 b 53 947 51 972 44 964 l 331 350 l 179 25 b 194 0 171 8 179 0 l 317 0 b 344 21 332 0 338 6 l 776 947 b 761 972 785 964 776 972 z "},"а":{"ha":729,"x_min":0,"x_max":0,"o":"m 396 700 l 361 700 b 146 667 268 700 190 683 b 132 643 135 663 129 654 l 149 560 b 172 544 151 546 158 542 b 335 564 211 557 278 564 b 490 458 457 564 490 528 l 490 415 l 279 415 b 64 239 135 415 64 364 l 64 197 b 268 -7 64 69 128 -7 l 278 -7 b 475 92 372 -7 431 38 l 490 92 l 490 21 b 511 0 490 7 497 0 l 625 0 b 644 21 638 0 644 7 l 644 467 b 396 700 644 613 572 700 z m 360 126 l 301 126 b 215 204 247 126 215 147 l 215 231 b 300 304 215 290 247 304 l 490 304 l 490 242 b 360 126 490 186 443 126 z "},"б":{"ha":739,"x_min":0,"x_max":0,"o":"m 413 -7 l 438 -7 b 669 228 593 -7 669 76 l 669 465 b 438 700 669 617 593 700 l 413 700 b 253 628 332 700 285 671 l 239 628 l 239 724 b 314 803 239 771 256 803 b 481 796 388 803 440 796 b 639 947 603 796 639 854 b 619 972 639 963 636 972 l 504 972 b 481 964 494 972 486 972 b 392 936 465 942 433 936 b 251 944 346 936 299 944 b 85 739 128 944 85 882 l 85 21 b 104 0 85 7 90 0 l 218 0 b 239 21 232 0 239 7 l 239 65 l 253 65 b 413 -7 285 22 332 -7 z m 343 132 b 239 240 279 132 239 171 l 239 453 b 343 561 239 522 279 561 l 410 561 b 515 453 475 561 515 524 l 515 240 b 410 132 515 171 475 132 z "},"в":{"ha":690,"x_min":0,"x_max":0,"o":"m 515 358 b 604 500 597 390 604 453 b 401 694 604 644 532 694 l 106 694 b 85 674 92 694 85 688 l 85 21 b 106 0 85 7 92 0 l 404 0 b 621 190 543 0 621 51 b 515 347 621 260 600 318 z m 239 558 l 389 558 b 451 488 425 558 451 540 b 390 415 451 436 428 415 l 239 415 z m 392 136 l 239 136 l 239 296 l 393 296 b 468 214 436 296 468 276 b 392 136 468 153 435 136 z "},"г":{"ha":606,"x_min":0,"x_max":0,"o":"m 528 694 l 104 694 b 85 674 90 694 85 688 l 85 21 b 104 0 85 7 90 0 l 218 0 b 239 21 232 0 239 7 l 239 557 l 528 557 b 550 579 543 557 550 564 l 550 672 b 528 694 550 688 543 694 z "},"ѓ":{"ha":606,"x_min":0,"x_max":0,"o":"m 274 763 l 369 763 b 403 788 383 763 393 774 l 526 947 b 513 972 539 963 528 972 l 365 972 b 336 947 351 972 344 964 l 260 788 b 274 763 251 771 258 763 z m 528 694 l 104 694 b 85 674 90 694 85 688 l 85 21 b 104 0 85 7 90 0 l 218 0 b 239 21 232 0 239 7 l 239 557 l 528 557 b 550 579 543 557 550 564 l 550 672 b 528 694 550 688 543 694 z "},"ґ":{"ha":606,"x_min":0,"x_max":0,"o":"m 529 769 l 415 769 b 394 749 401 769 394 763 l 394 694 l 104 694 b 85 674 90 694 85 688 l 85 21 b 104 0 85 7 90 0 l 218 0 b 239 21 232 0 239 7 l 239 557 l 528 557 b 550 579 543 557 550 564 l 550 749 b 529 769 550 763 543 769 z "},"д":{"ha":889,"x_min":0,"x_max":0,"o":"m 833 138 l 757 138 l 757 674 b 736 694 757 688 750 694 l 224 694 b 203 674 210 694 203 688 l 203 385 b 75 138 203 171 133 138 l 56 138 b 35 117 42 138 35 131 l 35 -86 b 56 -107 35 -100 42 -107 l 168 -107 b 189 -86 182 -107 189 -100 l 189 0 l 699 0 l 699 -86 b 719 -107 699 -100 706 -107 l 833 -107 b 854 -86 847 -107 854 -100 l 854 117 b 833 138 854 131 847 138 z m 297 138 b 357 357 333 189 357 260 l 357 557 l 601 557 l 601 138 z "},"е":{"ha":714,"x_min":0,"x_max":0,"o":"m 375 -7 b 617 76 478 -7 569 29 b 615 100 622 82 622 90 l 581 154 b 553 161 574 164 564 167 b 375 125 514 142 469 125 l 360 125 b 225 236 267 125 225 171 l 225 285 l 601 285 b 644 326 629 285 644 300 l 644 460 b 392 700 644 608 565 700 l 322 700 b 71 458 149 700 71 608 l 71 235 b 356 -7 71 90 149 -7 z m 225 399 l 225 457 b 328 561 225 526 264 561 l 386 561 b 489 458 450 561 489 526 l 489 399 z "},"ё":{"ha":714,"x_min":0,"x_max":0,"o":"m 101 813 l 221 813 b 240 832 235 813 240 818 l 240 951 b 221 972 240 965 235 972 l 101 972 b 81 951 88 972 81 965 l 81 832 b 101 813 81 818 88 813 z m 500 813 l 619 813 b 640 832 633 813 640 818 l 640 951 b 619 972 640 965 633 972 l 500 972 b 481 951 486 972 481 965 l 481 832 b 500 813 481 818 486 813 z m 375 -7 b 617 76 478 -7 569 29 b 615 100 622 82 622 90 l 581 154 b 553 161 574 164 564 167 b 375 125 514 142 469 125 l 360 125 b 225 236 267 125 225 171 l 225 285 l 601 285 b 644 326 629 285 644 300 l 644 460 b 392 700 644 608 565 700 l 322 700 b 71 458 149 700 71 608 l 71 235 b 356 -7 71 90 149 -7 z m 225 399 l 225 457 b 328 561 225 526 264 561 l 386 561 b 489 458 450 561 489 526 l 489 399 z "},"ж":{"ha":1096,"x_min":0,"x_max":0,"o":"m 1054 32 l 740 346 l 1040 661 b 1033 694 1058 678 1051 694 l 893 694 b 860 678 878 694 869 686 l 622 419 l 622 674 b 601 694 622 688 615 694 l 488 694 b 467 674 474 694 467 688 l 467 419 l 229 678 b 196 694 219 686 211 694 l 56 694 b 49 661 38 694 31 678 l 349 346 l 35 32 b 44 0 24 19 26 0 l 188 0 b 224 19 201 0 210 4 l 467 274 l 467 21 b 488 0 467 7 474 0 l 601 0 b 622 21 615 0 622 7 l 622 274 l 865 19 b 901 0 879 4 888 0 l 1044 0 b 1054 32 1063 0 1065 19 z "},"з":{"ha":671,"x_min":0,"x_max":0,"o":"m 267 -8 l 390 -8 b 608 182 519 -8 608 61 b 514 340 608 250 594 314 l 514 354 b 603 503 594 379 603 435 b 390 697 603 619 519 697 l 267 697 b 63 493 139 697 63 632 b 78 476 63 482 67 476 l 206 476 b 221 493 215 476 221 482 b 299 558 221 531 242 558 l 361 558 b 444 486 408 558 444 544 b 379 407 444 429 431 407 l 279 407 b 265 392 269 407 265 403 l 265 300 b 279 286 265 289 269 286 l 379 286 b 443 203 431 286 443 251 b 361 131 443 144 410 131 l 299 131 b 221 186 244 131 221 151 b 206 203 221 199 215 203 l 78 203 b 63 186 67 203 63 199 b 267 -8 63 49 139 -8 z "},"и":{"ha":797,"x_min":0,"x_max":0,"o":"m 104 0 l 286 0 b 311 15 297 0 306 4 l 547 521 l 558 521 l 558 21 b 579 0 558 7 565 0 l 693 0 b 714 21 707 0 714 7 l 714 674 b 693 694 714 688 707 694 l 511 694 b 486 679 500 694 492 690 l 250 174 l 239 174 l 239 674 b 218 694 239 688 232 694 l 104 694 b 85 674 90 694 85 688 l 85 21 b 104 0 85 7 90 0 z "},"й":{"ha":797,"x_min":0,"x_max":0,"o":"m 372 758 l 451 758 b 638 951 579 758 638 822 b 617 972 638 965 631 972 l 532 972 b 511 951 518 972 513 965 b 431 867 507 906 490 867 l 393 867 b 313 951 333 867 317 906 b 293 972 313 965 307 972 l 207 972 b 186 951 193 972 186 965 b 372 758 186 822 246 758 z m 104 0 l 286 0 b 311 15 297 0 306 4 l 547 521 l 558 521 l 558 21 b 579 0 558 7 565 0 l 693 0 b 714 21 707 0 714 7 l 714 674 b 693 694 714 688 707 694 l 511 694 b 486 679 500 694 492 690 l 250 174 l 239 174 l 239 674 b 218 694 239 688 232 694 l 104 694 b 85 674 90 694 85 688 l 85 21 b 104 0 85 7 90 0 z "},"ѝ":{"ha":797,"x_min":0,"x_max":0,"o":"m 401 947 b 372 972 392 964 386 972 l 224 972 b 210 947 208 972 197 963 l 333 788 b 367 763 343 774 353 763 l 463 763 b 476 788 478 763 485 771 z m 104 0 l 286 0 b 311 15 297 0 306 4 l 547 521 l 558 521 l 558 21 b 579 0 558 7 565 0 l 693 0 b 714 21 707 0 714 7 l 714 674 b 693 694 714 688 707 694 l 511 694 b 486 679 500 694 492 690 l 250 174 l 239 174 l 239 674 b 218 694 239 688 232 694 l 104 694 b 85 674 90 694 85 688 l 85 21 b 104 0 85 7 90 0 z "},"к":{"ha":714,"x_min":0,"x_max":0,"o":"m 671 32 l 357 346 l 657 661 b 650 694 675 678 668 694 l 510 694 b 476 678 494 694 486 686 l 239 419 l 239 674 b 218 694 239 688 232 694 l 104 694 b 85 674 90 694 85 688 l 85 21 b 104 0 85 7 90 0 l 218 0 b 239 21 232 0 239 7 l 239 274 l 482 19 b 519 0 496 4 504 0 l 661 0 b 671 32 679 0 682 19 z "},"ќ":{"ha":714,"x_min":0,"x_max":0,"o":"m 324 763 l 419 763 b 453 788 433 763 443 774 l 576 947 b 563 972 589 963 578 972 l 415 972 b 386 947 401 972 394 964 l 310 788 b 324 763 301 771 308 763 z m 671 32 l 357 346 l 657 661 b 650 694 675 678 668 694 l 510 694 b 476 678 494 694 486 686 l 239 419 l 239 674 b 218 694 239 688 232 694 l 104 694 b 85 674 90 694 85 688 l 85 21 b 104 0 85 7 90 0 l 218 0 b 239 21 232 0 239 7 l 239 274 l 482 19 b 519 0 496 4 504 0 l 661 0 b 671 32 679 0 682 19 z "},"л":{"ha":799,"x_min":0,"x_max":0,"o":"m 82 -14 b 271 208 246 -14 271 75 l 271 557 l 561 557 l 561 21 b 582 0 561 7 568 0 l 694 0 b 715 21 708 0 715 7 l 715 674 b 694 694 715 688 708 694 l 138 694 b 117 674 124 694 117 688 l 117 207 b 35 122 117 143 92 122 b 0 90 10 122 0 111 l 0 29 b 82 -14 0 0 19 -14 z "},"м":{"ha":911,"x_min":0,"x_max":0,"o":"m 807 694 l 658 694 b 633 679 647 694 639 690 l 456 275 l 278 679 b 253 694 272 690 264 694 l 104 694 b 85 674 90 694 85 688 l 85 21 b 104 0 85 7 90 0 l 218 0 b 239 21 232 0 239 7 l 239 453 l 396 75 b 419 60 400 64 406 60 l 493 60 b 517 75 507 60 513 64 l 674 453 l 674 21 b 693 0 674 7 679 0 l 807 0 b 828 21 821 0 828 7 l 828 674 b 807 694 828 688 821 694 z "},"н":{"ha":767,"x_min":0,"x_max":0,"o":"m 663 694 l 549 694 b 528 674 535 694 528 688 l 528 417 l 239 417 l 239 674 b 218 694 239 688 232 694 l 104 694 b 85 674 90 694 85 688 l 85 21 b 104 0 85 7 90 0 l 218 0 b 239 21 232 0 239 7 l 239 279 l 528 279 l 528 21 b 549 0 528 7 535 0 l 663 0 b 683 21 676 0 683 7 l 683 674 b 663 694 683 688 676 694 z "},"о":{"ha":725,"x_min":0,"x_max":0,"o":"m 322 -7 l 404 -7 b 656 233 576 -7 656 85 l 656 460 b 404 700 656 608 576 700 l 322 700 b 71 460 149 700 71 608 l 71 233 b 322 -7 71 85 149 -7 z m 328 132 b 225 236 264 132 225 167 l 225 457 b 328 561 225 526 264 561 l 397 561 b 501 457 463 561 501 526 l 501 236 b 397 132 501 167 463 132 z "},"п":{"ha":767,"x_min":0,"x_max":0,"o":"m 101 0 l 218 0 b 239 21 232 0 239 7 l 239 557 l 528 557 l 528 21 b 549 0 528 7 535 0 l 663 0 b 683 21 676 0 683 7 l 683 674 b 663 694 683 688 676 694 l 104 694 b 85 674 90 694 85 688 l 85 21 b 101 0 85 7 89 0 z "},"р":{"ha":739,"x_min":0,"x_max":0,"o":"m 438 700 l 413 700 b 253 628 332 700 285 671 l 239 628 l 239 674 b 218 694 239 688 232 694 l 104 694 b 85 674 90 694 85 688 l 85 -225 b 104 -246 85 -239 90 -246 l 218 -246 b 239 -225 232 -246 239 -239 l 239 65 l 253 65 b 413 -7 285 22 332 -7 l 438 -7 b 669 228 593 -7 669 76 l 669 465 b 438 700 669 617 593 700 z m 515 240 b 410 132 515 171 475 132 l 343 132 b 239 240 279 132 239 171 l 239 453 b 343 561 239 522 279 561 l 410 561 b 515 453 475 561 515 524 z "},"с":{"ha":704,"x_min":0,"x_max":0,"o":"m 354 -7 l 365 -7 b 632 129 489 -7 586 26 b 618 158 638 142 633 151 l 543 193 b 511 185 526 201 518 196 b 368 128 485 142 451 128 l 357 128 b 225 249 265 128 225 171 l 225 457 b 328 561 225 526 264 561 l 389 561 b 493 474 453 561 493 531 l 493 465 b 513 444 493 451 500 444 l 621 444 b 640 465 633 444 640 451 l 640 474 b 396 700 640 613 556 700 l 322 700 b 71 458 149 700 71 608 l 71 235 b 354 -7 71 88 150 -7 z "},"т":{"ha":638,"x_min":0,"x_max":0,"o":"m 563 694 l 76 694 b 56 674 63 694 56 688 l 56 571 b 76 551 56 557 63 551 l 242 551 l 242 21 b 263 0 242 7 249 0 l 376 0 b 396 21 390 0 396 7 l 396 551 l 563 551 b 582 571 576 551 582 557 l 582 674 b 563 694 582 688 576 694 z "},"у":{"ha":765,"x_min":0,"x_max":0,"o":"m 699 694 l 583 694 b 560 671 569 694 565 686 l 389 186 l 378 186 l 207 671 b 182 694 201 686 196 694 l 67 694 b 51 671 53 694 46 686 l 306 -11 l 226 -222 b 243 -246 221 -237 229 -246 l 357 -246 b 382 -222 371 -246 376 -237 l 715 671 b 699 694 721 686 713 694 z "},"ў":{"ha":765,"x_min":0,"x_max":0,"o":"m 343 758 l 422 758 b 608 951 550 758 608 822 b 588 972 608 965 601 972 l 503 972 b 482 951 489 972 483 965 b 401 867 478 906 461 867 l 364 867 b 283 951 304 867 288 906 b 264 972 283 965 278 972 l 178 972 b 157 951 164 972 157 965 b 343 758 157 822 217 758 z m 699 694 l 583 694 b 560 671 569 694 565 686 l 389 186 l 378 186 l 207 671 b 182 694 201 686 196 694 l 67 694 b 51 671 53 694 46 686 l 306 -11 l 226 -222 b 243 -246 221 -237 229 -246 l 357 -246 b 382 -222 371 -246 376 -237 l 715 671 b 699 694 721 686 713 694 z "},"ф":{"ha":1158,"x_min":0,"x_max":0,"o":"m 856 700 l 831 700 b 672 628 751 700 704 671 l 657 628 l 657 674 b 656 683 657 678 657 681 l 656 951 b 635 972 656 965 649 972 l 522 972 b 501 951 508 972 501 965 l 501 628 l 486 628 b 328 700 454 671 407 700 l 303 700 b 71 465 146 700 71 617 l 71 228 b 303 -7 71 76 146 -7 l 328 -7 b 486 65 407 -7 454 22 l 501 65 l 501 21 b 503 11 501 17 501 14 l 503 -225 b 522 -246 503 -239 510 -246 l 636 -246 b 657 -225 650 -246 657 -239 l 657 65 l 672 65 b 831 -7 704 22 751 -7 l 856 -7 b 1088 228 1011 -7 1088 76 l 1088 465 b 856 700 1088 617 1011 700 z m 396 132 l 331 132 b 225 240 265 132 225 171 l 225 453 b 331 561 225 524 265 561 l 396 561 b 501 453 461 561 501 522 l 501 240 b 396 132 501 171 461 132 z m 933 240 b 828 132 933 171 893 132 l 763 132 b 657 240 697 132 657 171 l 657 453 b 763 561 657 522 697 561 l 828 561 b 933 453 893 561 933 524 z "},"х":{"ha":665,"x_min":0,"x_max":0,"o":"m 69 0 l 186 0 b 217 25 197 0 207 4 l 326 221 l 338 221 l 446 25 b 478 0 457 4 467 0 l 594 0 b 610 26 613 0 618 13 l 426 347 l 611 668 b 597 694 619 682 614 694 l 481 694 b 449 669 468 694 460 690 l 338 474 l 326 474 l 217 669 b 183 694 206 690 196 694 l 68 694 b 54 668 51 694 46 682 l 239 347 l 54 26 b 69 0 46 13 51 0 z "},"ч":{"ha":761,"x_min":0,"x_max":0,"o":"m 543 0 l 656 0 b 676 21 669 0 676 7 l 676 674 b 656 694 676 688 669 694 l 543 694 b 522 674 529 694 522 688 l 522 407 b 415 293 522 335 486 293 l 333 293 b 239 407 265 293 239 335 l 239 674 b 218 694 239 688 232 694 l 104 694 b 85 674 90 694 85 688 l 85 381 b 292 151 85 239 146 151 l 383 151 b 522 222 453 151 499 185 l 522 21 b 543 0 522 7 529 0 z "},"ц":{"ha":815,"x_min":0,"x_max":0,"o":"m 760 138 l 683 138 l 683 674 b 663 694 683 688 676 694 l 549 694 b 528 674 535 694 528 688 l 528 138 l 239 138 l 239 674 b 218 694 239 688 232 694 l 101 694 b 85 674 89 694 85 688 l 85 21 b 104 0 85 7 90 0 l 625 0 l 625 -86 b 646 -107 625 -100 632 -107 l 760 -107 b 781 -86 774 -107 781 -100 l 781 117 b 760 138 781 131 774 138 z "},"ш":{"ha":1058,"x_min":0,"x_max":0,"o":"m 104 0 l 953 0 b 974 21 967 0 974 7 l 974 674 b 953 694 974 688 967 694 l 840 694 b 819 674 826 694 819 688 l 819 138 l 606 138 l 606 674 b 586 694 606 688 600 694 l 469 694 b 451 674 456 694 451 688 l 451 138 l 239 138 l 239 674 b 218 694 239 688 232 694 l 101 694 b 85 674 89 694 85 688 l 85 21 b 104 0 85 7 90 0 z "},"щ":{"ha":1099,"x_min":0,"x_max":0,"o":"m 1043 138 l 974 138 l 974 674 b 953 694 974 688 967 694 l 840 694 b 819 674 826 694 819 688 l 819 138 l 606 138 l 606 674 b 586 694 606 688 600 694 l 469 694 b 451 674 456 694 451 688 l 451 138 l 239 138 l 239 674 b 218 694 239 688 232 694 l 101 694 b 85 674 89 694 85 688 l 85 21 b 104 0 85 7 90 0 l 908 0 l 908 -86 b 929 -107 908 -100 915 -107 l 1043 -107 b 1064 -86 1057 -107 1064 -100 l 1064 117 b 1043 138 1064 131 1057 138 z "},"ь":{"ha":735,"x_min":0,"x_max":0,"o":"m 431 481 l 239 481 l 239 674 b 218 694 239 688 232 694 l 104 694 b 85 674 90 694 85 688 l 85 21 b 104 0 85 7 90 0 l 431 0 b 664 240 596 0 664 63 b 431 481 664 418 596 481 z m 403 138 l 239 138 l 239 343 l 403 343 b 510 240 468 343 510 326 b 403 138 510 154 468 138 z "},"ъ":{"ha":776,"x_min":0,"x_max":0,"o":"m 472 481 l 281 481 l 281 674 b 260 694 281 688 274 694 l 57 694 b 35 672 42 694 35 688 l 35 579 b 57 557 35 564 42 557 l 126 557 l 126 21 b 146 0 126 7 132 0 l 472 0 b 706 240 638 0 706 63 b 472 481 706 418 638 481 z m 444 138 l 281 138 l 281 343 l 444 343 b 551 240 510 343 551 326 b 444 138 551 154 510 138 z "},"ы":{"ha":965,"x_min":0,"x_max":0,"o":"m 431 481 l 239 481 l 239 674 b 218 694 239 688 232 694 l 104 694 b 85 674 90 694 85 688 l 85 21 b 104 0 85 7 90 0 l 431 0 b 664 240 596 0 664 63 b 431 481 664 418 596 481 z m 861 694 l 747 694 b 726 674 733 694 726 688 l 726 21 b 747 0 726 7 733 0 l 861 0 b 882 21 875 0 882 7 l 882 674 b 861 694 882 688 875 694 z m 403 138 l 239 138 l 239 343 l 403 343 b 510 240 468 343 510 326 b 403 138 510 154 468 138 z "},"є":{"ha":704,"x_min":0,"x_max":0,"o":"m 396 700 l 322 700 b 71 458 149 700 71 608 l 71 235 b 354 -7 71 88 150 -7 l 365 -7 b 632 129 489 -7 586 26 b 618 158 638 142 633 151 l 543 193 b 511 185 526 201 518 196 b 368 128 485 142 451 128 l 357 128 b 225 249 265 128 225 171 l 225 272 l 351 272 b 374 293 367 272 374 279 l 374 388 b 351 410 374 403 367 410 l 225 410 l 225 457 b 328 561 225 526 264 561 l 389 561 b 493 474 453 561 493 531 l 493 465 b 513 444 493 451 500 444 l 621 444 b 640 465 633 444 640 451 l 640 474 b 396 700 640 613 556 700 z "},"э":{"ha":704,"x_min":0,"x_max":0,"o":"m 382 700 l 308 700 b 64 474 149 700 64 613 l 64 465 b 85 444 64 451 71 444 l 192 444 b 211 465 206 444 211 451 l 211 474 b 315 561 211 531 251 561 l 376 561 b 479 457 440 561 479 526 l 479 410 l 353 410 b 331 388 338 410 331 403 l 331 293 b 353 272 331 279 338 272 l 479 272 l 479 249 b 347 128 479 171 439 128 l 336 128 b 193 185 253 128 219 142 b 161 193 186 196 178 201 l 86 158 b 72 129 71 151 67 142 b 339 -7 118 26 215 -7 l 351 -7 b 635 235 554 -7 635 88 l 635 458 b 382 700 635 608 556 700 z "},"і":{"ha":322,"x_min":0,"x_max":0,"o":"m 104 824 l 218 824 b 239 844 232 824 239 831 l 239 951 b 218 972 239 965 232 972 l 104 972 b 85 951 90 972 85 965 l 85 844 b 104 824 85 831 90 824 z m 104 0 l 218 0 b 239 21 232 0 239 7 l 239 674 b 218 694 239 688 232 694 l 104 694 b 85 674 90 694 85 688 l 85 21 b 104 0 85 7 90 0 z "},"ї":{"ha":307,"x_min":0,"x_max":0,"o":"m -107 813 l 13 813 b 32 832 26 813 32 818 l 32 951 b 13 972 32 965 26 972 l -107 972 b -128 951 -121 972 -128 965 l -128 832 b -107 813 -128 818 -121 813 z m 292 813 l 411 813 b 432 832 425 813 432 818 l 432 951 b 411 972 432 965 425 972 l 292 972 b 272 951 278 972 272 965 l 272 832 b 292 813 272 818 278 813 z m 97 0 l 210 0 b 231 21 224 0 231 7 l 231 674 b 210 694 231 688 224 694 l 97 694 b 76 674 83 694 76 688 l 76 21 b 97 0 76 7 83 0 z "},"ј":{"ha":335,"x_min":0,"x_max":0,"o":"m 117 824 l 231 824 b 251 844 244 824 251 831 l 251 951 b 231 972 251 965 244 972 l 117 972 b 96 951 103 972 96 965 l 96 844 b 117 824 96 831 103 824 z m 61 -260 b 251 -37 225 -260 251 -169 l 251 674 b 231 694 251 688 244 694 l 117 694 b 96 674 103 694 96 688 l 96 -39 b 15 -124 96 -101 71 -124 b -21 -156 -11 -124 -21 -133 l -21 -215 b 61 -260 -21 -246 -1 -260 z "},"ю":{"ha":1040,"x_min":0,"x_max":0,"o":"m 718 700 l 636 700 b 385 460 463 700 385 608 l 385 407 l 239 407 l 239 674 b 218 694 239 688 232 694 l 104 694 b 85 674 90 694 85 688 l 85 21 b 104 0 85 7 90 0 l 218 0 b 239 21 232 0 239 7 l 239 269 l 385 269 l 385 233 b 636 -7 385 85 463 -7 l 718 -7 b 969 233 890 -7 969 85 l 969 460 b 718 700 969 608 890 700 z m 815 236 b 711 132 815 167 776 132 l 642 132 b 539 236 578 132 539 167 l 539 457 b 642 561 539 526 578 561 l 711 561 b 815 457 776 561 815 526 z "},"я":{"ha":728,"x_min":0,"x_max":0,"o":"m 624 694 l 282 694 b 76 492 140 694 76 613 b 174 322 76 417 93 358 l 174 314 b 71 143 94 283 71 225 l 71 21 b 90 0 71 7 76 0 l 204 0 b 225 21 218 0 225 7 l 225 128 b 307 238 225 193 233 238 l 489 238 l 489 21 b 510 0 489 7 496 0 l 624 0 b 644 21 638 0 644 7 l 644 674 b 624 694 644 688 638 694 z m 306 374 b 226 465 250 374 226 406 b 306 551 226 525 250 551 l 489 551 l 489 374 z "},"ӣ":{"ha":797,"x_min":0,"x_max":0,"o":"m 188 832 l 638 832 b 658 853 650 832 658 839 l 658 951 b 638 972 658 965 650 972 l 188 972 b 167 951 174 972 167 965 l 167 853 b 188 832 167 839 174 832 z m 104 0 l 286 0 b 311 15 297 0 306 4 l 547 521 l 558 521 l 558 21 b 579 0 558 7 565 0 l 693 0 b 714 21 707 0 714 7 l 714 674 b 693 694 714 688 707 694 l 511 694 b 486 679 500 694 492 690 l 250 174 l 239 174 l 239 674 b 218 694 239 688 232 694 l 104 694 b 85 674 90 694 85 688 l 85 21 b 104 0 85 7 90 0 z "},"ө":{"ha":725,"x_min":0,"x_max":0,"o":"m 404 700 l 322 700 b 71 460 149 700 71 608 l 71 233 b 322 -7 71 85 149 -7 l 404 -7 b 656 233 576 -7 656 85 l 656 460 b 404 700 656 608 576 700 z m 328 561 l 397 561 b 501 457 463 561 501 526 l 501 415 l 225 415 l 225 457 b 328 561 225 526 264 561 z m 397 132 l 328 132 b 225 236 264 132 225 167 l 225 278 l 501 278 l 501 236 b 397 132 501 167 463 132 z "},"ӭ":{"ha":704,"x_min":0,"x_max":0,"o":"m 88 813 l 207 813 b 226 832 221 813 226 818 l 226 951 b 207 972 226 965 221 972 l 88 972 b 67 951 74 972 67 965 l 67 832 b 88 813 67 818 74 813 z m 486 813 l 606 813 b 626 832 619 813 626 818 l 626 951 b 606 972 626 965 619 972 l 486 972 b 467 951 472 972 467 965 l 467 832 b 486 813 467 818 472 813 z m 382 700 l 308 700 b 64 474 149 700 64 613 l 64 465 b 85 444 64 451 71 444 l 192 444 b 211 465 206 444 211 451 l 211 474 b 315 561 211 531 251 561 l 376 561 b 479 457 440 561 479 526 l 479 410 l 353 410 b 331 388 338 410 331 403 l 331 293 b 353 272 331 279 338 272 l 479 272 l 479 249 b 347 128 479 171 439 128 l 336 128 b 193 185 253 128 219 142 b 161 193 186 196 178 201 l 86 158 b 72 129 71 151 67 142 b 339 -7 118 26 215 -7 l 351 -7 b 635 235 554 -7 635 88 l 635 458 b 382 700 635 608 556 700 z "},"ӯ":{"ha":765,"x_min":0,"x_max":0,"o":"m 169 832 l 619 832 b 640 853 632 832 640 839 l 640 951 b 619 972 640 965 632 972 l 169 972 b 149 951 156 972 149 965 l 149 853 b 169 832 149 839 156 832 z m 699 694 l 583 694 b 560 671 569 694 565 686 l 389 186 l 378 186 l 207 671 b 182 694 201 686 196 694 l 67 694 b 51 671 53 694 46 686 l 306 -11 l 226 -222 b 243 -246 221 -237 229 -246 l 357 -246 b 382 -222 371 -246 376 -237 l 715 671 b 699 694 721 686 713 694 z "},"Δ":{"ha":833,"x_min":0,"x_max":0,"o":"m 799 22 l 507 990 b 481 1013 503 1004 493 1013 l 386 1013 b 360 990 374 1013 364 1004 l 67 22 b 82 0 61 7 68 0 l 782 0 b 799 22 796 0 803 7 z m 257 158 l 435 781 l 607 158 z "},"Ω":{"ha":835,"x_min":0,"x_max":0,"o":"m 744 365 l 744 739 b 463 1025 744 922 622 1025 l 372 1025 b 92 739 213 1025 92 922 l 92 365 b 200 158 92 250 133 199 l 113 158 b 92 138 99 158 92 151 l 92 21 b 113 0 92 7 99 0 l 361 0 b 382 21 375 0 382 7 l 382 154 b 361 175 382 168 375 175 l 357 175 b 250 392 279 175 250 297 l 250 733 b 378 867 250 838 297 867 l 457 867 b 586 733 538 867 586 838 l 586 392 b 479 175 586 297 557 175 l 475 175 b 454 154 461 175 454 168 l 454 21 b 475 0 454 7 461 0 l 724 0 b 744 21 738 0 744 7 l 744 138 b 724 158 744 151 738 158 l 635 158 b 744 365 703 199 744 250 z "},"μ":{"ha":753,"x_min":0,"x_max":0,"o":"m 649 694 l 535 694 b 515 674 524 694 515 688 l 515 243 b 401 133 515 172 469 133 l 342 133 b 239 243 275 133 239 172 l 239 674 b 218 694 239 688 232 694 l 103 694 b 83 674 93 694 83 688 l 83 229 b 85 192 83 217 83 204 l 85 -257 b 106 -278 85 -271 92 -278 l 218 -278 b 239 -257 232 -278 239 -271 l 239 0 b 303 -6 258 -4 279 -6 l 328 -6 b 496 74 406 -6 465 24 l 515 74 l 515 21 b 535 0 515 7 524 0 l 649 0 b 669 21 663 0 669 7 l 669 674 b 649 694 669 688 663 694 z "},"π":{"ha":836,"x_min":0,"x_max":0,"o":"m 760 694 l 75 694 b 56 674 61 694 56 688 l 56 557 b 76 536 56 543 61 536 l 149 536 l 149 21 b 169 0 149 7 156 0 l 286 0 b 307 21 300 0 307 7 l 307 536 l 528 536 l 528 21 b 549 0 528 7 535 0 l 665 0 b 686 21 679 0 686 7 l 686 536 l 760 536 b 781 556 774 536 781 543 l 781 674 b 760 694 781 686 774 694 z "},"¹":{"ha":419,"x_min":0,"x_max":0,"o":"m 167 951 l 167 564 b 188 543 167 550 174 543 l 232 543 b 253 564 246 543 253 550 l 253 951 b 232 972 253 965 246 972 l 188 972 b 167 951 174 972 167 965 z "},"²":{"ha":444,"x_min":0,"x_max":0,"o":"m 340 624 l 190 624 l 268 692 b 360 847 317 733 360 776 b 240 972 360 913 322 972 l 206 972 b 83 857 129 972 83 924 l 83 839 b 104 818 83 825 90 818 l 146 818 b 167 839 160 818 167 825 l 167 849 b 218 893 167 878 188 893 b 275 839 253 893 275 874 b 226 761 275 807 250 783 l 106 647 b 86 608 92 635 86 628 l 86 563 b 107 542 86 549 93 542 l 340 542 b 361 563 354 542 361 549 l 361 603 b 340 624 361 617 354 624 z "},"³":{"ha":449,"x_min":0,"x_max":0,"o":"m 301 757 b 360 853 343 778 360 810 b 243 972 360 913 322 972 l 208 972 b 86 857 132 972 86 924 l 86 839 b 107 818 86 825 93 818 l 149 818 b 169 839 163 818 169 825 l 169 849 b 224 893 169 878 190 893 b 278 840 258 893 278 874 b 226 793 278 810 264 793 l 204 793 b 185 772 192 793 185 786 l 185 742 b 204 721 185 728 192 721 l 226 721 b 281 674 267 721 281 704 b 224 621 281 640 261 621 b 167 665 188 621 167 636 l 167 675 b 146 696 167 689 160 696 l 104 696 b 83 675 90 696 83 689 l 83 657 b 208 542 83 590 129 542 l 243 542 b 368 661 331 542 368 601 b 301 757 368 704 346 736 z "},"⁄":{"ha":175,"x_min":0,"x_max":0,"o":"m 321 951 l -240 21 b -226 0 -249 7 -240 0 l -174 0 b -146 21 -160 0 -154 7 l 415 951 b 401 972 424 965 415 972 l 349 972 b 321 951 335 972 329 965 z "},"½":{"ha":1039,"x_min":0,"x_max":0,"o":"m 167 951 l 167 564 b 188 543 167 550 174 543 l 232 543 b 253 564 246 543 253 550 l 253 951 b 232 972 253 965 246 972 l 188 972 b 167 951 174 972 167 965 z m 740 951 l 179 21 b 193 0 171 7 179 0 l 246 0 b 274 21 260 0 265 7 l 835 951 b 821 972 843 965 835 972 l 768 972 b 740 951 754 972 749 965 z m 935 82 l 785 82 l 863 150 b 954 306 911 192 954 235 b 835 431 954 371 917 431 l 800 431 b 678 315 724 431 678 382 l 678 297 b 699 276 678 283 685 276 l 740 276 b 761 297 754 276 761 283 l 761 307 b 813 351 761 336 782 351 b 869 297 847 351 869 332 b 821 219 869 265 844 242 l 700 106 b 681 67 686 93 681 86 l 681 21 b 701 0 681 7 688 0 l 935 0 b 956 21 949 0 956 7 l 956 61 b 935 82 956 75 949 82 z "},"¼":{"ha":1061,"x_min":0,"x_max":0,"o":"m 167 951 l 167 564 b 188 543 167 550 174 543 l 232 543 b 253 564 246 543 253 550 l 253 951 b 232 972 253 965 246 972 l 188 972 b 167 951 174 972 167 965 z m 740 951 l 179 21 b 193 0 171 7 179 0 l 246 0 b 274 21 260 0 265 7 l 835 951 b 821 972 843 965 835 972 l 768 972 b 740 951 754 972 749 965 z m 957 150 l 938 150 l 938 410 b 917 431 938 424 931 431 l 847 431 b 824 415 839 431 829 426 l 685 151 b 678 126 682 146 678 138 l 678 92 b 701 71 678 78 686 71 l 854 71 l 854 21 b 875 0 854 7 861 0 l 917 0 b 938 21 931 0 938 7 l 938 71 l 957 71 b 978 92 971 71 978 78 l 978 129 b 957 150 978 143 971 150 z m 854 153 l 774 153 l 854 315 z "},"¾":{"ha":1090,"x_min":0,"x_max":0,"o":"m 301 757 b 360 853 343 778 360 810 b 243 972 360 913 322 972 l 208 972 b 86 857 132 972 86 924 l 86 839 b 107 818 86 825 93 818 l 149 818 b 169 839 163 818 169 825 l 169 849 b 224 893 169 878 190 893 b 278 840 258 893 278 874 b 226 793 278 810 264 793 l 204 793 b 185 772 192 793 185 786 l 185 742 b 204 721 185 728 192 721 l 226 721 b 281 674 267 721 281 704 b 224 621 281 640 261 621 b 167 665 188 621 167 636 l 167 675 b 146 696 167 689 160 696 l 104 696 b 83 675 90 696 83 689 l 83 657 b 208 542 83 590 129 542 l 243 542 b 368 661 331 542 368 601 b 301 757 368 704 346 736 z m 769 951 l 208 21 b 222 0 200 7 208 0 l 275 0 b 303 21 289 0 294 7 l 864 951 b 850 972 872 965 864 972 l 797 972 b 769 951 783 972 778 965 z m 986 150 l 967 150 l 967 410 b 946 431 967 424 960 431 l 876 431 b 853 415 868 431 858 426 l 714 151 b 707 126 711 146 707 138 l 707 92 b 731 71 707 78 715 71 l 883 71 l 883 21 b 904 0 883 7 890 0 l 946 0 b 967 21 960 0 967 7 l 967 71 l 986 71 b 1007 92 1000 71 1007 78 l 1007 129 b 986 150 1007 143 1000 150 z m 883 153 l 803 153 l 883 315 z "},"⅛":{"ha":1043,"x_min":0,"x_max":0,"o":"m 167 951 l 167 564 b 188 543 167 550 174 543 l 232 543 b 253 564 246 543 253 550 l 253 951 b 232 972 253 965 246 972 l 188 972 b 167 951 174 972 167 965 z m 740 951 l 179 21 b 193 0 171 7 179 0 l 246 0 b 274 21 260 0 265 7 l 835 951 b 821 972 843 965 835 972 l 768 972 b 740 951 754 972 749 965 z m 903 226 b 949 317 931 244 949 274 b 831 431 949 381 907 431 l 807 431 b 689 317 735 431 689 381 b 735 226 689 274 707 244 b 678 122 707 210 678 182 b 806 0 678 50 721 0 l 832 0 b 960 122 917 0 960 50 b 903 226 960 182 931 210 z m 822 258 l 815 258 b 769 307 788 258 769 276 b 815 356 769 338 788 356 l 822 356 b 868 307 850 356 868 338 b 822 258 868 276 850 258 z m 811 78 b 763 131 782 78 763 94 b 811 186 763 165 782 186 l 826 186 b 875 131 856 186 875 165 b 826 78 875 94 856 78 z "},"⅜":{"ha":1072,"x_min":0,"x_max":0,"o":"m 301 757 b 360 853 343 778 360 810 b 243 972 360 913 322 972 l 208 972 b 86 857 132 972 86 924 l 86 839 b 107 818 86 825 93 818 l 149 818 b 169 839 163 818 169 825 l 169 849 b 224 893 169 878 190 893 b 278 840 258 893 278 874 b 226 793 278 810 264 793 l 204 793 b 185 772 192 793 185 786 l 185 742 b 204 721 185 728 192 721 l 226 721 b 281 674 267 721 281 704 b 224 621 281 640 261 621 b 167 665 188 621 167 636 l 167 675 b 146 696 167 689 160 696 l 104 696 b 83 675 90 696 83 689 l 83 657 b 208 542 83 590 129 542 l 243 542 b 368 661 331 542 368 601 b 301 757 368 704 346 736 z m 769 951 l 208 21 b 222 0 200 7 208 0 l 275 0 b 303 21 289 0 294 7 l 864 951 b 850 972 872 965 864 972 l 797 972 b 769 951 783 972 778 965 z m 932 226 b 978 317 960 244 978 274 b 860 431 978 381 936 431 l 836 431 b 718 317 764 431 718 381 b 764 226 718 274 736 244 b 707 122 736 210 707 182 b 835 0 707 50 750 0 l 861 0 b 989 122 946 0 989 50 b 932 226 989 182 960 210 z m 851 258 l 844 258 b 799 307 817 258 799 276 b 844 356 799 338 817 356 l 851 356 b 897 307 879 356 897 338 b 851 258 897 276 879 258 z m 840 78 b 792 131 811 78 792 94 b 840 186 792 165 811 186 l 856 186 b 904 131 885 186 904 165 b 856 78 904 94 885 78 z "},"⅝":{"ha":1075,"x_min":0,"x_max":0,"o":"m 238 824 b 169 799 215 824 188 818 l 169 892 l 332 892 b 353 913 346 892 353 899 l 353 951 b 332 972 353 965 346 972 l 110 972 b 89 951 96 972 89 965 l 89 757 b 110 736 89 743 96 736 l 168 736 b 221 754 181 749 201 754 b 281 682 268 754 281 726 b 224 621 281 640 261 621 b 167 665 188 621 167 636 l 167 675 b 146 696 167 689 160 696 l 104 696 b 83 675 90 696 83 689 l 83 657 b 208 542 83 590 129 542 l 243 542 b 368 682 331 542 368 601 b 238 824 368 769 325 824 z m 772 951 l 211 21 b 225 0 203 7 211 0 l 278 0 b 306 21 292 0 297 7 l 867 951 b 853 972 875 965 867 972 l 800 972 b 772 951 786 972 781 965 z m 935 226 b 981 317 963 244 981 274 b 863 431 981 381 939 431 l 839 431 b 721 317 767 431 721 381 b 767 226 721 274 739 244 b 710 122 739 210 710 182 b 838 0 710 50 753 0 l 864 0 b 992 122 949 0 992 50 b 935 226 992 182 963 210 z m 854 258 l 847 258 b 801 307 819 258 801 276 b 847 356 801 338 819 356 l 854 356 b 900 307 882 356 900 338 b 854 258 900 276 882 258 z m 843 78 b 794 131 814 78 794 94 b 843 186 794 165 814 186 l 858 186 b 907 131 888 186 907 165 b 858 78 907 94 888 78 z "},"⅞":{"ha":1060,"x_min":0,"x_max":0,"o":"m 353 908 l 353 951 b 332 972 353 965 346 972 l 104 972 b 83 951 90 972 83 965 l 83 910 b 104 889 83 896 90 889 l 260 889 l 104 561 b 117 542 100 551 104 542 l 175 542 b 197 561 186 542 193 551 l 347 885 b 353 908 353 896 353 903 z m 757 951 l 196 21 b 210 0 188 7 196 0 l 263 0 b 290 21 276 0 282 7 l 851 951 b 838 972 860 965 851 972 l 785 972 b 757 951 771 972 765 965 z m 919 226 b 965 317 947 244 965 274 b 847 431 965 381 924 431 l 824 431 b 706 317 751 431 706 381 b 751 226 706 274 724 244 b 694 122 724 210 694 182 b 822 0 694 50 738 0 l 849 0 b 976 122 933 0 976 50 b 919 226 976 182 947 210 z m 839 258 l 832 258 b 786 307 804 258 786 276 b 832 356 786 338 804 356 l 839 356 b 885 307 867 356 885 338 b 839 258 885 276 867 258 z m 828 78 b 779 131 799 78 779 94 b 828 186 779 165 799 186 l 843 186 b 892 131 872 186 892 165 b 843 78 892 94 872 78 z "},".":{"ha":257,"x_min":0,"x_max":0,"o":"m 69 0 l 189 0 b 208 21 203 0 208 7 l 208 140 b 189 160 208 154 203 160 l 69 160 b 49 140 56 160 49 154 l 49 21 b 69 0 49 7 56 0 z "},",":{"ha":297,"x_min":0,"x_max":0,"o":"m 228 160 l 132 160 b 113 140 118 160 113 154 l 113 -92 l 56 -92 b 35 -111 42 -92 35 -97 l 35 -200 b 56 -221 35 -214 42 -221 l 201 -221 b 249 -174 232 -221 249 -204 l 249 140 b 228 160 249 154 242 160 z "}}}
